<svg width="1401" height="1183" viewBox="0 0 1401 1183" fill="none" xmlns="http://www.w3.org/2000/svg">
<path d="M964.451 856.669C998.088 856.447 1031.85 859.273 1065.3 855.741C1114.57 850.539 1163.99 831.646 1212.36 842.376C1227.06 845.637 1241.82 852.136 1250.75 864.246C1259.68 876.355 1260.8 895.007 1250.17 905.655C1124.37 906.823 998.578 907.99 872.782 909.157C864.473 909.234 855.979 909.283 848.109 906.619C840.241 903.955 832.975 898.02 831.035 889.951C823.334 857.921 863.839 873.708 877.927 870.37C907.41 863.384 933.649 856.873 964.451 856.669Z" fill="white"/>
<path d="M431.575 856.669C397.938 856.447 364.18 859.273 330.729 855.741C281.458 850.539 232.035 831.646 183.668 842.376C168.967 845.637 154.204 852.136 145.273 864.246C136.343 876.355 135.225 895.007 145.859 905.655C271.654 906.823 397.448 907.99 523.244 909.157C531.553 909.234 540.046 909.283 547.916 906.619C555.785 903.955 563.051 898.02 564.991 889.951C572.692 857.921 532.187 873.708 518.099 870.37C488.616 863.384 462.377 856.873 431.575 856.669Z" fill="white"/>
<path d="M1159.63 441H1277.19C1278.93 441 1279.79 438.9 1278.57 437.669C1271.55 430.59 1260.72 428.266 1251.54 432.407C1250.6 432.831 1249.51 432.356 1249.06 431.431C1240.84 414.739 1222.37 402.899 1203.75 403.244C1185.47 403.583 1165.88 421.131 1157.87 438.215C1157.26 439.511 1158.19 441 1159.63 441Z" fill="white"/>
<path d="M1193.39 432.448C1207.57 435.199 1222.06 435.351 1236.4 433.849C1222.28 430.624 1207.7 430.476 1193.39 432.448Z" fill="#DDFAFB"/>
<path d="M1212 425.968C1217.73 427.112 1223.61 427.245 1229.42 426.582C1223.7 425.206 1217.79 425.076 1212 425.968Z" fill="#DDFAFB"/>
<path d="M1108.01 384.239H1272.29C1278.06 384.239 1282.21 378.488 1280.16 373.101C1278.71 369.299 1276.52 365.819 1273.59 363.214C1269.58 359.651 1264.49 357.344 1259.18 356.571C1255.5 356.036 1252.63 353.008 1252.27 349.311C1250.73 333.17 1241.56 317.679 1227.9 308.903C1212.24 298.841 1191.18 297.815 1174.61 306.307C1160.25 313.668 1149.73 327.944 1146.58 343.716C1145.8 347.583 1142.33 350.402 1138.38 350.301C1128.18 350.04 1118.04 353.028 1108.79 357.687C1102.53 360.842 1096.86 365.144 1092.1 370.279C1087.07 375.696 1090.92 384.475 1098.32 384.344C1101.62 384.286 1104.9 384.239 1108.01 384.239Z" fill="white"/>
<path d="M1216.27 368.038C1202.32 367.966 1188.44 369.672 1174.7 371.998C1172.12 372.271 1176.97 372.392 1177.87 372.554C1185.17 373.235 1192.49 373.516 1199.8 374.011C1221.92 375.781 1244.13 375.032 1266.23 373.436C1249.77 370.317 1233.04 368.17 1216.27 368.038Z" fill="#DDFAFB"/>
<path d="M1188.94 309.431C1179.82 311.59 1172.49 318.174 1165.8 324.399C1164.69 325.499 1163.61 326.619 1162.57 327.777C1162.73 327.678 1162.9 327.581 1163.06 327.483C1167.55 324.808 1172.11 322.241 1176.71 319.754C1183.53 315.913 1190.16 312.862 1194.58 312.577C1199.99 311.661 1205.33 312.94 1210.32 315.007C1204.37 309.927 1196.64 307.721 1188.94 309.431Z" fill="#DDFAFB"/>
<path d="M1171.36 328.706C1169.43 330.435 1170.4 329.717 1172 328.974C1178.49 326.011 1185.22 322.077 1192.57 322.418C1185.04 319.437 1176.86 323.539 1171.36 328.706Z" fill="#DDFAFB"/>
<path d="M337.03 373.049H127.58C124.49 373.049 122.95 369.308 125.125 367.115C137.641 354.503 156.923 350.362 173.29 357.739C174.965 358.494 176.896 357.648 177.707 356C192.347 326.263 225.256 305.17 258.419 305.784C290.985 306.387 325.888 337.65 340.168 368.086C341.251 370.396 339.583 373.049 337.03 373.049Z" fill="white"/>
<path d="M225.943 364.744C225.172 364.898 224.403 365.061 223.634 365.227C233.1 365.7 242.565 366.206 252.042 366.378C275.439 367.252 298.63 363.794 321.808 361.147C289.964 356.602 257.444 358.677 225.943 364.744Z" fill="#DDFAFB"/>
<path d="M264.839 347.329C273.698 348.381 282.638 348.276 291.512 347.46C282.762 345.22 273.623 345.327 264.839 347.329Z" fill="#DDFAFB"/>
<path d="M235.675 352.778C244.261 353.995 252.937 353.571 261.49 352.303C252.952 350.611 244.169 351.035 235.675 352.778Z" fill="#DDFAFB"/>
<path d="M266.36 321.68C277.903 325.959 289.566 329.934 300.721 335.167C290.816 325.901 279.776 322.186 266.36 321.68Z" fill="#DDFAFB"/>
<path d="M290.343 496.87H234.077C232.101 496.87 230.68 494.9 231.382 493.055C231.877 491.753 232.627 490.561 233.632 489.669C235.006 488.449 236.749 487.659 238.567 487.394C239.828 487.21 240.813 486.173 240.934 484.907C241.462 479.379 244.604 474.073 249.282 471.067C254.645 467.622 261.859 467.27 267.533 470.178C272.453 472.7 276.053 477.589 277.134 482.991C277.4 484.316 278.588 485.281 279.94 485.246C283.434 485.157 286.908 486.181 290.075 487.776C292.219 488.857 294.161 490.33 295.794 492.089C297.516 493.944 296.196 496.951 293.663 496.906C292.53 496.886 291.41 496.87 290.343 496.87Z" fill="white"/>
<path d="M272.46 489.17C272.015 481.727 267.459 475.628 260.661 472.687C265.683 477.001 269.625 482.94 271.689 488.716C271.982 489.572 272.283 490.425 272.596 491.274C272.557 490.572 272.515 489.87 272.46 489.17Z" fill="#DDFAFB"/>
<path d="M270.096 477.646C271.26 480.848 272.602 483.743 274.313 486.857C273.779 483.453 272.294 480.293 270.096 477.646Z" fill="#DDFAFB"/>
<path d="M239.307 490.54C240.429 490.016 241.548 489.439 242.42 488.54C243.345 487.552 243.941 486.31 244.519 485.101C242.844 486.98 241.243 488.915 239.307 490.54Z" fill="#DDFAFB"/>
<path d="M1260.49 667.696H1144.8C1140.73 667.696 1137.81 663.646 1139.26 659.853C1140.28 657.176 1141.82 654.725 1143.88 652.89C1146.71 650.381 1150.29 648.757 1154.03 648.213C1156.62 647.835 1158.65 645.703 1158.9 643.099C1159.98 631.732 1166.44 620.824 1176.06 614.643C1187.09 607.557 1201.92 606.835 1213.59 612.815C1223.7 617.999 1231.11 628.053 1233.33 639.159C1233.88 641.883 1236.32 643.867 1239.1 643.796C1246.28 643.613 1253.43 645.717 1259.94 648.999C1264.35 651.22 1268.34 654.249 1271.7 657.866C1275.24 661.681 1272.52 667.863 1267.32 667.771C1264.99 667.73 1262.68 667.696 1260.49 667.696Z" fill="white"/>
<path d="M1223.72 651.863C1222.8 636.561 1213.44 624.019 1199.46 617.971C1209.78 626.843 1217.89 639.054 1222.13 650.93C1222.74 652.69 1223.35 654.446 1224 656.191C1223.92 654.748 1223.83 653.305 1223.72 651.863Z" fill="#DDFAFB"/>
<path d="M1218.86 628.169C1221.25 634.753 1224.01 640.706 1227.53 647.107C1226.43 640.11 1223.38 633.611 1218.86 628.169Z" fill="#DDFAFB"/>
<path d="M1155.55 654.681C1157.86 653.604 1160.16 652.416 1161.95 650.569C1163.85 648.538 1165.08 645.984 1166.27 643.497C1162.83 647.361 1159.53 651.34 1155.55 654.681Z" fill="#DDFAFB"/>
<path d="M286.692 687.262C325.062 673.691 354.604 637.521 360.204 597.256L349.564 595.781C344.502 632.181 317.794 664.881 283.105 677.15L286.692 687.262Z" fill="#8561B4"/>
<path d="M276.894 621.744C279.814 704.965 265.553 788.045 235.841 864.277L268.77 875.445C293.219 792.405 300.331 705.185 290.126 620.711L276.894 621.744Z" fill="#8561B4"/>
<path d="M183.627 626.511L198.407 866.923L226.018 865.771L196.86 625.959L183.627 626.511Z" fill="#8561B4"/>
<path d="M195.203 687.571L199.209 682.005C221.147 651.53 238.553 618.111 250.943 582.676L238.413 578.305C227.215 610.331 211.776 640.654 192.478 668.536C168.716 648.45 151.272 621.243 143.037 591.225L130.236 594.727C139.839 629.735 160.981 661.222 189.769 683.386L195.203 687.571Z" fill="#8561B4"/>
<path d="M290.249 882.437C291.068 878.748 291.496 874.975 291.455 871.196C291.248 852.077 280.023 833.713 263.65 823.801C246.837 813.622 225.485 812.228 206.699 818.023C187.914 823.817 171.634 836.309 159.257 851.565C150.83 844.834 139.026 842.558 128.695 845.673C118.365 848.789 109.795 857.208 106.508 867.473C107.508 864.347 82.827 870.137 80.5552 871.409C75.6088 874.18 71.3554 877.962 68.0081 882.437H290.249Z" fill="#E0E0E0"/>
<mask id="mask0_253_12085" style="mask-type:luminance" maskUnits="userSpaceOnUse" x="137" y="814" width="155" height="69">
<path d="M137.131 814.626H291.458V882.437H137.131V814.626Z" fill="white"/>
</mask>
<g mask="url(#mask0_253_12085)">
<g opacity="0.419998">
<path d="M263.651 823.801C248.071 814.369 228.597 812.492 210.876 816.876C213.077 816.776 215.175 816.592 216.624 816.702C222.367 817.14 228.071 818.141 233.466 820.208C245.7 824.897 256.275 836.593 255.265 849.641C254.458 860.077 246.427 868.901 236.955 873.383C227.483 877.863 216.731 878.715 206.253 878.945C198.952 879.105 191.554 878.986 184.498 877.104C177.443 875.222 170.681 871.405 166.512 865.418C163.393 860.941 161.927 855.626 160.228 850.406C159.905 850.793 159.574 851.174 159.257 851.565C153.063 846.618 145.047 844.088 137.131 844.326C142.275 848.007 151.773 849.002 152.087 855.395C152.351 860.792 144.965 865.536 147.537 870.29C148.819 872.659 151.971 873.298 153.787 875.289C155.628 877.306 155.468 880.062 154.177 882.437H290.249C291.068 878.748 291.496 874.975 291.455 871.196C291.249 852.077 280.023 833.713 263.651 823.801Z" fill="#E0E0E0"/>
</g>
</g>
<mask id="mask1_253_12085" style="mask-type:luminance" maskUnits="userSpaceOnUse" x="136" y="819" width="115" height="58">
<path d="M136.815 819.45H250.22V876.909H136.815V819.45Z" fill="white"/>
</mask>
<g mask="url(#mask1_253_12085)">
<g opacity="0.419998">
<path d="M246.18 855.392C245.21 839.164 235.275 825.864 220.451 819.451C231.402 828.858 239.999 841.808 244.499 854.403C245.138 856.27 245.793 858.131 246.476 859.982C246.391 858.451 246.3 856.921 246.18 855.392Z" fill="#E0E0E0"/>
<path d="M241.025 830.264C243.564 837.247 246.49 843.559 250.221 850.349C249.055 842.928 245.819 836.036 241.025 830.264Z" fill="#E0E0E0"/>
<path d="M170.082 862.557C171.248 864.991 172.531 867.415 174.51 869.296C176.685 871.29 179.409 872.563 182.061 873.798C177.926 870.189 173.667 866.739 170.082 862.557Z" fill="#E0E0E0"/>
</g>
</g>
<path d="M88.1509 631.878C91.9571 608.954 99.8363 587.215 113.414 571.668C131.745 550.677 162.021 544.828 181.266 564.461C169.962 525.69 180.348 478.433 205.839 452.649C231.331 426.865 269.996 424.509 297.322 447.075C314.171 460.989 326.239 482.764 334.341 506.09C342.444 529.417 346.914 554.461 351.339 579.323C372.081 577.568 393.197 591.133 404.343 613.371C407.506 619.682 409.597 625.826 410.876 631.878H88.1509Z" fill="#E0E0E0"/>
<mask id="mask2_253_12085" style="mask-type:luminance" maskUnits="userSpaceOnUse" x="88" y="431" width="166" height="203">
<path d="M88.6953 431.471H253.579V633.167H88.6953V431.471Z" fill="white"/>
</mask>
<g mask="url(#mask2_253_12085)">
<g opacity="0.419998">
<path d="M188.607 620.225C190.785 623.631 191.42 627.848 191.731 632.273L88.6948 633.167C92.3774 610.21 100.139 588.403 113.632 572.739C131.85 551.59 162.093 545.478 181.444 564.944C169.931 526.272 180.061 478.925 205.413 452.921C218.927 439.06 236.219 431.826 253.579 431.472C249.51 434.351 245.553 437.074 244.199 438.645C237.817 446.048 232.704 455.24 229.577 465.482C222.47 488.76 225.824 516.671 238.076 536.214C241.861 542.25 246.75 549.309 244.748 556.59C242.327 565.392 232.767 565.424 225.413 565.343C214.257 565.22 203.292 568.67 192.47 572.098C186.781 573.899 181.094 575.7 175.406 577.501C170.286 579.123 164.988 580.854 160.876 585.048C156.765 589.242 154.187 596.641 156.269 602.787C161.089 617.013 180.917 608.194 188.607 620.225Z" fill="#E0E0E0"/>
</g>
</g>
<mask id="mask3_253_12085" style="mask-type:luminance" maskUnits="userSpaceOnUse" x="342" y="611" width="45" height="20">
<path d="M342.338 611.586H386.442V630.967H342.338V611.586Z" fill="white"/>
</mask>
<g mask="url(#mask3_253_12085)">
<g opacity="0.419998">
<path d="M342.338 630.967C345.042 627.293 347.797 623.693 350.884 620.551C357.182 614.145 365.509 609.715 373.308 612.368C380.101 614.679 384.589 621.981 386.442 630.584L342.338 630.967Z" fill="#E0E0E0"/>
</g>
</g>
<mask id="mask4_253_12085" style="mask-type:luminance" maskUnits="userSpaceOnUse" x="233" y="441" width="77" height="53">
<path d="M233.629 441.718H309.961V493.152H233.629V441.718Z" fill="white"/>
</mask>
<g mask="url(#mask4_253_12085)">
<g opacity="0.419998">
<path d="M237.669 487.327C238.639 466.734 248.574 449.856 263.398 441.717C252.447 453.656 243.85 470.089 239.35 486.072C238.711 488.44 238.056 490.803 237.373 493.152C237.458 491.209 237.549 489.267 237.669 487.327Z" fill="#E0E0E0"/>
<path d="M242.824 455.44C240.285 464.301 237.359 472.312 233.628 480.927C234.794 471.51 238.03 462.764 242.824 455.44Z" fill="#E0E0E0"/>
<path d="M309.96 491.119C307.513 489.67 305.073 488.072 303.172 485.585C301.155 482.851 299.855 479.415 298.595 476.068C302.247 481.267 305.74 486.623 309.96 491.119Z" fill="#E0E0E0"/>
</g>
</g>
<mask id="mask5_253_12085" style="mask-type:luminance" maskUnits="userSpaceOnUse" x="268" y="572" width="77" height="54">
<path d="M268.322 572.406H344.954V625.371H268.322V572.406Z" fill="white"/>
</mask>
<g mask="url(#mask5_253_12085)">
<g opacity="0.419998">
<path d="M340.674 578.242C340.489 598.871 331.207 616.336 316.711 625.371C327.195 612.778 335.157 595.838 339.043 579.599C339.592 577.194 340.156 574.794 340.748 572.406C340.737 574.351 340.721 576.297 340.674 578.242Z" fill="#E0E0E0"/>
<path d="M336.739 610.407C338.938 601.401 341.556 593.221 344.954 584.387C344.148 593.865 341.249 602.798 336.739 610.407Z" fill="#E0E0E0"/>
<path d="M268.323 578.873C270.823 580.171 273.321 581.618 275.314 583.985C277.432 586.592 278.861 589.946 280.247 593.212C276.402 588.242 272.71 583.106 268.323 578.873Z" fill="#E0E0E0"/>
</g>
</g>
<path d="M1158.81 615.62L1174.5 870.96L1203.83 869.737L1172.86 615.034L1158.81 615.62Z" fill="#8561B4"/>
<path d="M1171.1 680.471L1175.36 674.561C1198.66 642.193 1217.14 606.699 1230.3 569.064L1216.99 564.421C1205.1 598.436 1188.7 630.642 1168.21 660.255C1142.97 638.922 1124.44 610.026 1115.7 578.144L1102.1 581.863C1112.3 619.045 1134.75 652.486 1165.33 676.027L1171.1 680.471Z" fill="#8561B4"/>
<path d="M1272.05 887.437C1272.92 883.519 1273.37 879.512 1273.33 875.499C1273.11 855.192 1261.19 835.688 1243.8 825.16C1225.94 814.349 1203.26 812.868 1183.31 819.023C1163.36 825.178 1146.07 838.445 1132.92 854.648C1123.97 847.499 1111.44 845.082 1100.46 848.391C1089.49 851.7 1080.39 860.641 1076.9 871.544C1077.96 868.223 1051.75 874.373 1049.33 875.725C1044.08 878.667 1039.56 882.684 1036.01 887.437H1272.05Z" fill="#E0E0E0"/>
<mask id="mask6_253_12085" style="mask-type:luminance" maskUnits="userSpaceOnUse" x="1109" y="815" width="165" height="73">
<path d="M1109.42 815.416H1273.33V887.437H1109.42V815.416Z" fill="white"/>
</mask>
<g mask="url(#mask6_253_12085)">
<g opacity="0.419998">
<path d="M1243.8 825.16C1227.25 815.142 1206.57 813.149 1187.75 817.806C1190.08 817.699 1192.31 817.503 1193.85 817.621C1199.95 818.086 1206.01 819.149 1211.74 821.344C1224.73 826.324 1235.96 838.747 1234.89 852.605C1234.03 863.688 1225.51 873.061 1215.45 877.82C1205.39 882.579 1193.97 883.484 1182.84 883.728C1175.08 883.898 1167.22 883.771 1159.73 881.773C1152.24 879.774 1145.06 875.72 1140.63 869.361C1137.32 864.606 1135.76 858.961 1133.95 853.417C1133.61 853.828 1133.26 854.233 1132.92 854.649C1126.34 849.394 1117.83 846.707 1109.42 846.959C1114.89 850.869 1124.97 851.926 1125.31 858.716C1125.59 864.448 1117.74 869.486 1120.48 874.535C1121.84 877.051 1125.18 877.731 1127.11 879.845C1129.07 881.988 1128.9 884.914 1127.53 887.437H1272.05C1272.92 883.519 1273.37 879.512 1273.33 875.498C1273.11 855.192 1261.19 835.688 1243.8 825.16Z" fill="#E0E0E0"/>
</g>
</g>
<mask id="mask7_253_12085" style="mask-type:luminance" maskUnits="userSpaceOnUse" x="1068" y="882" width="35" height="6">
<path d="M1068.91 882.54H1102.54V887.437H1068.91V882.54Z" fill="white"/>
</mask>
<g mask="url(#mask7_253_12085)">
<g opacity="0.419998">
<path d="M1068.92 887.437H1102.54C1094.28 883.694 1085.07 881.074 1076.39 883.446C1073.67 884.187 1071.11 885.601 1068.92 887.437Z" fill="#E0E0E0"/>
</g>
</g>
<mask id="mask8_253_12085" style="mask-type:luminance" maskUnits="userSpaceOnUse" x="1109" y="820" width="121" height="62">
<path d="M1109.09 820.54H1229.53V881.565H1109.09V820.54Z" fill="white"/>
</mask>
<g mask="url(#mask8_253_12085)">
<g opacity="0.419998">
<path d="M1225.24 858.713C1224.21 841.477 1213.66 827.351 1197.92 820.54C1209.55 830.531 1218.68 844.286 1223.46 857.662C1224.14 859.645 1224.83 861.622 1225.56 863.588C1225.47 861.962 1225.37 860.337 1225.24 858.713Z" fill="#E0E0E0"/>
<path d="M1144.42 866.322C1145.66 868.908 1147.02 871.482 1149.12 873.48C1151.43 875.598 1154.33 876.95 1157.14 878.261C1152.75 874.428 1148.23 870.764 1144.42 866.322Z" fill="#E0E0E0"/>
<path d="M1120.91 862.612C1119.86 859.944 1118.69 857.276 1116.74 855.131C1114.59 852.851 1111.8 851.292 1109.09 849.778C1113.19 853.921 1117.43 857.905 1120.91 862.612Z" fill="#E0E0E0"/>
<path d="M1111.1 869.626C1112.34 872.211 1113.71 874.786 1115.81 876.784C1118.12 878.902 1121.01 880.254 1123.83 881.565C1119.44 877.731 1114.91 874.068 1111.1 869.626Z" fill="#E0E0E0"/>
</g>
</g>
<path d="M1057.4 621.321C1061.44 596.974 1069.81 573.885 1084.23 557.373C1103.7 535.078 1135.86 528.866 1156.3 549.718C1144.29 508.54 1155.32 458.348 1182.4 430.964C1209.47 403.579 1250.54 401.076 1279.56 425.044C1297.46 439.822 1310.27 462.949 1318.88 487.723C1327.48 512.499 1332.23 539.097 1336.93 565.503C1358.96 563.64 1381.39 578.046 1393.23 601.666C1396.58 608.368 1398.81 614.894 1400.16 621.321H1057.4Z" fill="#E0E0E0"/>
<mask id="mask9_253_12085" style="mask-type:luminance" maskUnits="userSpaceOnUse" x="1057" y="408" width="177" height="215">
<path d="M1057.98 408.471H1233.1V622.69H1057.98V408.471Z" fill="white"/>
</mask>
<g mask="url(#mask9_253_12085)">
<g opacity="0.419998">
<path d="M1164.09 608.944C1166.41 612.562 1167.08 617.041 1167.41 621.741L1057.98 622.69C1061.89 598.308 1070.13 575.147 1084.46 558.51C1103.81 536.048 1135.93 529.557 1156.49 550.232C1144.26 509.158 1155.02 458.872 1181.94 431.253C1196.3 416.531 1214.66 408.848 1233.1 408.472C1228.78 411.53 1224.58 414.422 1223.14 416.091C1216.36 423.954 1210.93 433.716 1207.61 444.593C1200.06 469.317 1203.62 498.961 1216.64 519.717C1220.66 526.129 1225.85 533.626 1223.72 541.358C1221.15 550.707 1211 550.741 1203.19 550.655C1191.34 550.525 1179.69 554.188 1168.2 557.829C1162.16 559.742 1156.11 561.656 1150.07 563.568C1144.64 565.291 1139.01 567.129 1134.64 571.583C1130.28 576.038 1127.54 583.896 1129.75 590.424C1134.87 605.534 1155.93 596.167 1164.09 608.944Z" fill="#E0E0E0"/>
</g>
</g>
<mask id="mask10_253_12085" style="mask-type:luminance" maskUnits="userSpaceOnUse" x="1211" y="419" width="82" height="55">
<path d="M1211.91 419.354H1292.99V473.981H1211.91V419.354Z" fill="white"/>
</mask>
<g mask="url(#mask10_253_12085)">
<g opacity="0.419998">
<path d="M1221.68 433.928C1218.98 443.339 1215.87 451.847 1211.91 460.998C1213.15 450.995 1216.59 441.707 1221.68 433.928Z" fill="#E0E0E0"/>
</g>
</g>
</svg>
