<svg width="935" height="561" viewBox="0 0 935 561" fill="none" xmlns="http://www.w3.org/2000/svg">
<path d="M471.743 260.029C478.944 260.182 486.003 263.264 493.148 262.361C491.543 263.99 489.939 265.62 488.335 267.248C489.172 269.241 490.81 270.884 492.802 271.728C490.726 272.98 488.219 273.34 485.794 273.27C483.37 273.201 480.977 272.733 478.568 272.45C476.159 272.167 473.678 272.074 471.345 272.738C471.224 268.919 471.086 265.111 470.965 261.293C470.955 260.976 470.949 260.642 471.102 260.364C471.255 260.087 471.426 260.022 471.743 260.029Z" fill="white"/>
<path d="M472.651 310.246H470.271V259.136H472.651V310.246Z" fill="white"/>
<path d="M574.874 376.412H649.095V384.492H574.874V376.412Z" fill="white"/>
<path d="M639.971 547.111H575.377V384.492H639.971V547.111Z" fill="#9747FF"/>
<mask id="mask0_253_12288" style="mask-type:luminance" maskUnits="userSpaceOnUse" x="575" y="384" width="65" height="164">
<path d="M575.379 384.492H639.969V547.111H575.379V384.492Z" fill="white"/>
</mask>
<g mask="url(#mask0_253_12288)">
<g opacity="0.25">
<path d="M610.356 386.779C614.798 387.337 619.534 387.452 623.281 389.896C629.843 394.175 630.487 403.356 630.443 411.182C630.288 438.811 630.133 466.441 629.977 494.07C629.929 502.684 629.785 511.691 625.71 519.284C620.752 528.521 610.68 534.063 600.452 536.411C592.256 538.292 583.807 538.438 575.377 538.61V547.111H639.971V384.492H602.878C604.89 385.944 608.401 386.534 610.356 386.779Z" fill="#9747FF"/>
</g>
</g>
<path d="M624.275 404.882H599.694V444.014H624.275V404.882Z" fill="white"/>
<path d="M624.275 413.474H599.694V444.014H624.275V413.474Z" fill="#8561B4"/>
<path d="M624.275 472.141H599.694V511.273H624.275V472.141Z" fill="white"/>
<path d="M624.275 480.733H599.694V511.272H624.275V480.733Z" fill="#8561B4"/>
<path d="M368.026 376.412H293.806V384.492H368.026V376.412Z" fill="white"/>
<path d="M302.93 547.111H367.524V384.492H302.93V547.111Z" fill="#9747FF"/>
<path d="M318.625 404.882H343.207V444.014H318.625V404.882Z" fill="white"/>
<path d="M318.625 413.474H343.207V444.014H318.625V413.474Z" fill="#8561B4"/>
<path d="M318.625 472.141H343.207V511.273H318.625V472.141Z" fill="white"/>
<path d="M318.625 480.733H343.207V511.272H318.625V480.733Z" fill="#8561B4"/>
<mask id="mask1_253_12288" style="mask-type:luminance" maskUnits="userSpaceOnUse" x="302" y="384" width="66" height="164">
<path d="M302.93 384.492H367.524V547.111H302.93V384.492Z" fill="white"/>
</mask>
<g mask="url(#mask1_253_12288)">
<g opacity="0.25">
<path d="M337.91 386.779C342.351 387.337 347.087 387.452 350.835 389.896C357.396 394.175 358.041 403.356 357.996 411.182C357.841 438.811 357.686 466.441 357.531 494.07C357.482 502.684 357.339 511.691 353.263 519.284C348.305 528.521 338.233 534.063 328.005 536.411C319.809 538.292 311.36 538.438 302.93 538.61V547.111H367.524V384.492H330.432C332.443 385.944 335.954 386.534 337.91 386.779Z" fill="#9747FF"/>
</g>
</g>
<path d="M574.027 547.111H368.874V348.784H574.027V547.111Z" fill="#9747FF"/>
<mask id="mask2_253_12288" style="mask-type:luminance" maskUnits="userSpaceOnUse" x="368" y="348" width="207" height="200">
<path d="M368.874 348.784H574.028V547.111H368.874V348.784Z" fill="white"/>
</mask>
<g mask="url(#mask2_253_12288)">
<g opacity="0.240005">
<path d="M466.7 528.619C452.432 535.125 438.008 541.289 423.447 547.111H574.028V348.784H368.875V371.859C389.655 373.983 411.702 372.399 432.446 372.821C445.813 373.093 459.18 373.364 472.547 373.636C484.768 373.884 497.98 374.477 507.493 382.142C519.862 392.109 521.408 410.034 521.973 425.896C522.922 452.526 523.038 481.771 506.118 502.376C496.013 514.681 481.197 522.009 466.7 528.619Z" fill="#9747FF"/>
</g>
</g>
<mask id="mask3_253_12288" style="mask-type:luminance" maskUnits="userSpaceOnUse" x="394" y="502" width="23" height="6">
<path d="M394.338 502.689H416.128V507.466H394.338V502.689Z" fill="white"/>
</mask>
<g mask="url(#mask3_253_12288)">
<g opacity="0.240005">
<path d="M416.128 507.466H394.338V502.689H416.128V507.466Z" fill="#9747FF"/>
</g>
</g>
<mask id="mask4_253_12288" style="mask-type:luminance" maskUnits="userSpaceOnUse" x="417" y="502" width="23" height="6">
<path d="M417.989 502.689H439.78V507.466H417.989V502.689Z" fill="white"/>
</mask>
<g mask="url(#mask4_253_12288)">
<g opacity="0.240005">
<path d="M439.78 507.466H417.989V502.689H439.78V507.466Z" fill="#9747FF"/>
</g>
</g>
<mask id="mask5_253_12288" style="mask-type:luminance" maskUnits="userSpaceOnUse" x="404" y="496" width="23" height="6">
<path d="M404.702 496.85H426.492V501.627H404.702V496.85Z" fill="white"/>
</mask>
<g mask="url(#mask5_253_12288)">
<g opacity="0.240005">
<path d="M426.492 501.627H404.702V496.851H426.492V501.627Z" fill="#9747FF"/>
</g>
</g>
<mask id="mask6_253_12288" style="mask-type:luminance" maskUnits="userSpaceOnUse" x="317" y="457" width="23" height="6">
<path d="M317.281 457.551H339.072V462.328H317.281V457.551Z" fill="white"/>
</mask>
<g mask="url(#mask6_253_12288)">
<g opacity="0.240005">
<path d="M339.072 462.328H317.281V457.551H339.072V462.328Z" fill="#9747FF"/>
</g>
</g>
<mask id="mask7_253_12288" style="mask-type:luminance" maskUnits="userSpaceOnUse" x="327" y="451" width="23" height="6">
<path d="M327.645 451.712H349.436V456.49H327.645V451.712Z" fill="white"/>
</mask>
<g mask="url(#mask7_253_12288)">
<g opacity="0.240005">
<path d="M349.436 456.49H327.646V451.713H349.436V456.49Z" fill="#9747FF"/>
</g>
</g>
<path d="M471.45 290.559L354.022 334.489H588.879L471.45 290.559Z" fill="#9747FF"/>
<mask id="mask8_253_12288" style="mask-type:luminance" maskUnits="userSpaceOnUse" x="354" y="296" width="235" height="39">
<path d="M354.022 296.408H588.879V334.489H354.022V296.408Z" fill="white"/>
</mask>
<g mask="url(#mask8_253_12288)">
<g opacity="0.240005">
<path d="M487.085 296.408C488.928 299.682 491.489 303.072 491.489 305.827C493.506 313.164 492.59 321.782 487.243 327.202C480.655 333.879 470.009 333.714 460.643 333.093C431.511 331.161 402.378 329.229 373.246 327.298L354.022 334.489H588.879L487.085 296.408Z" fill="#9747FF"/>
</g>
</g>
<path d="M471.45 456.824L432.709 472.343H510.192L471.45 456.824Z" fill="white"/>
<path d="M599.887 342.662H343.014V334.489H599.887V342.662Z" fill="#8561B4"/>
<path d="M588.879 356.022H354.022V342.662H588.879V356.022Z" fill="white"/>
<path d="M596.538 547.111H346.363V533.75H596.538V547.111Z" fill="white"/>
<path d="M649.095 560.471H293.806V547.111H649.095V560.471Z" fill="#8561B4"/>
<path d="M410.908 364.913H391.487C388.648 364.913 386.346 362.614 386.346 359.779V356.022H416.049V359.779C416.049 362.614 413.747 364.913 410.908 364.913Z" fill="#8561B4"/>
<path d="M391.488 524.86H410.908C413.748 524.86 416.049 527.159 416.049 529.994V533.751H386.347V529.994C386.347 527.159 388.649 524.86 391.488 524.86Z" fill="#8561B4"/>
<path d="M410.256 524.86H392.141V364.913H410.256V524.86Z" fill="white"/>
<mask id="mask9_253_12288" style="mask-type:luminance" maskUnits="userSpaceOnUse" x="392" y="364" width="19" height="161">
<path d="M392.141 364.913H410.256V524.86H392.141V364.913Z" fill="white"/>
</mask>
<g mask="url(#mask9_253_12288)">
<g opacity="0.380005">
<path d="M392.141 365.692C393.271 367.131 395.318 368.095 396.644 368.956C399.598 370.872 402.085 372.865 403.673 376.129C406.438 381.813 406.312 388.415 406.128 394.732C405.212 426.187 404.296 457.642 403.379 489.097C403.012 501.712 402.182 515.504 393.749 524.86H410.255V364.913H392.141V365.692Z" fill="white"/>
</g>
</g>
<path d="M378.584 364.913H359.164C356.324 364.913 354.022 362.614 354.022 359.779V356.022H383.725V359.779C383.725 362.614 381.424 364.913 378.584 364.913Z" fill="#8561B4"/>
<path d="M359.163 524.86H378.583C381.423 524.86 383.725 527.159 383.725 529.994V533.751H354.022V529.994C354.022 527.159 356.324 524.86 359.163 524.86Z" fill="#8561B4"/>
<path d="M377.931 524.86H359.816V364.913H377.931V524.86Z" fill="white"/>
<mask id="mask10_253_12288" style="mask-type:luminance" maskUnits="userSpaceOnUse" x="359" y="364" width="19" height="161">
<path d="M359.816 364.913H377.931V524.86H359.816V364.913Z" fill="white"/>
</mask>
<g mask="url(#mask10_253_12288)">
<g opacity="0.380005">
<path d="M359.816 365.692C360.947 367.131 362.994 368.095 364.32 368.956C367.274 370.872 369.761 372.865 371.348 376.129C374.114 381.813 373.988 388.415 373.804 394.732C372.887 426.187 371.971 457.642 371.055 489.097C370.687 501.712 369.857 515.504 361.425 524.86H377.931V364.913H359.816V365.692Z" fill="white"/>
</g>
</g>
<path d="M583.737 364.913H564.318C561.478 364.913 559.176 362.614 559.176 359.779V356.022H588.879V359.779C588.879 362.614 586.577 364.913 583.737 364.913Z" fill="#8561B4"/>
<path d="M564.317 524.86H583.737C586.577 524.86 588.879 527.159 588.879 529.994V533.751H559.176V529.994C559.176 527.159 561.478 524.86 564.317 524.86Z" fill="#8561B4"/>
<path d="M583.085 524.86H564.97V364.913H583.085V524.86Z" fill="white"/>
<mask id="mask11_253_12288" style="mask-type:luminance" maskUnits="userSpaceOnUse" x="564" y="364" width="20" height="161">
<path d="M564.971 364.913H583.085V524.86H564.971V364.913Z" fill="white"/>
</mask>
<g mask="url(#mask11_253_12288)">
<g opacity="0.380005">
<path d="M564.97 365.692C566.1 367.131 568.147 368.095 569.473 368.956C572.428 370.872 574.914 372.865 576.502 376.129C579.267 381.813 579.141 388.415 578.957 394.732C578.041 426.187 577.125 457.642 576.209 489.097C575.841 501.712 575.011 515.504 566.578 524.86H583.084V364.913H564.97V365.692Z" fill="white"/>
</g>
</g>
<path d="M551.413 364.913H531.993C529.153 364.913 526.852 362.614 526.852 359.779V356.022H556.554V359.779C556.554 362.614 554.252 364.913 551.413 364.913Z" fill="#8561B4"/>
<path d="M531.993 524.86H551.413C554.253 524.86 556.555 527.159 556.555 529.994V533.751H526.852V529.994C526.852 527.159 529.154 524.86 531.993 524.86Z" fill="#8561B4"/>
<path d="M550.76 524.86H532.646V364.913H550.76V524.86Z" fill="white"/>
<mask id="mask12_253_12288" style="mask-type:luminance" maskUnits="userSpaceOnUse" x="532" y="364" width="19" height="161">
<path d="M532.644 364.913H550.758V524.86H532.644V364.913Z" fill="white"/>
</mask>
<g mask="url(#mask12_253_12288)">
<g opacity="0.380005">
<path d="M532.646 365.692C533.776 367.131 535.823 368.095 537.15 368.956C540.104 370.872 542.591 372.865 544.178 376.129C546.944 381.813 546.817 388.415 546.634 394.732C545.717 426.187 544.801 457.642 543.885 489.097C543.517 501.712 542.687 515.504 534.254 524.86H550.761V364.913H532.646V365.692Z" fill="white"/>
</g>
</g>
<path d="M483.524 315.901C483.524 309.242 478.118 303.844 471.45 303.844C464.782 303.844 459.376 309.242 459.376 315.901C459.376 322.561 464.782 327.959 471.45 327.959C478.118 327.959 483.524 322.561 483.524 315.901Z" fill="#8561B4"/>
<path d="M498.344 472.343H444.557V533.751H498.344V472.343Z" fill="#8561B4"/>
<path d="M462.63 385.843H438.048V424.975H462.63V385.843Z" fill="white"/>
<path d="M504.853 385.843H480.272V424.975H504.853V385.843Z" fill="white"/>
<path d="M462.63 394.435H438.048V424.975H462.63V394.435Z" fill="#8561B4"/>
<path d="M504.853 394.435H480.272V424.975H504.853V394.435Z" fill="#8561B4"/>
<mask id="mask13_253_12288" style="mask-type:luminance" maskUnits="userSpaceOnUse" x="428" y="438" width="23" height="6">
<path d="M428.884 438.997H450.675V443.774H428.884V438.997Z" fill="white"/>
</mask>
<g mask="url(#mask13_253_12288)">
<g opacity="0.240005">
<path d="M450.675 443.774H428.884V438.997H450.675V443.774Z" fill="#9747FF"/>
</g>
</g>
<mask id="mask14_253_12288" style="mask-type:luminance" maskUnits="userSpaceOnUse" x="452" y="438" width="23" height="6">
<path d="M452.535 438.997H474.326V443.774H452.535V438.997Z" fill="white"/>
</mask>
<g mask="url(#mask14_253_12288)">
<g opacity="0.240005">
<path d="M474.326 443.774H452.535V438.997H474.326V443.774Z" fill="#9747FF"/>
</g>
</g>
<mask id="mask15_253_12288" style="mask-type:luminance" maskUnits="userSpaceOnUse" x="439" y="433" width="23" height="5">
<path d="M439.248 433.158H461.039V437.935H439.248V433.158Z" fill="white"/>
</mask>
<g mask="url(#mask15_253_12288)">
<g opacity="0.240005">
<path d="M461.039 437.935H439.248V433.158H461.039V437.935Z" fill="#9747FF"/>
</g>
</g>
<mask id="mask16_253_12288" style="mask-type:luminance" maskUnits="userSpaceOnUse" x="457" y="295" width="32" height="29">
<path d="M457.075 295.852H488.927V323.239H457.075V295.852Z" fill="white"/>
</mask>
<g mask="url(#mask16_253_12288)">
<g opacity="0.240005">
<path d="M487.588 307.773C487.266 302.39 483.971 297.979 479.054 295.853C482.687 298.973 485.538 303.268 487.03 307.445C487.242 308.064 487.459 308.681 487.686 309.295C487.657 308.787 487.627 308.28 487.588 307.773Z" fill="#9747FF"/>
<path d="M485.878 299.439C486.72 301.755 487.69 303.848 488.927 306.1C488.541 303.639 487.468 301.353 485.878 299.439Z" fill="#9747FF"/>
<path d="M457.128 318.022C457.056 318.914 457.02 319.823 457.274 320.691C457.565 321.625 458.134 322.443 458.689 323.238C458.105 321.515 457.459 319.818 457.128 318.022Z" fill="#9747FF"/>
</g>
</g>
<mask id="mask17_253_12288" style="mask-type:luminance" maskUnits="userSpaceOnUse" x="486" y="379" width="17" height="5">
<path d="M486.276 379.224H502.06V383.157H486.276V379.224Z" fill="white"/>
</mask>
<g mask="url(#mask17_253_12288)">
<g opacity="0.240005">
<path d="M500.858 382.212C496.635 378.853 491.147 378.351 486.276 380.58C491.028 379.969 496.133 380.722 500.241 382.407C500.844 382.664 501.449 382.915 502.057 383.157C501.66 382.839 501.262 382.522 500.858 382.212Z" fill="#9747FF"/>
</g>
</g>
<mask id="mask18_253_12288" style="mask-type:luminance" maskUnits="userSpaceOnUse" x="493" y="377" width="8" height="4">
<path d="M493.509 377.91H500.507V380.099H493.509V377.91Z" fill="white"/>
</mask>
<g mask="url(#mask18_253_12288)">
<g opacity="0.240005">
<path d="M493.51 377.91C495.797 378.833 498.005 379.513 500.509 380.099C498.417 378.74 495.998 378.01 493.51 377.91Z" fill="#9747FF"/>
</g>
</g>
<mask id="mask19_253_12288" style="mask-type:luminance" maskUnits="userSpaceOnUse" x="397" y="312" width="28" height="13">
<path d="M397.388 312.243H424.692V324.551H397.388V312.243Z" fill="white"/>
</mask>
<g mask="url(#mask19_253_12288)">
<g opacity="0.240005">
<path d="M406.181 320.249C403.116 321.386 400.219 322.929 397.387 324.55C403.486 323.176 409.437 321.02 414.858 317.889C411.939 318.571 409.003 319.223 406.181 320.249Z" fill="#9747FF"/>
<path d="M413.297 316.605C415.025 316.331 416.688 315.743 418.186 314.836C416.473 315.165 414.817 315.751 413.297 316.605Z" fill="#9747FF"/>
<path d="M421.489 313.476C422.623 313.263 423.712 312.853 424.692 312.243C423.563 312.471 422.476 312.88 421.489 313.476Z" fill="#9747FF"/>
<path d="M416.59 317.728C418.118 317.402 419.591 316.847 420.935 316.048C419.392 316.33 417.914 316.889 416.59 317.728Z" fill="#9747FF"/>
<path d="M413.238 321.485C411.359 322.173 409.62 323.17 407.827 324.047C411.937 323.365 415.39 321.911 419.234 320.034C417.2 320.342 415.173 320.777 413.238 321.485Z" fill="#9747FF"/>
</g>
</g>
<mask id="mask20_253_12288" style="mask-type:luminance" maskUnits="userSpaceOnUse" x="415" y="378" width="9" height="45">
<path d="M415.23 378.339H423.837V422.499H415.23V378.339Z" fill="white"/>
</mask>
<g mask="url(#mask20_253_12288)">
<g opacity="0.240005">
<path d="M416.089 408.101C415.809 412.931 416.192 417.74 416.726 422.499C418.52 413.35 419.137 404 418.078 394.875C417.253 399.266 416.377 403.665 416.089 408.101Z" fill="#9747FF"/>
<path d="M415.346 396.366C416.015 393.834 416.207 391.227 415.857 388.685C415.274 391.224 415.083 393.819 415.346 396.366Z" fill="#9747FF"/>
<path d="M415.973 383.409C416.365 381.73 416.457 380.012 416.205 378.339C415.835 380.019 415.744 381.735 415.973 383.409Z" fill="#9747FF"/>
<path d="M418.905 392.397C419.381 390.114 419.504 387.788 419.21 385.514C418.664 387.794 418.544 390.128 418.905 392.397Z" fill="#9747FF"/>
<path d="M422.089 398.986C421.905 401.941 422.233 404.866 422.363 407.8C423.911 401.762 423.988 396.232 423.714 389.939C422.908 392.912 422.282 395.942 422.089 398.986Z" fill="#9747FF"/>
</g>
</g>
<mask id="mask21_253_12288" style="mask-type:luminance" maskUnits="userSpaceOnUse" x="363" y="410" width="4" height="29">
<path d="M363.676 410.798H366.278V438.423H363.676V410.798Z" fill="white"/>
</mask>
<g mask="url(#mask21_253_12288)">
<g opacity="0.380005">
<path d="M363.77 424.024C363.489 428.854 363.873 433.663 364.407 438.423C366.201 429.273 366.818 419.923 365.759 410.798C364.934 415.19 364.058 419.588 363.77 424.024Z" fill="white"/>
</g>
</g>
<mask id="mask22_253_12288" style="mask-type:luminance" maskUnits="userSpaceOnUse" x="362" y="404" width="2" height="9">
<path d="M362.912 404.608H363.71V412.29H362.912V404.608Z" fill="white"/>
</mask>
<g mask="url(#mask22_253_12288)">
<g opacity="0.380005">
<path d="M363.027 412.29C363.695 409.757 363.888 407.151 363.538 404.609C362.955 407.148 362.764 409.743 363.027 412.29Z" fill="white"/>
</g>
</g>
<mask id="mask23_253_12288" style="mask-type:luminance" maskUnits="userSpaceOnUse" x="363" y="394" width="2" height="6">
<path d="M363.529 394.262H364.027V399.333H363.529V394.262Z" fill="white"/>
</mask>
<g mask="url(#mask23_253_12288)">
<g opacity="0.380005">
<path d="M363.653 399.333C364.046 397.654 364.138 395.935 363.885 394.262C363.516 395.943 363.424 397.658 363.653 399.333Z" fill="white"/>
</g>
</g>
<mask id="mask24_253_12288" style="mask-type:luminance" maskUnits="userSpaceOnUse" x="366" y="401" width="2" height="8">
<path d="M366.38 401.438H367.049V408.32H366.38V401.438Z" fill="white"/>
</mask>
<g mask="url(#mask24_253_12288)">
<g opacity="0.380005">
<path d="M366.587 408.32C367.062 406.038 367.185 403.711 366.891 401.438C366.345 403.717 366.225 406.051 366.587 408.32Z" fill="white"/>
</g>
</g>
<mask id="mask25_253_12288" style="mask-type:luminance" maskUnits="userSpaceOnUse" x="537" y="479" width="4" height="29">
<path d="M537.821 479.966H540.426V507.59H537.821V479.966Z" fill="white"/>
</mask>
<g mask="url(#mask25_253_12288)">
<g opacity="0.380005">
<path d="M537.917 493.192C537.637 498.022 538.02 502.831 538.554 507.59C540.348 498.441 540.965 489.09 539.906 479.966C539.081 484.357 538.206 488.756 537.917 493.192Z" fill="white"/>
</g>
</g>
<mask id="mask26_253_12288" style="mask-type:luminance" maskUnits="userSpaceOnUse" x="537" y="473" width="1" height="9">
<path d="M537.057 473.776H537.858V481.457H537.057V473.776Z" fill="white"/>
</mask>
<g mask="url(#mask26_253_12288)">
<g opacity="0.380005">
<path d="M537.175 481.457C537.843 478.924 538.036 476.318 537.685 473.776C537.103 476.315 536.911 478.91 537.175 481.457Z" fill="white"/>
</g>
</g>
<mask id="mask27_253_12288" style="mask-type:luminance" maskUnits="userSpaceOnUse" x="537" y="463" width="2" height="6">
<path d="M537.679 463.43H538.175V468.5H537.679V463.43Z" fill="white"/>
</mask>
<g mask="url(#mask27_253_12288)">
<g opacity="0.380005">
<path d="M537.801 468.5C538.193 466.821 538.285 465.102 538.033 463.429C537.664 465.11 537.572 466.825 537.801 468.5Z" fill="white"/>
</g>
</g>
<mask id="mask28_253_12288" style="mask-type:luminance" maskUnits="userSpaceOnUse" x="540" y="470" width="2" height="8">
<path d="M540.529 470.605H541.194V477.488H540.529V470.605Z" fill="white"/>
</mask>
<g mask="url(#mask28_253_12288)">
<g opacity="0.380005">
<path d="M540.733 477.488C541.209 475.205 541.332 472.878 541.037 470.605C540.492 472.884 540.372 475.219 540.733 477.488Z" fill="white"/>
</g>
</g>
<mask id="mask29_253_12288" style="mask-type:luminance" maskUnits="userSpaceOnUse" x="538" y="349" width="29" height="4">
<path d="M538.747 349.785H566.442V352.192H538.747V349.785Z" fill="white"/>
</mask>
<g mask="url(#mask29_253_12288)">
<g opacity="0.380005">
<path d="M553.113 349.786C548.269 349.757 543.479 350.388 538.748 351.167C547.991 352.482 557.373 352.613 566.442 351.083C562.008 350.489 557.564 349.844 553.113 349.786Z" fill="#DAE7EE"/>
</g>
</g>
<mask id="mask30_253_12288" style="mask-type:luminance" maskUnits="userSpaceOnUse" x="564" y="348" width="9" height="1">
<path d="M564.807 348.173H572.518V348.876H564.807V348.173Z" fill="white"/>
</mask>
<g mask="url(#mask30_253_12288)">
<g opacity="0.380005">
<path d="M564.81 348.437C567.376 348.972 569.993 349.029 572.517 348.548C569.948 348.099 567.343 348.042 564.81 348.437Z" fill="#DAE7EE"/>
</g>
</g>
<mask id="mask31_253_12288" style="mask-type:luminance" maskUnits="userSpaceOnUse" x="577" y="348" width="6" height="1">
<path d="M577.799 348.15H582.878V348.616H577.799V348.15Z" fill="white"/>
</mask>
<g mask="url(#mask31_253_12288)">
<g opacity="0.380005">
<path d="M577.798 348.39C579.498 348.694 581.221 348.697 582.881 348.358C581.181 348.077 579.461 348.075 577.798 348.39Z" fill="#DAE7EE"/>
</g>
</g>
<mask id="mask32_253_12288" style="mask-type:luminance" maskUnits="userSpaceOnUse" x="568" y="351" width="8" height="2">
<path d="M568.965 351.415H575.859V352.042H568.965V351.415Z" fill="white"/>
</mask>
<g mask="url(#mask32_253_12288)">
<g opacity="0.380005">
<path d="M568.963 351.781C571.27 352.136 573.603 352.138 575.861 351.727C573.554 351.302 571.213 351.302 568.963 351.781Z" fill="#DAE7EE"/>
</g>
</g>
<mask id="mask33_253_12288" style="mask-type:luminance" maskUnits="userSpaceOnUse" x="315" y="378" width="29" height="4">
<path d="M315.415 378.896H343.109V381.303H315.415V378.896Z" fill="white"/>
</mask>
<g mask="url(#mask33_253_12288)">
<g opacity="0.380005">
<path d="M329.78 378.897C324.936 378.868 320.146 379.499 315.415 380.278C324.657 381.593 334.039 381.724 343.109 380.194C338.675 379.6 334.231 378.955 329.78 378.897Z" fill="#DAE7EE"/>
</g>
</g>
<mask id="mask34_253_12288" style="mask-type:luminance" maskUnits="userSpaceOnUse" x="341" y="377" width="9" height="1">
<path d="M341.476 377.284H349.183V377.987H341.476V377.284Z" fill="white"/>
</mask>
<g mask="url(#mask34_253_12288)">
<g opacity="0.380005">
<path d="M341.476 377.548C344.043 378.083 346.659 378.14 349.184 377.659C346.615 377.209 344.01 377.153 341.476 377.548Z" fill="#DAE7EE"/>
</g>
</g>
<mask id="mask35_253_12288" style="mask-type:luminance" maskUnits="userSpaceOnUse" x="354" y="377" width="6" height="1">
<path d="M354.466 377.262H359.548V377.727H354.466V377.262Z" fill="white"/>
</mask>
<g mask="url(#mask35_253_12288)">
<g opacity="0.380005">
<path d="M354.465 377.501C356.165 377.805 357.888 377.808 359.548 377.469C357.848 377.189 356.128 377.186 354.465 377.501Z" fill="#DAE7EE"/>
</g>
</g>
<mask id="mask36_253_12288" style="mask-type:luminance" maskUnits="userSpaceOnUse" x="345" y="380" width="8" height="2">
<path d="M345.63 380.525H352.528V381.153H345.63V380.525Z" fill="white"/>
</mask>
<g mask="url(#mask36_253_12288)">
<g opacity="0.380005">
<path d="M345.63 380.892C347.937 381.247 350.27 381.249 352.528 380.838C350.221 380.413 347.88 380.413 345.63 380.892Z" fill="#DAE7EE"/>
</g>
</g>
<mask id="mask37_253_12288" style="mask-type:luminance" maskUnits="userSpaceOnUse" x="455" y="466" width="28" height="3">
<path d="M455.286 466.474H482.98V468.881H455.286V466.474Z" fill="white"/>
</mask>
<g mask="url(#mask37_253_12288)">
<g opacity="0.380005">
<path d="M469.651 466.475C464.807 466.446 460.018 467.077 455.286 467.856C464.529 469.171 473.911 469.302 482.981 467.772C478.546 467.178 474.102 466.533 469.651 466.475Z" fill="#DAE7EE"/>
</g>
</g>
<mask id="mask38_253_12288" style="mask-type:luminance" maskUnits="userSpaceOnUse" x="481" y="464" width="9" height="2">
<path d="M481.348 464.862H489.055V465.565H481.348V464.862Z" fill="white"/>
</mask>
<g mask="url(#mask38_253_12288)">
<g opacity="0.380005">
<path d="M481.348 465.126C483.915 465.661 486.531 465.718 489.055 465.237C486.486 464.788 483.881 464.731 481.348 465.126Z" fill="#DAE7EE"/>
</g>
</g>
<mask id="mask39_253_12288" style="mask-type:luminance" maskUnits="userSpaceOnUse" x="485" y="468" width="8" height="1">
<path d="M485.502 468.104H492.4V468.731H485.502V468.104Z" fill="white"/>
</mask>
<g mask="url(#mask39_253_12288)">
<g opacity="0.380005">
<path d="M485.502 468.469C487.809 468.825 490.142 468.827 492.4 468.416C490.093 467.991 487.752 467.991 485.502 468.469Z" fill="#DAE7EE"/>
</g>
</g>
<mask id="mask40_253_12288" style="mask-type:luminance" maskUnits="userSpaceOnUse" x="359" y="540" width="28" height="3">
<path d="M359.12 540.368H386.814V542.776H359.12V540.368Z" fill="white"/>
</mask>
<g mask="url(#mask40_253_12288)">
<g opacity="0.380005">
<path d="M373.484 540.37C368.64 540.34 363.851 540.972 359.119 541.751C368.362 543.066 377.744 543.197 386.814 541.667C382.379 541.072 377.935 540.427 373.484 540.37Z" fill="#DAE7EE"/>
</g>
</g>
<mask id="mask41_253_12288" style="mask-type:luminance" maskUnits="userSpaceOnUse" x="385" y="538" width="8" height="2">
<path d="M385.181 538.756H392.888V539.46H385.181V538.756Z" fill="white"/>
</mask>
<g mask="url(#mask41_253_12288)">
<g opacity="0.380005">
<path d="M385.181 539.02C387.747 539.555 390.364 539.612 392.888 539.131C390.319 538.682 387.714 538.625 385.181 539.02Z" fill="#DAE7EE"/>
</g>
</g>
<mask id="mask42_253_12288" style="mask-type:luminance" maskUnits="userSpaceOnUse" x="389" y="541" width="8" height="2">
<path d="M389.335 541.998H396.233V542.625H389.335V541.998Z" fill="white"/>
</mask>
<g mask="url(#mask42_253_12288)">
<g opacity="0.380005">
<path d="M389.335 542.364C391.642 542.72 393.975 542.722 396.233 542.311C393.926 541.885 391.585 541.885 389.335 542.364Z" fill="#DAE7EE"/>
</g>
</g>
<mask id="mask43_253_12288" style="mask-type:luminance" maskUnits="userSpaceOnUse" x="581" y="540" width="9" height="1">
<path d="M581.5 540H589.211V540.704H581.5V540Z" fill="white"/>
</mask>
<g mask="url(#mask43_253_12288)">
<g opacity="0.380005">
<path d="M581.502 540.265C584.069 540.8 586.685 540.857 589.21 540.376C586.641 539.926 584.036 539.87 581.502 540.265Z" fill="#DAE7EE"/>
</g>
</g>
<mask id="mask44_253_12288" style="mask-type:luminance" maskUnits="userSpaceOnUse" x="585" y="543" width="8" height="1">
<path d="M585.657 543.242H592.551V543.87H585.657V543.242Z" fill="white"/>
</mask>
<g mask="url(#mask44_253_12288)">
<g opacity="0.380005">
<path d="M585.655 543.609C587.962 543.964 590.295 543.966 592.553 543.555C590.246 543.13 587.905 543.13 585.655 543.609Z" fill="#DAE7EE"/>
</g>
</g>
<path d="M245.916 508.911C230.193 503.349 218.087 488.527 215.792 472.027L220.152 471.423C222.227 486.339 233.171 499.739 247.386 504.767L245.916 508.911Z" fill="#8561B4"/>
<path d="M250.092 473.258C249.124 500.859 253.854 528.413 263.708 553.697L252.787 557.4C244.678 529.859 242.32 500.932 245.704 472.916L250.092 473.258Z" fill="#8561B4"/>
<path d="M281.035 474.835L280.235 552.953L271.058 552.579L276.636 474.656L281.035 474.835Z" fill="#8561B4"/>
<path d="M276.54 504.77L275.211 502.924C267.935 492.817 262.163 481.733 258.053 469.98L262.209 468.531C265.923 479.153 271.043 489.21 277.443 498.457C285.325 491.795 291.111 482.772 293.841 472.816L298.087 473.977C294.902 485.588 287.89 496.03 278.342 503.382L276.54 504.77Z" fill="#8561B4"/>
<path d="M312.691 476.709C311.428 470.718 308.815 465.036 304.312 460.973C298.233 455.487 288.191 453.958 281.808 459.089C285.558 448.956 282.113 436.605 273.658 429.866C265.204 423.127 252.38 422.511 243.317 428.409C237.729 432.046 233.727 437.737 231.039 443.834C228.352 449.93 226.869 456.475 225.402 462.974C218.523 462.515 211.519 466.06 207.822 471.873C206.773 473.522 206.08 475.128 205.656 476.709H312.691Z" fill="#E0E0E0"/>
<path d="M309.439 560.471C309.711 559.248 309.852 557.997 309.839 556.743C309.77 550.402 306.047 544.311 300.617 541.024C295.041 537.648 287.96 537.186 281.729 539.107C275.498 541.029 270.099 545.172 265.994 550.232C263.199 548 259.284 547.245 255.858 548.278C252.432 549.312 249.59 552.104 248.499 555.508C248.831 554.472 240.645 556.392 239.892 556.814C238.251 557.733 236.84 558.987 235.73 560.471H309.439Z" fill="#E0E0E0"/>
<mask id="mask45_253_12288" style="mask-type:luminance" maskUnits="userSpaceOnUse" x="258" y="537" width="52" height="24">
<path d="M258.656 537.981H309.84V560.471H258.656V537.981Z" fill="white"/>
</mask>
<g mask="url(#mask45_253_12288)">
<g opacity="0.419998">
<path d="M300.617 541.024C295.449 537.896 288.991 537.273 283.114 538.727C283.843 538.694 284.539 538.633 285.02 538.669C286.925 538.815 288.817 539.146 290.606 539.832C294.663 541.387 298.171 545.267 297.836 549.594C297.568 553.055 294.905 555.982 291.763 557.468C288.622 558.954 285.055 559.237 281.58 559.313C279.159 559.366 276.705 559.326 274.365 558.702C272.025 558.078 269.783 556.812 268.4 554.827C267.365 553.341 266.879 551.579 266.316 549.847C266.208 549.976 266.099 550.102 265.994 550.232C263.94 548.591 261.281 547.752 258.655 547.831C260.361 549.052 263.512 549.382 263.615 551.502C263.704 553.292 261.253 554.866 262.107 556.443C262.532 557.228 263.577 557.44 264.179 558.1C264.79 558.77 264.737 559.683 264.309 560.471H309.438C309.71 559.248 309.852 557.996 309.839 556.743C309.77 550.402 306.047 544.312 300.617 541.024Z" fill="#E0E0E0"/>
</g>
</g>
<mask id="mask46_253_12288" style="mask-type:luminance" maskUnits="userSpaceOnUse" x="246" y="558" width="11" height="3">
<path d="M246.006 558.942H256.505V560.471H246.006V558.942Z" fill="white"/>
</mask>
<g mask="url(#mask46_253_12288)">
<g opacity="0.419998">
<path d="M246.006 560.471H256.505C253.928 559.302 251.052 558.484 248.34 559.225C247.492 559.456 246.692 559.898 246.006 560.471Z" fill="#E0E0E0"/>
</g>
</g>
<mask id="mask47_253_12288" style="mask-type:luminance" maskUnits="userSpaceOnUse" x="257" y="424" width="56" height="53">
<path d="M257.646 424.37H312.691V476.71H257.646V424.37Z" fill="white"/>
</mask>
<g mask="url(#mask47_253_12288)">
<g opacity="0.419998">
<path d="M279.532 473.553C278.816 474.449 278.612 475.552 278.518 476.709H312.691C311.429 470.718 308.816 465.036 304.313 460.973C298.233 455.487 288.191 453.958 281.809 459.089C285.558 448.956 282.113 436.605 273.659 429.866C269.152 426.274 263.404 424.423 257.646 424.369C259 425.113 260.317 425.815 260.77 426.223C262.899 428.143 264.612 430.534 265.667 433.203C268.066 439.272 267.003 446.574 262.975 451.709C261.731 453.295 260.122 455.151 260.799 457.05C261.617 459.344 264.788 459.331 267.227 459.293C270.926 459.236 274.569 460.112 278.165 460.984C280.054 461.442 281.944 461.9 283.834 462.357C285.535 462.77 287.295 463.21 288.666 464.297C290.037 465.384 290.905 467.312 290.226 468.923C288.652 472.652 282.061 470.392 279.532 473.553Z" fill="#E0E0E0"/>
</g>
</g>
<mask id="mask48_253_12288" style="mask-type:luminance" maskUnits="userSpaceOnUse" x="213" y="471" width="16" height="6">
<path d="M213.938 471.703H228.565V476.71H213.938V471.703Z" fill="white"/>
</mask>
<g mask="url(#mask48_253_12288)">
<g opacity="0.419998">
<path d="M228.565 476.709C227.662 475.755 226.742 474.821 225.712 474.007C223.612 472.346 220.843 471.208 218.26 471.919C216.012 472.538 214.537 474.457 213.937 476.709H228.565Z" fill="#E0E0E0"/>
</g>
</g>
<mask id="mask49_253_12288" style="mask-type:luminance" maskUnits="userSpaceOnUse" x="239" y="427" width="26" height="14">
<path d="M239.126 427.009H264.442V440.452H239.126V427.009Z" fill="white"/>
</mask>
<g mask="url(#mask49_253_12288)">
<g opacity="0.419998">
<path d="M263.102 438.93C262.781 433.547 259.485 429.136 254.569 427.009C258.201 430.129 261.053 434.425 262.545 438.602C262.757 439.22 262.974 439.838 263.2 440.452C263.172 439.944 263.142 439.436 263.102 438.93Z" fill="#E0E0E0"/>
<path d="M261.392 430.596C262.234 432.911 263.205 435.005 264.442 437.257C264.056 434.796 262.983 432.51 261.392 430.596Z" fill="#E0E0E0"/>
<path d="M239.126 439.921C239.938 439.542 240.746 439.124 241.378 438.474C242.046 437.76 242.477 436.862 242.895 435.987C241.684 437.346 240.526 438.746 239.126 439.921Z" fill="#E0E0E0"/>
</g>
</g>
<mask id="mask50_253_12288" style="mask-type:luminance" maskUnits="userSpaceOnUse" x="258" y="539" width="39" height="20">
<path d="M258.551 539.581H296.163V558.638H258.551V539.581Z" fill="white"/>
</mask>
<g mask="url(#mask50_253_12288)">
<g opacity="0.419998">
<path d="M294.823 551.502C294.501 546.119 291.206 541.708 286.29 539.581C289.922 542.701 292.773 546.997 294.265 551.174C294.477 551.792 294.695 552.41 294.921 553.024C294.893 552.516 294.863 552.008 294.823 551.502Z" fill="#E0E0E0"/>
<path d="M293.113 543.167C293.955 545.483 294.926 547.577 296.163 549.829C295.777 547.367 294.703 545.081 293.113 543.167Z" fill="#E0E0E0"/>
<path d="M269.584 553.878C269.971 554.685 270.397 555.489 271.053 556.113C271.774 556.774 272.678 557.196 273.557 557.606C272.186 556.409 270.773 555.265 269.584 553.878Z" fill="#E0E0E0"/>
<path d="M262.241 552.719C261.914 551.886 261.549 551.053 260.939 550.383C260.269 549.671 259.398 549.184 258.551 548.711C259.831 550.005 261.156 551.249 262.241 552.719Z" fill="#E0E0E0"/>
<path d="M259.181 554.909C259.568 555.716 259.993 556.521 260.649 557.145C261.371 557.806 262.274 558.228 263.154 558.638C261.782 557.441 260.37 556.297 259.181 554.909Z" fill="#E0E0E0"/>
</g>
</g>
<mask id="mask51_253_12288" style="mask-type:luminance" maskUnits="userSpaceOnUse" x="227" y="461" width="26" height="15">
<path d="M227.52 461.166H252.935V475.009H227.52V461.166Z" fill="white"/>
</mask>
<g mask="url(#mask51_253_12288)">
<g opacity="0.419998">
<path d="M228.939 462.691C229 468.083 232.078 472.647 236.887 475.009C233.409 471.717 230.769 467.29 229.48 463.046C229.298 462.417 229.111 461.79 228.914 461.166C228.918 461.674 228.924 462.183 228.939 462.691Z" fill="#E0E0E0"/>
<path d="M230.244 471.098C229.514 468.744 228.646 466.606 227.519 464.297C227.786 466.774 228.748 469.109 230.244 471.098Z" fill="#E0E0E0"/>
<path d="M252.935 462.856C252.106 463.195 251.277 463.573 250.616 464.192C249.914 464.874 249.439 465.75 248.98 466.604C250.255 465.305 251.48 463.963 252.935 462.856Z" fill="#E0E0E0"/>
</g>
</g>
<path d="M683.62 494.988C696.346 490.487 706.144 478.49 708.001 465.137L704.472 464.647C702.793 476.719 693.935 487.565 682.43 491.634L683.62 494.988Z" fill="#8561B4"/>
<path d="M680.37 473.258C681.339 500.859 676.609 528.413 666.755 553.697L677.676 557.4C685.785 529.859 688.143 500.932 684.759 472.916L680.37 473.258Z" fill="#8561B4"/>
<path d="M649.437 474.839L654.339 554.574L663.497 554.193L653.826 474.656L649.437 474.839Z" fill="#8561B4"/>
<path d="M653.277 495.09L654.605 493.245C661.881 483.137 667.654 472.053 671.764 460.3L667.608 458.851C663.894 469.473 658.773 479.529 652.373 488.777C644.492 482.116 638.706 473.092 635.975 463.136L631.729 464.297C634.915 475.909 641.927 486.351 651.474 493.702L653.277 495.09Z" fill="#8561B4"/>
<path d="M621.024 560.471C620.752 559.248 620.61 557.997 620.624 556.743C620.693 550.402 624.415 544.311 629.845 541.024C635.422 537.648 642.503 537.186 648.734 539.107C654.964 541.029 660.364 545.172 664.469 550.232C667.264 548 671.179 547.245 674.605 548.278C678.031 549.312 680.873 552.104 681.964 555.508C681.632 554.472 689.818 556.392 690.571 556.814C692.212 557.733 693.623 558.987 694.733 560.471H621.024Z" fill="#E0E0E0"/>
<mask id="mask52_253_12288" style="mask-type:luminance" maskUnits="userSpaceOnUse" x="620" y="537" width="52" height="24">
<path d="M620.623 537.981H671.806V560.471H620.623V537.981Z" fill="white"/>
</mask>
<g mask="url(#mask52_253_12288)">
<g opacity="0.419998">
<path d="M629.845 541.024C635.013 537.896 641.471 537.273 647.349 538.727C646.619 538.694 645.923 538.633 645.442 538.669C643.538 538.815 641.646 539.146 639.856 539.832C635.799 541.387 632.292 545.267 632.626 549.594C632.894 553.055 635.558 555.982 638.699 557.468C641.841 558.954 645.406 559.237 648.882 559.313C651.303 559.366 653.757 559.326 656.097 558.702C658.437 558.078 660.68 556.812 662.063 554.827C663.097 553.341 663.583 551.579 664.147 549.847C664.254 549.976 664.364 550.102 664.469 550.232C666.523 548.591 669.182 547.752 671.807 547.831C670.101 549.052 666.95 549.382 666.847 551.502C666.759 553.292 669.209 554.866 668.355 556.443C667.93 557.228 666.885 557.44 666.283 558.1C665.673 558.77 665.725 559.683 666.153 560.471H621.024C620.752 559.248 620.61 557.996 620.623 556.743C620.692 550.402 624.415 544.312 629.845 541.024Z" fill="#E0E0E0"/>
</g>
</g>
<mask id="mask53_253_12288" style="mask-type:luminance" maskUnits="userSpaceOnUse" x="673" y="558" width="12" height="3">
<path d="M673.958 558.942H684.455V560.471H673.958V558.942Z" fill="white"/>
</mask>
<g mask="url(#mask53_253_12288)">
<g opacity="0.419998">
<path d="M684.457 560.471H673.957C676.535 559.302 679.411 558.484 682.123 559.225C682.971 559.456 683.771 559.898 684.457 560.471Z" fill="#E0E0E0"/>
</g>
</g>
<mask id="mask54_253_12288" style="mask-type:luminance" maskUnits="userSpaceOnUse" x="634" y="539" width="38" height="20">
<path d="M634.301 539.581H671.909V558.638H634.301V539.581Z" fill="white"/>
</mask>
<g mask="url(#mask54_253_12288)">
<g opacity="0.419998">
<path d="M635.64 551.501C635.962 546.119 639.257 541.708 644.173 539.581C640.541 542.701 637.69 546.996 636.198 551.173C635.986 551.792 635.768 552.41 635.542 553.024C635.57 552.516 635.6 552.008 635.64 551.501Z" fill="#E0E0E0"/>
<path d="M637.35 543.168C636.508 545.483 635.537 547.577 634.3 549.829C634.687 547.368 635.76 545.082 637.35 543.168Z" fill="#E0E0E0"/>
<path d="M660.879 553.878C660.492 554.685 660.066 555.489 659.41 556.113C658.689 556.774 657.785 557.196 656.906 557.606C658.277 556.409 659.69 555.265 660.879 553.878Z" fill="#E0E0E0"/>
<path d="M668.222 552.719C668.549 551.886 668.914 551.053 669.524 550.383C670.194 549.671 671.065 549.184 671.912 548.711C670.632 550.005 669.307 551.249 668.222 552.719Z" fill="#E0E0E0"/>
<path d="M671.282 554.909C670.896 555.716 670.47 556.521 669.814 557.144C669.092 557.806 668.189 558.228 667.309 558.638C668.681 557.44 670.093 556.296 671.282 554.909Z" fill="#E0E0E0"/>
</g>
</g>
<path d="M617.771 476.619C619.034 469.016 621.647 461.806 626.15 456.649C632.23 449.688 642.271 447.748 648.654 454.26C644.905 441.4 648.35 425.727 656.804 417.175C665.259 408.624 678.082 407.843 687.145 415.327C692.734 419.942 696.736 427.164 699.423 434.9C702.11 442.637 703.593 450.942 705.061 459.189C711.94 458.607 718.943 463.106 722.64 470.481C723.689 472.574 724.383 474.612 724.807 476.619H617.771Z" fill="#E0E0E0"/>
<mask id="mask55_253_12288" style="mask-type:luminance" maskUnits="userSpaceOnUse" x="617" y="410" width="56" height="68">
<path d="M617.952 410.152H672.64V477.047H617.952V410.152Z" fill="white"/>
</mask>
<g mask="url(#mask55_253_12288)">
<g opacity="0.419998">
<path d="M651.088 472.754C651.81 473.884 652.021 475.282 652.124 476.75L617.951 477.046C619.172 469.433 621.747 462.2 626.222 457.005C632.264 449.99 642.295 447.964 648.712 454.419C644.894 441.593 648.254 425.89 656.662 417.266C661.144 412.669 666.879 410.269 672.637 410.152C671.288 411.107 669.975 412.01 669.526 412.531C667.41 414.986 665.714 418.035 664.677 421.432C662.32 429.152 663.432 438.41 667.495 444.891C668.751 446.893 670.372 449.234 669.708 451.649C668.905 454.568 665.734 454.579 663.295 454.552C659.595 454.511 655.959 455.655 652.369 456.792C650.483 457.39 648.596 457.987 646.71 458.584C645.011 459.122 643.254 459.696 641.891 461.087C640.527 462.478 639.672 464.932 640.363 466.97C641.962 471.689 648.538 468.764 651.088 472.754Z" fill="#E0E0E0"/>
</g>
</g>
<mask id="mask56_253_12288" style="mask-type:luminance" maskUnits="userSpaceOnUse" x="702" y="469" width="15" height="8">
<path d="M702.073 469.889H716.706V476.317H702.073V469.889Z" fill="white"/>
</mask>
<g mask="url(#mask56_253_12288)">
<g opacity="0.419998">
<path d="M702.076 476.317C702.973 475.098 703.886 473.904 704.91 472.863C706.999 470.737 709.76 469.269 712.347 470.149C714.6 470.915 716.089 473.337 716.703 476.19L702.076 476.317Z" fill="#E0E0E0"/>
</g>
</g>
<mask id="mask57_253_12288" style="mask-type:luminance" maskUnits="userSpaceOnUse" x="666" y="413" width="26" height="18">
<path d="M666.018 413.55H691.337V430.608H666.018V413.55Z" fill="white"/>
</mask>
<g mask="url(#mask57_253_12288)">
<g opacity="0.419998">
<path d="M667.361 428.677C667.683 421.847 670.978 416.249 675.894 413.55C672.262 417.509 669.411 422.96 667.919 428.261C667.707 429.046 667.489 429.83 667.263 430.608C667.291 429.965 667.321 429.32 667.361 428.677Z" fill="#E0E0E0"/>
<path d="M669.071 418.101C668.229 421.04 667.258 423.697 666.021 426.554C666.407 423.431 667.48 420.53 669.071 418.101Z" fill="#E0E0E0"/>
<path d="M691.337 429.935C690.525 429.454 689.716 428.924 689.086 428.099C688.417 427.193 687.986 426.053 687.568 424.943C688.779 426.667 689.937 428.443 691.337 429.935Z" fill="#E0E0E0"/>
</g>
</g>
<mask id="mask58_253_12288" style="mask-type:luminance" maskUnits="userSpaceOnUse" x="677" y="456" width="26" height="19">
<path d="M677.528 456.895H702.945V474.461H677.528V456.895Z" fill="white"/>
</mask>
<g mask="url(#mask58_253_12288)">
<g opacity="0.419998">
<path d="M701.523 458.83C701.462 465.672 698.384 471.465 693.576 474.461C697.053 470.284 699.693 464.666 700.982 459.28C701.164 458.482 701.351 457.687 701.548 456.895C701.544 457.54 701.539 458.185 701.523 458.83Z" fill="#E0E0E0"/>
<path d="M700.218 469.498C700.947 466.511 701.816 463.798 702.943 460.869C702.676 464.012 701.714 466.974 700.218 469.498Z" fill="#E0E0E0"/>
<path d="M677.527 459.039C678.356 459.47 679.185 459.95 679.846 460.735C680.549 461.6 681.023 462.712 681.482 463.795C680.207 462.147 678.982 460.444 677.527 459.039Z" fill="#E0E0E0"/>
</g>
</g>
<path d="M815.687 267.034C816.492 270.265 819.039 272.808 822.274 273.612C822.559 273.683 822.559 274.075 822.274 274.146C819.039 274.95 816.492 277.493 815.687 280.724C815.617 281.009 815.224 281.009 815.153 280.724C814.348 277.493 811.801 274.95 808.566 274.146C808.281 274.075 808.281 273.683 808.566 273.612C811.801 272.808 814.348 270.265 815.153 267.034C815.224 266.749 815.617 266.749 815.687 267.034Z" fill="white"/>
<path d="M905.596 0.213481C906.401 3.4446 908.948 5.98781 912.183 6.79165C912.468 6.8624 912.468 7.25479 912.183 7.32554C908.948 8.12938 906.401 10.6726 905.596 13.9037C905.525 14.1883 905.132 14.1883 905.062 13.9037C904.257 10.6726 901.71 8.12938 898.475 7.32554C898.189 7.25479 898.189 6.8624 898.475 6.79165C901.71 5.98781 904.257 3.4446 905.062 0.213481C905.132 -0.0711536 905.525 -0.0711536 905.596 0.213481Z" fill="white"/>
<path d="M7.33538 103.369C8.14029 106.6 10.6869 109.144 13.9224 109.947C14.2074 110.018 14.2074 110.411 13.9224 110.481C10.6869 111.285 8.14029 113.828 7.33538 117.059C7.26453 117.344 6.87161 117.344 6.80077 117.059C5.99585 113.828 3.44923 111.285 0.213763 110.481C-0.0712543 110.411 -0.0712543 110.018 0.213763 109.947C3.44923 109.144 5.99585 106.6 6.80077 103.369C6.87161 103.085 7.26453 103.085 7.33538 103.369Z" fill="white"/>
<path d="M202.563 45.7787C203.591 49.9057 206.844 53.1542 210.976 54.1806C211.34 54.271 211.34 54.7722 210.976 54.8625C206.844 55.889 203.591 59.1381 202.563 63.2644C202.472 63.628 201.971 63.628 201.88 63.2644C200.852 59.1381 197.599 55.889 193.467 54.8625C193.103 54.7722 193.103 54.271 193.467 54.1806C197.599 53.1542 200.852 49.9057 201.88 45.7787C201.971 45.4152 202.472 45.4152 202.563 45.7787Z" fill="white"/>
<path d="M234.489 362.242C235.125 364.794 237.137 366.803 239.692 367.438C239.917 367.494 239.917 367.804 239.692 367.86C237.137 368.494 235.125 370.504 234.489 373.056C234.433 373.281 234.123 373.281 234.066 373.056C233.431 370.504 231.419 368.494 228.863 367.86C228.638 367.804 228.638 367.494 228.863 367.438C231.419 366.803 233.431 364.794 234.066 362.242C234.123 362.017 234.433 362.017 234.489 362.242Z" fill="white"/>
<path d="M752.429 33.1429C753.064 35.6954 755.076 37.7041 757.632 38.3393C757.857 38.3953 757.857 38.705 757.632 38.761C755.076 39.3956 753.064 41.4049 752.429 43.9574C752.372 44.1822 752.062 44.1822 752.006 43.9574C751.37 41.4049 749.359 39.3956 746.803 38.761C746.578 38.705 746.578 38.3953 746.803 38.3393C749.359 37.7041 751.37 35.6954 752.006 33.1429C752.062 32.9181 752.372 32.9181 752.429 33.1429Z" fill="white"/>
<path d="M119.015 296.94C119.015 294.265 116.844 292.097 114.165 292.097C111.487 292.097 109.316 294.265 109.316 296.94C109.316 299.615 111.487 301.783 114.165 301.783C116.844 301.783 119.015 299.615 119.015 296.94Z" stroke="white" stroke-width="1.33333" stroke-miterlimit="10"/>
<path d="M856.124 510.996C856.124 508.321 853.953 506.153 851.275 506.153C848.597 506.153 846.426 508.321 846.426 510.996C846.426 513.671 848.597 515.839 851.275 515.839C853.953 515.839 856.124 513.671 856.124 510.996Z" stroke="white" stroke-width="2.66667" stroke-miterlimit="10"/>
<path d="M561.312 51.2291C561.312 48.5541 559.141 46.3859 556.462 46.3859C553.784 46.3859 551.613 48.5541 551.613 51.2291C551.613 53.9034 553.784 56.0717 556.462 56.0717C559.141 56.0717 561.312 53.9034 561.312 51.2291Z" stroke="white" stroke-width="2.66667" stroke-miterlimit="10"/>
<path d="M91.0454 419.332C91.0454 416.657 88.8743 414.489 86.1958 414.489C83.5178 414.489 81.3467 416.657 81.3467 419.332C81.3467 422.007 83.5178 424.175 86.1958 424.175C88.8743 424.175 91.0454 422.007 91.0454 419.332Z" stroke="white" stroke-width="2.66667" stroke-miterlimit="10"/>
<path d="M166.118 508.056C166.118 505.381 163.947 503.213 161.269 503.213C158.591 503.213 156.419 505.381 156.419 508.056C156.419 510.731 158.591 512.899 161.269 512.899C163.947 512.899 166.118 510.731 166.118 508.056Z" stroke="white" stroke-width="2.66667" stroke-miterlimit="10"/>
<path d="M932.745 168.119C932.745 165.444 930.574 163.276 927.895 163.276C925.218 163.276 923.046 165.444 923.046 168.119C923.046 170.793 925.218 172.962 927.895 172.962C930.574 172.962 932.745 170.793 932.745 168.119Z" stroke="white" stroke-width="2.66667" stroke-miterlimit="10"/>
<path d="M316.348 295.111C317.984 296.001 319.529 297.08 320.955 298.334C330.957 294.023 338.41 292.651 340.14 295.362C341.897 298.116 337.341 304.431 328.958 311.806C323.8 316.345 317.196 321.283 309.714 326.044C302.231 330.804 294.958 334.694 288.659 337.445C278.423 341.915 270.767 343.37 269.011 340.616C267.28 337.904 271.675 331.738 279.815 324.508C279.28 322.688 278.954 320.833 278.837 318.976C258.686 334.076 246.282 347.996 249.495 353.033C252.747 358.13 271.024 352.588 293.62 340.426C299.517 337.252 305.704 333.634 312 329.628C318.296 325.623 324.195 321.552 329.568 317.555C350.154 302.244 362.908 288.044 359.656 282.946C356.443 277.91 338.568 283.254 316.348 295.111Z" fill="#9747FF"/>
<path d="M304.704 334.114C300.931 336.369 297.218 338.49 293.619 340.427C294.867 340.995 296.16 341.45 297.478 341.811C300.254 339.629 302.693 337.021 304.704 334.114Z" fill="#E0E0E0"/>
<path d="M308.538 302.556C306.926 298.318 304.322 295.326 301.732 292.129C297.869 292.499 294.033 293.757 290.536 295.983C282.459 301.121 278.279 310.061 278.838 318.976C278.954 320.833 279.28 322.688 279.815 324.508C280.474 326.745 281.447 328.929 282.764 330.995C284.389 333.542 286.396 335.7 288.66 337.445C294.649 334.829 301.523 331.173 308.617 326.728C309.553 324.296 310.226 321.765 310.567 319.177C311.304 313.58 310.543 307.825 308.538 302.556Z" fill="#E0E0E0"/>
<path d="M317.823 338.757C325.358 333.962 329.499 325.86 329.568 317.556C324.195 321.552 318.296 325.622 312 329.629C309.545 331.19 307.115 332.674 304.704 334.115C302.693 337.021 300.255 339.629 297.478 341.811C304.148 343.634 311.531 342.76 317.823 338.757Z" fill="#E0E0E0"/>
<path d="M328.958 311.806C328.331 309.02 327.221 306.292 325.596 303.744C324.278 301.679 322.707 299.875 320.955 298.334C319.529 297.08 317.984 296.001 316.348 295.111C311.894 292.688 306.789 291.644 301.731 292.129C304.322 295.326 306.926 298.318 308.538 302.556C310.542 307.825 311.304 313.58 310.567 319.177C310.226 321.765 309.553 324.296 308.617 326.728C308.983 326.498 309.346 326.277 309.714 326.043C317.195 321.284 323.8 316.345 328.958 311.806Z" fill="#E0E0E0"/>
<path d="M305.924 303.966C305.146 300.49 302.988 297.49 300.407 295.098C303.125 300.093 304.441 303.283 306.272 308.443C306.935 310.633 306.203 304.741 305.924 303.966Z" fill="#E0E0E0"/>
<path d="M307.834 306.981C308.153 309.167 308.195 311.718 308.751 313.708C309.009 311.441 308.946 309.031 307.834 306.981Z" fill="#E0E0E0"/>
<path d="M304.711 309.341C304.848 311.929 304.864 314.94 305.268 317.305C305.838 314.656 305.791 311.858 304.711 309.341Z" fill="#E0E0E0"/>
<path d="M306.98 319.828C307.134 319.326 307.194 318.799 307.159 318.275C307.007 318.767 306.938 319.346 306.98 319.828Z" fill="#E0E0E0"/>
<path d="M281.396 321.167C282.257 315.495 282.809 309.645 285.217 304.368C280.904 308.74 280.163 315.612 281.396 321.167Z" fill="#E0E0E0"/>
<path d="M284.203 320.129C284.039 321.283 284.103 322.566 284.403 323.64C284.527 322.467 284.462 321.281 284.203 320.129Z" fill="#E0E0E0"/>
<path d="M282.094 322.91C281.893 325.559 283.382 328.226 284.773 330.207C284.174 327.664 282.827 325.402 282.094 322.91Z" fill="#E0E0E0"/>
<mask id="mask59_253_12288" style="mask-type:luminance" maskUnits="userSpaceOnUse" x="334" y="290" width="11" height="14">
<path d="M334.284 290.445H344.094V303.299H334.284V290.445Z" fill="white"/>
</mask>
<g mask="url(#mask59_253_12288)">
<g opacity="0.330002">
<path d="M343.665 293.463C341.878 290.336 337.392 289.848 334.284 291.047C335.44 290.898 336.49 291.142 337.611 291.421C339.05 291.764 340.484 292.343 341.442 293.377C343.147 295.072 342.128 297.62 341.755 299.659C341.492 300.854 341.116 302.194 340.854 303.3C341.393 302.465 341.901 301.61 342.357 300.728C343.399 298.533 344.815 295.87 343.665 293.463Z" fill="#9747FF"/>
</g>
</g>
<mask id="mask60_253_12288" style="mask-type:luminance" maskUnits="userSpaceOnUse" x="343" y="295" width="4" height="8">
<path d="M343.295 295.558H346.773V302.791H343.295V295.558Z" fill="white"/>
</mask>
<g mask="url(#mask60_253_12288)">
<g opacity="0.330002">
<path d="M343.296 302.792C345.006 300.756 346.756 298.317 346.774 295.559C345.837 298.02 344.098 300.376 343.296 302.792Z" fill="#9747FF"/>
</g>
</g>
<mask id="mask61_253_12288" style="mask-type:luminance" maskUnits="userSpaceOnUse" x="334" y="305" width="6" height="6">
<path d="M334.979 305.245H339.067V310.221H334.979V305.245Z" fill="white"/>
</mask>
<g mask="url(#mask61_253_12288)">
<g opacity="0.330002">
<path d="M334.979 310.221C336.662 308.855 338.069 307.17 339.067 305.245C337.501 306.655 335.929 308.504 334.979 310.221Z" fill="#9747FF"/>
</g>
</g>
<mask id="mask62_253_12288" style="mask-type:luminance" maskUnits="userSpaceOnUse" x="266" y="328" width="6" height="17">
<path d="M266.419 328.465H271.304V344.31H266.419V328.465Z" fill="white"/>
</mask>
<g mask="url(#mask62_253_12288)">
<g opacity="0.330002">
<path d="M267.005 343.494C267.432 345.266 267.227 343.73 267.349 342.857C267.658 337.855 268.578 332.762 271.304 328.466C266.718 332.208 265.558 337.936 267.005 343.494Z" fill="#9747FF"/>
</g>
</g>
<mask id="mask63_253_12288" style="mask-type:luminance" maskUnits="userSpaceOnUse" x="262" y="337" width="3" height="10">
<path d="M262.969 337.488H264.402V346.356H262.969V337.488Z" fill="white"/>
</mask>
<g mask="url(#mask63_253_12288)">
<g opacity="0.330002">
<path d="M264.377 346.157C263.914 343.526 263.377 340.199 264.196 337.489C262.718 339.426 262.69 342.3 263.503 344.528C263.63 344.952 264.567 346.993 264.377 346.157Z" fill="#9747FF"/>
</g>
</g>
<mask id="mask64_253_12288" style="mask-type:luminance" maskUnits="userSpaceOnUse" x="268" y="342" width="11" height="5">
<path d="M268.314 342.977H278.898V346.025H268.314V342.977Z" fill="white"/>
</mask>
<g mask="url(#mask64_253_12288)">
<g opacity="0.330002">
<path d="M272.926 344.617C271.448 345.131 269.911 345.809 268.315 345.649C271.858 346.958 276.135 344.553 278.898 342.977C276.881 343.413 274.868 343.91 272.926 344.617Z" fill="#9747FF"/>
</g>
</g>
<path d="M313.037 309.871C312.802 312.996 312.287 316.111 312.399 319.264C313.407 316.281 313.927 312.942 313.037 309.871Z" fill="#E0E0E0"/>
<path d="M310.554 301.757C310.677 302.969 310.876 304.196 311.328 305.391C311.328 304.141 311.113 302.883 310.554 301.757Z" fill="#E0E0E0"/>
<path d="M568.746 278.354C568.884 278.649 569.249 278.783 569.605 278.668C588.67 272.515 606.373 262.233 621.476 248.411C625.081 244.151 624.615 238.271 620.798 235.556C616.973 232.832 611.602 233.793 608.491 237.463C598.928 252.826 585.701 266.694 569.046 277.493C568.736 277.695 568.607 278.06 568.746 278.354Z" fill="#E0E0E0"/>
<path d="M609.451 239.53C611.869 236.718 615.981 236.055 618.816 238.192C621.645 240.324 621.911 244.733 619.208 247.88C616.509 251.029 612.099 251.45 609.556 248.984C607.008 246.513 607.04 242.347 609.451 239.53Z" fill="#FBE9DD"/>
<mask id="mask65_253_12288" style="mask-type:luminance" maskUnits="userSpaceOnUse" x="577" y="265" width="15" height="10">
<path d="M577.172 265.741H591.587V274.113H577.172V265.741Z" fill="white"/>
</mask>
<g mask="url(#mask65_253_12288)">
<g opacity="0.389999">
<path d="M591.263 266.023C587.177 269.643 582.431 272.562 577.17 274.113C580.72 271.585 584.3 269.06 588.278 267.237C589.358 266.72 590.516 266.19 591.584 265.741C591.477 265.836 591.37 265.93 591.263 266.023Z" fill="#E0E0E0"/>
</g>
</g>
<mask id="mask66_253_12288" style="mask-type:luminance" maskUnits="userSpaceOnUse" x="592" y="262" width="8" height="6">
<path d="M592.726 262.464H599.947V267.194H592.726V262.464Z" fill="white"/>
</mask>
<g mask="url(#mask66_253_12288)">
<g opacity="0.389999">
<path d="M592.723 267.194C594.773 265.299 597.61 263.379 599.944 262.465C597.855 264.481 595.412 266.094 592.723 267.194Z" fill="#E0E0E0"/>
</g>
</g>
<mask id="mask67_253_12288" style="mask-type:luminance" maskUnits="userSpaceOnUse" x="594" y="259" width="7" height="5">
<path d="M594.824 259.913H600.192V263.86H594.824V259.913Z" fill="white"/>
</mask>
<g mask="url(#mask67_253_12288)">
<g opacity="0.389999">
<path d="M594.824 263.86C596.363 262.422 598.559 260.598 600.193 259.913C598.676 261.554 596.903 262.998 594.824 263.86Z" fill="#E0E0E0"/>
</g>
</g>
<mask id="mask68_253_12288" style="mask-type:luminance" maskUnits="userSpaceOnUse" x="591" y="261" width="3" height="3">
<path d="M591.265 261.094H593.99V263.37H591.265V261.094Z" fill="white"/>
</mask>
<g mask="url(#mask68_253_12288)">
<g opacity="0.389999">
<path d="M591.263 263.37C592.029 262.475 592.996 261.652 593.99 261.093C593.234 262.019 592.311 262.793 591.263 263.37Z" fill="#E0E0E0"/>
</g>
</g>
<path d="M659.446 256.185C659.769 256.473 660.33 256.445 660.764 256.115C684.001 238.436 702.109 213.767 711.016 184.5C712.495 176.288 707.616 169.219 701.163 168.956C694.689 168.683 689.141 174.15 687.9 180.962C686.908 206.957 677.262 232.897 659.465 254.97C659.133 255.381 659.124 255.896 659.446 256.185Z" fill="#9747FF"/>
<path d="M690.465 182.763C691.482 177.5 695.852 173.444 700.733 173.83C705.601 174.211 709.075 179.55 707.912 185.611C706.757 191.674 701.539 195.502 696.824 194.324C692.093 193.144 689.468 188.032 690.465 182.763Z" fill="white"/>
<path d="M697.529 188.547C700.213 186.423 702.538 183.923 704.211 181.038C701.673 183.106 698.86 186.074 697.529 188.547Z" fill="#DDFAFB"/>
<path d="M699.447 188.87C700.762 187.745 701.953 186.454 702.981 185.078C701.492 186.023 700.193 187.435 699.447 188.87Z" fill="#DDFAFB"/>
<path d="M700.474 189.87C701.366 189.127 702.147 188.271 702.702 187.283C701.835 187.998 700.989 188.917 700.474 189.87Z" fill="#DDFAFB"/>
<path d="M700.349 191.826C701.418 190.922 702.308 189.853 702.974 188.663C701.911 189.546 700.95 190.689 700.349 191.826Z" fill="#DDFAFB"/>
<path d="M696.957 191.052C694.271 188.097 692.964 184.103 694.012 180.311C691.265 184.325 692.813 189.199 697.089 191.652C697.369 191.819 697.699 192.015 697.964 192.145C697.617 191.79 697.282 191.424 696.957 191.052Z" fill="#DDFAFB"/>
<mask id="mask69_253_12288" style="mask-type:luminance" maskUnits="userSpaceOnUse" x="683" y="203" width="13" height="24">
<path d="M683.655 203.27H695.018V226.938H683.655V203.27Z" fill="white"/>
</mask>
<g mask="url(#mask69_253_12288)">
<g opacity="0.330002">
<path d="M686.64 218.996C685.551 221.612 684.599 224.275 683.653 226.938C683.768 226.791 683.882 226.645 683.994 226.498C689.275 219.536 693.407 211.686 695.016 203.27C692.1 208.454 688.794 213.478 686.64 218.996Z" fill="#9747FF"/>
</g>
</g>
<mask id="mask70_253_12288" style="mask-type:luminance" maskUnits="userSpaceOnUse" x="683" y="210" width="5" height="11">
<path d="M683.032 210.215H687.183V220.095H683.032V210.215Z" fill="white"/>
</mask>
<g mask="url(#mask70_253_12288)">
<g opacity="0.330002">
<path d="M683.032 220.095C683.118 219.968 683.204 219.84 683.289 219.713C685.247 216.824 686.762 213.626 687.181 210.215C685.459 213.382 683.859 216.616 683.032 220.095Z" fill="#9747FF"/>
</g>
</g>
<mask id="mask71_253_12288" style="mask-type:luminance" maskUnits="userSpaceOnUse" x="679" y="224" width="4" height="7">
<path d="M679.148 224.283H682.594V230.763H679.148V224.283Z" fill="white"/>
</mask>
<g mask="url(#mask71_253_12288)">
<g opacity="0.330002">
<path d="M679.148 230.763C680.68 228.803 681.937 226.634 682.595 224.283C681.129 226.214 679.71 228.636 679.148 230.763Z" fill="#9747FF"/>
</g>
</g>
<mask id="mask72_253_12288" style="mask-type:luminance" maskUnits="userSpaceOnUse" x="675" y="230" width="8" height="10">
<path d="M675.8 230.352H682.081V239.481H675.8V230.352Z" fill="white"/>
</mask>
<g mask="url(#mask72_253_12288)">
<g opacity="0.330002">
<path d="M675.802 239.481C678.514 236.841 680.602 233.718 682.081 230.352C679.452 233.016 677.287 236.235 675.802 239.481Z" fill="#9747FF"/>
</g>
</g>
<path d="M749.346 259.599C752.097 262.752 756.345 264.32 760.527 264.548C763.966 264.736 767.548 264.046 770.349 262.044C773.15 260.041 775.026 256.59 774.599 253.176C774.34 251.103 773.28 249.193 771.905 247.618C768.93 244.21 764.368 242.244 759.844 242.421C755.198 242.603 751.497 245.072 748.149 248.069C744.977 250.909 746.968 256.875 749.346 259.599Z" fill="#9747FF"/>
<path d="M747.854 250.216C746.955 249.125 747.056 247.451 747.785 246.239C748.514 245.027 749.747 244.205 751.014 243.575C754.457 241.864 758.46 241.305 762.241 242.006C763.574 242.254 765.14 242.961 765.205 244.313C767.955 244.576 770.615 245.759 772.572 247.706C774.528 249.653 775.478 252.739 774.418 255.286C773.454 257.6 771.051 259.065 768.593 259.572C766.134 260.078 763.59 259.777 761.097 259.474C758.124 259.113 755.062 258.723 752.457 257.248C749.851 255.773 747.469 253.183 747.854 250.216Z" fill="white"/>
<path d="M751.55 249.322C755.012 249.391 758.435 248.487 761.705 247.347C762.395 247.106 763.902 246.296 762.626 245.921C761.826 245.686 759.876 246.644 759.062 246.87C756.864 247.481 752.698 248.276 751.55 249.322Z" fill="white"/>
<path d="M764.379 244.396C767.351 242.91 770.322 241.423 773.293 239.936C773.569 240.702 773.844 241.467 774.12 242.231C771.292 243.051 768.166 243.972 765.338 244.792C765.099 244.861 764.845 244.931 764.606 244.861C764.367 244.791 764.279 244.623 764.379 244.396Z" fill="#4D3328"/>
<path d="M756.156 244.428C755.851 244.374 755.53 244.348 755.237 244.451C754.851 244.587 754.557 244.957 754.513 245.364C754.469 245.771 754.675 246.195 755.023 246.411C755.371 246.628 755.842 246.626 756.189 246.406C756.466 246.231 756.65 245.942 756.898 245.727C757.124 245.531 757.826 245.387 757.595 244.97C757.405 244.627 756.507 244.491 756.156 244.428Z" fill="#4D3328"/>
<path d="M761.454 251.769C761.273 252.076 761.054 252.375 760.745 252.551C760.336 252.785 759.794 252.764 759.406 252.498C759.018 252.231 758.802 251.735 758.874 251.27C758.946 250.805 759.302 250.396 759.752 250.259C760.113 250.149 760.503 250.206 760.877 250.151C761.217 250.101 761.868 249.598 762.059 250.112C762.216 250.533 761.662 251.417 761.454 251.769Z" fill="#4D3328"/>
<path d="M172.895 340.692L172.12 356.552L191.529 326.135L192.247 311.435C192.262 311.119 191.849 310.988 191.679 311.254L172.895 340.692Z" fill="#FBFBFB"/>
<path d="M165.106 337.182L170.664 355.626L190.073 325.208L184.709 307.408C184.633 307.155 184.295 307.108 184.154 307.331L165.106 337.182Z" fill="#FBFBFB"/>
<path d="M169.045 338.65L170.664 355.626L190.073 325.208L188.539 309.124C188.511 308.832 188.129 308.74 187.972 308.988L169.045 338.65Z" fill="#FBFBFB"/>
<path d="M187.404 349.926L173.337 357.326L192.745 326.909L205.784 320.05C206.065 319.902 206.358 320.221 206.188 320.488L187.404 349.926Z" fill="#FBFBFB"/>
<path d="M193.881 355.493L174.793 358.254L194.202 327.836L212.624 325.171C212.885 325.134 213.07 325.419 212.928 325.642L193.881 355.493Z" fill="#FBFBFB"/>
<path d="M190.885 352.548L174.793 358.253L194.202 327.835L209.448 322.43C209.725 322.332 209.969 322.638 209.811 322.886L190.885 352.548Z" fill="#FBFBFB"/>
<path d="M193.759 328.257C193.455 328.733 192.312 328.549 191.206 327.845C190.1 327.141 189.45 326.185 189.754 325.708C190.058 325.232 191.201 325.416 192.307 326.12C193.413 326.824 194.063 327.781 193.759 328.257Z" fill="#E0E0E0"/>
<path d="M195.137 358.707L174.515 358.417L193.924 327.999L214.546 328.289L195.137 358.707Z" fill="#E0E0E0"/>
<path d="M161.535 337.324L170.51 355.867L189.919 325.45L180.944 306.906L161.535 337.324Z" fill="#E0E0E0"/>
<path d="M191.609 329.716C191.964 327.829 193.172 326.219 194.469 324.802C195.766 323.384 197.201 322.062 198.183 320.411C199.78 317.73 199.995 314.276 198.746 311.417C199.489 312.354 200.405 313.199 201.147 314.136C201.783 313.264 202.458 312.488 203.093 311.616C203.028 313.577 202.787 315.539 202.383 317.459C201.98 319.378 201.218 321.262 199.91 322.726C197.587 325.33 193.001 326.518 191.609 329.716Z" fill="#9747FF"/>
<path d="M174.515 358.416L170.51 355.868L189.919 325.45L193.924 327.998L174.515 358.416Z" fill="#E0E0E0"/>
<path d="M168.349 329.959C166.73 332.284 165.431 334.815 164.219 337.369C167.881 333.376 171.05 328.899 173.358 323.99C171.617 325.918 169.85 327.834 168.349 329.959Z" fill="#E0E0E0"/>
<path d="M171.61 323.848C172.704 322.798 173.597 321.558 174.214 320.171C173.158 321.252 172.269 322.488 171.61 323.848Z" fill="#E0E0E0"/>
<path d="M175.893 317.57C176.594 316.858 177.167 316.028 177.562 315.109C176.871 315.83 176.3 316.658 175.893 317.57Z" fill="#E0E0E0"/>
<path d="M174.511 323.02C175.438 322.033 176.212 320.909 176.773 319.676C175.814 320.639 175.039 321.767 174.511 323.02Z" fill="#E0E0E0"/>
<path d="M173.986 327.352C172.989 328.77 172.244 330.34 171.403 331.85C173.991 329.333 175.73 326.592 177.537 323.355C176.242 324.58 175.013 325.892 173.986 327.352Z" fill="#E0E0E0"/>
<path d="M170.919 345.302C170.408 347.716 170.121 350.182 170.396 352.646C170.977 350.248 171.266 347.758 170.919 345.302Z" fill="#E0E0E0"/>
<path d="M172.37 346.337C171.858 348.052 171.673 349.846 171.822 351.629C172.298 349.908 172.483 348.119 172.37 346.337Z" fill="#E0E0E0"/>
<path d="M185.976 344.095C189.161 339.958 192.148 335.634 194.06 330.746C190.675 334.732 187.658 339.105 185.976 344.095Z" fill="#E0E0E0"/>
<path d="M194.066 334.454C194.947 333.416 195.727 332.308 196.34 331.022C195.344 331.988 194.543 333.148 194.066 334.454Z" fill="#E0E0E0"/>
<path d="M196.482 333.384C197.213 332.538 197.859 331.618 198.343 330.608C197.53 331.389 196.876 332.325 196.482 333.384Z" fill="#E0E0E0"/>
<path d="M202.27 340.964C205.47 337.896 208.137 334.315 210.086 330.332C206.938 333.443 204.275 337.018 202.27 340.964Z" fill="#E0E0E0"/>
<path d="M193.036 352.643C192.384 352.242 191.821 352.751 191.724 353.416C191.594 354.079 191.816 354.746 191.955 355.39C192.062 354.545 191.78 352.029 193.3 353.009C193.379 353.07 193.442 353.148 193.507 353.222C193.422 352.982 193.264 352.765 193.036 352.643Z" fill="#E0E0E0"/>
<path d="M738.631 376.53L733.487 379.743L701.342 328.409L706.486 325.196L738.631 376.53Z" fill="#FBFBFB"/>
<path d="M763.768 354.629L738.631 376.53L706.487 325.196L731.623 303.295L763.768 354.629Z" fill="#7B8FDB"/>
<path d="M758.137 355.188L738.631 376.53L706.487 325.196L725.992 303.854L758.137 355.188Z" fill="#E7F3FA"/>
<path d="M752.433 353.797L738.631 376.529L706.487 325.196L720.288 302.463L752.433 353.797Z" fill="#E7F3FA"/>
<path d="M741.658 349.994L737.281 377.373L705.136 326.039L709.513 298.66L741.658 349.994Z" fill="#FBFBFB"/>
<path d="M705.247 391.528L733.486 379.742L701.342 328.409L673.102 340.194L705.247 391.528Z" fill="#9747FF"/>
<path d="M705.247 391.528L733.486 379.742L701.342 328.409L673.102 340.194L705.247 391.528Z" fill="#E7F3FA"/>
<path d="M704.86 385.27L735.335 378.588L703.19 327.255L672.716 333.936L704.86 385.27Z" fill="#FBFBFB"/>
<path d="M704.77 358.694C705.861 356.004 706.954 353.314 708.045 350.625C710.673 353.16 713.301 355.695 715.929 358.23C712.431 347.422 707.366 337.122 700.947 327.746L694.531 329.153C698.856 338.653 702.296 348.555 704.77 358.694Z" fill="#9747FF"/>
<path d="M708.229 328.413C709.85 333.04 711.698 337.604 714.013 341.931C716.344 346.075 719.042 350.005 721.793 353.88C718.813 344.664 713.991 336.17 708.229 328.413Z" fill="#E7F3FA"/>
<path d="M721.861 348.064C722.701 351.688 724.128 355.161 726.231 358.239C725.315 354.642 723.892 351.179 721.861 348.064Z" fill="#E7F3FA"/>
<path d="M723.4 358.274C724.929 361.997 727.059 365.419 729.522 368.593C728.282 364.74 726.118 361.26 723.4 358.274Z" fill="#E7F3FA"/>
<path d="M730.106 364.642C730.668 366.248 731.499 367.747 732.567 369.073C732.031 367.455 731.197 365.953 730.106 364.642Z" fill="#E7F3FA"/>
<path d="M718.857 321.949C718.861 321.958 718.865 321.967 718.868 321.976C718.877 321.998 718.888 322.02 718.897 322.042C718.877 321.994 718.866 321.97 718.857 321.949Z" fill="black"/>
<path d="M718.857 321.949C718.855 321.942 718.852 321.935 718.848 321.928C718.836 321.899 718.842 321.913 718.857 321.949Z" fill="black"/>
<path d="M718.868 321.976C717.12 317.654 714.599 313.721 712.187 309.75C713.479 315.528 716.448 320.748 720.095 325.365C720.175 325.47 720.257 325.574 720.338 325.678C719.88 324.431 719.391 323.197 718.868 321.976Z" fill="#E7F3FA"/>
<path d="M680.967 337.964C683.085 344.347 686.526 350.207 690.873 355.328C688.546 349.229 685.074 343.253 680.967 337.964Z" fill="#E7F3FA"/>
<path d="M700.864 374.303C702.943 376.474 705.423 378.204 708.124 379.516C706.041 377.352 703.559 375.621 700.864 374.303Z" fill="#E7F3FA"/>
<path d="M702.623 371.997C704.942 374.44 707.653 376.475 710.601 378.099C708.381 375.547 705.651 373.5 702.623 371.997Z" fill="#E7F3FA"/>
<path d="M704.602 367.716C707.617 370.998 710.902 374.118 714.904 376.166C711.86 372.904 708.59 369.798 704.602 367.716Z" fill="#E7F3FA"/>
<path d="M698.666 332.365C699.978 337.413 701.562 341.457 704.169 345.933C703.245 341.096 701.425 336.454 698.666 332.365Z" fill="#E0E0E0"/>
<path d="M743.79 348.823C741.813 343.593 739.012 338.647 735.163 334.561C737.3 339.312 739.668 343.975 742.912 348.083C743.369 348.6 744.488 350.402 743.79 348.823Z" fill="#FBFBFB"/>
<path d="M743.408 343.343C743.955 345.472 744.92 347.474 746.291 349.196C745.61 347.12 744.658 345.139 743.408 343.343Z" fill="#FBFBFB"/>
<path d="M747.475 345.649C747.712 347.378 748.26 349.062 749.199 350.541C748.842 348.842 748.298 347.183 747.475 345.649Z" fill="#FBFBFB"/>
<path d="M209.171 222.158C200.102 221.474 191.017 220.789 181.948 220.106C176.299 214.828 170.638 209.538 164.99 204.26L161.499 213.318C161.459 213.447 161.369 213.69 161.348 213.824C161.191 214.604 161.347 215.442 161.628 216.176C163.117 219.724 166.919 222.56 170.042 224.664C176.558 228.854 183.904 231.843 191.503 233.368C195.114 234.006 199.149 234.532 202.694 233.355C203.475 233.066 204.266 232.631 204.812 231.989C204.887 231.883 205.066 231.667 205.126 231.548L205.251 231.314L209.194 222.159L209.171 222.158Z" fill="white"/>
<path d="M205.126 231.548C203.44 234.184 198.777 234.14 195.979 233.973C188.429 233.322 181.118 230.706 174.423 227.241C170.368 225.048 166.334 222.498 163.329 218.952C162.103 217.411 160.765 215.348 161.498 213.318C161.361 213.634 159.65 218.061 159.631 218.276C159.515 218.842 159.556 219.472 159.691 220.031C160.74 223.827 165.065 227.12 168.217 229.262C174.291 233.23 181.138 236.075 188.217 237.663C192.213 238.487 198.029 239.354 201.736 237.366C202.242 237.071 202.744 236.662 203.082 236.181C203.366 236.042 205.037 231.61 205.25 231.314L205.126 231.548Z" fill="#8561B4"/>
<path d="M235.282 222.226L234.448 224.062C218.702 222.876 197.48 221.276 181.948 220.106L182.775 218.069L235.282 222.226Z" fill="#8561B4"/>
<path d="M235.282 222.226L182.775 218.069L147.398 185.324L197.587 191.853L235.282 222.226Z" fill="#7B8FDB"/>
<path d="M182.774 218.069L181.948 220.106C171.938 210.753 156.884 196.686 146.719 187.188L147.398 185.325L182.774 218.069Z" fill="#8561B4"/>
<path d="M214.098 241.461C214.183 240.779 214.06 240.096 213.765 239.476C213.373 238.655 212.853 238.187 212.291 237.989L214.459 220.636C214.484 220.427 214.399 220.22 214.234 220.091L190.551 201.572C190.29 201.369 189.914 201.414 189.71 201.674C189.506 201.934 189.552 202.309 189.813 202.513L213.229 220.823L211.09 237.943C209.695 238.285 208.408 239.891 208.46 241.644C208.483 242.423 208.753 243.183 209.197 243.822C210.087 245.105 211.917 245.153 212.941 243.973C213.546 243.277 213.975 242.438 214.098 241.461Z" fill="white"/>
<path d="M762.795 431.3C761.483 429.356 761.996 426.718 763.942 425.407L796.127 403.724L800.881 410.762L768.696 432.445C766.75 433.756 764.108 433.243 762.795 431.3Z" fill="#7B8FDB"/>
<path d="M787.356 409.633L792.11 416.671L797.279 413.189L792.525 406.151L787.356 409.633Z" fill="#9747FF"/>
<path d="M797.86 406.29L799.148 408.196L804.316 404.714L803.029 402.808L797.86 406.29Z" fill="#9747FF"/>
<path d="M805 402.866C799.588 394.854 801.704 383.975 809.728 378.569C817.752 373.164 828.644 375.278 834.057 383.291C839.47 391.304 837.353 402.182 829.33 407.588C821.306 412.993 810.413 410.879 805 402.866ZM836.345 381.749C830.08 372.475 817.472 370.028 808.185 376.285C798.897 382.542 796.447 395.133 802.713 404.408C808.978 413.682 821.586 416.129 830.873 409.872C840.161 403.615 842.61 391.024 836.345 381.749Z" fill="#8561B4"/>
<mask id="mask73_253_12288" style="mask-type:luminance" maskUnits="userSpaceOnUse" x="802" y="375" width="36" height="36">
<path d="M802.004 375.575H837.056V410.582H802.004V375.575Z" fill="white"/>
</mask>
<g mask="url(#mask73_253_12288)">
<g opacity="0.5">
<path d="M805 402.866C799.588 394.854 801.704 383.976 809.728 378.57C817.752 373.164 828.644 375.278 834.057 383.291C839.47 391.304 837.353 402.182 829.33 407.588C821.306 412.993 810.413 410.879 805 402.866Z" fill="#FBFBFB"/>
</g>
</g>
</svg>
