<svg width="2063" height="1239" viewBox="0 0 2063 1239" fill="none" xmlns="http://www.w3.org/2000/svg">
<path d="M1042.37 574.561C1058.28 574.899 1073.87 581.709 1089.66 579.715C1086.12 583.314 1082.57 586.915 1079.03 590.514C1080.88 594.916 1084.5 598.547 1088.9 600.412C1084.31 603.179 1078.77 603.973 1073.41 603.82C1068.06 603.666 1062.77 602.632 1057.45 602.006C1052.12 601.381 1046.64 601.176 1041.49 602.643C1041.22 594.206 1040.91 585.791 1040.65 577.354C1040.62 576.654 1040.61 575.916 1040.95 575.303C1041.29 574.691 1041.67 574.546 1042.37 574.561Z" fill="white"/>
<path d="M1044.37 685.521H1039.11V572.589H1044.37V685.521Z" fill="white"/>
<path d="M1270.25 831.723H1434.24V849.576H1270.25V831.723Z" fill="white"/>
<path d="M1414.08 1208.9H1271.36V849.576H1414.08V1208.9Z" fill="#9747FF"/>
<mask id="mask0_246_8946" style="mask-type:luminance" maskUnits="userSpaceOnUse" x="1271" y="849" width="144" height="360">
<path d="M1271.36 849.577H1414.08V1208.9H1271.36V849.577Z" fill="white"/>
</mask>
<g mask="url(#mask0_246_8946)">
<g opacity="0.25">
<path d="M1348.65 854.63C1358.46 855.861 1368.93 856.116 1377.21 861.517C1391.71 870.973 1393.13 891.258 1393.03 908.551C1392.69 969.601 1392.35 1030.65 1392 1091.7C1391.9 1110.73 1391.58 1130.64 1382.57 1147.41C1371.62 1167.82 1349.36 1180.07 1326.76 1185.26C1308.65 1189.41 1289.99 1189.74 1271.36 1190.12V1208.9H1414.09V849.576H1332.13C1336.57 852.784 1344.33 854.088 1348.65 854.63Z" fill="#9747FF"/>
</g>
</g>
<path d="M1379.4 894.63H1325.09V981.096H1379.4V894.63Z" fill="white"/>
<path d="M1379.4 913.615H1325.09V981.096H1379.4V913.615Z" fill="#8561B4"/>
<path d="M1379.4 1043.25H1325.09V1129.71H1379.4V1043.25Z" fill="white"/>
<path d="M1379.4 1062.23H1325.09V1129.71H1379.4V1062.23Z" fill="#8561B4"/>
<path d="M813.194 831.723H649.196V849.576H813.194V831.723Z" fill="white"/>
<path d="M669.356 1208.9H812.083V849.576H669.356V1208.9Z" fill="#9747FF"/>
<path d="M704.037 894.63H758.352V981.096H704.037V894.63Z" fill="white"/>
<path d="M704.037 913.615H758.352V981.096H704.037V913.615Z" fill="#8561B4"/>
<path d="M704.037 1043.25H758.352V1129.71H704.037V1043.25Z" fill="white"/>
<path d="M704.037 1062.23H758.352V1129.71H704.037V1062.23Z" fill="#8561B4"/>
<mask id="mask1_246_8946" style="mask-type:luminance" maskUnits="userSpaceOnUse" x="669" y="849" width="144" height="360">
<path d="M669.356 849.577H812.083V1208.9H669.356V849.577Z" fill="white"/>
</mask>
<g mask="url(#mask1_246_8946)">
<g opacity="0.25">
<path d="M746.646 854.63C756.46 855.861 766.924 856.116 775.205 861.517C789.703 870.973 791.128 891.258 791.03 908.551C790.687 969.601 790.344 1030.65 790.001 1091.7C789.894 1110.73 789.577 1130.64 780.572 1147.41C769.616 1167.82 747.362 1180.07 724.762 1185.26C706.651 1189.41 687.983 1189.74 669.356 1190.12V1208.9H812.083V849.576H730.123C734.567 852.784 742.326 854.088 746.646 854.63Z" fill="#9747FF"/>
</g>
</g>
<path d="M1268.37 1208.9H815.066V770.676H1268.37V1208.9Z" fill="#9747FF"/>
<mask id="mask2_246_8946" style="mask-type:luminance" maskUnits="userSpaceOnUse" x="815" y="770" width="454" height="439">
<path d="M815.065 770.675H1268.38V1208.9H815.065V770.675Z" fill="white"/>
</mask>
<g mask="url(#mask2_246_8946)">
<g opacity="0.240005">
<path d="M1031.22 1168.04C999.697 1182.42 967.825 1196.04 935.65 1208.9H1268.38V770.675H815.067V821.661C860.984 826.355 909.698 822.856 955.536 823.788C985.071 824.388 1014.61 824.988 1044.14 825.589C1071.15 826.137 1100.34 827.446 1121.36 844.383C1148.69 866.407 1152.11 906.014 1153.36 941.062C1155.45 999.904 1155.71 1064.52 1118.32 1110.05C1095.99 1137.24 1063.25 1153.43 1031.22 1168.04Z" fill="#9747FF"/>
</g>
</g>
<mask id="mask3_246_8946" style="mask-type:luminance" maskUnits="userSpaceOnUse" x="871" y="1110" width="49" height="12">
<path d="M871.332 1110.74H919.48V1121.3H871.332V1110.74Z" fill="white"/>
</mask>
<g mask="url(#mask3_246_8946)">
<g opacity="0.240005">
<path d="M919.48 1121.3H871.332V1110.74H919.48V1121.3Z" fill="#9747FF"/>
</g>
</g>
<mask id="mask4_246_8946" style="mask-type:luminance" maskUnits="userSpaceOnUse" x="923" y="1110" width="49" height="12">
<path d="M923.59 1110.74H971.74V1121.3H923.59V1110.74Z" fill="white"/>
</mask>
<g mask="url(#mask4_246_8946)">
<g opacity="0.240005">
<path d="M971.74 1121.3H923.591V1110.74H971.74V1121.3Z" fill="#9747FF"/>
</g>
</g>
<mask id="mask5_246_8946" style="mask-type:luminance" maskUnits="userSpaceOnUse" x="894" y="1097" width="49" height="12">
<path d="M894.232 1097.84H942.38V1108.4H894.232V1097.84Z" fill="white"/>
</mask>
<g mask="url(#mask5_246_8946)">
<g opacity="0.240005">
<path d="M942.38 1108.4H894.232V1097.84H942.38V1108.4Z" fill="#9747FF"/>
</g>
</g>
<mask id="mask6_246_8946" style="mask-type:luminance" maskUnits="userSpaceOnUse" x="701" y="1011" width="49" height="11">
<path d="M701.067 1011.01H749.216V1021.56H701.067V1011.01Z" fill="white"/>
</mask>
<g mask="url(#mask6_246_8946)">
<g opacity="0.240005">
<path d="M749.216 1021.56H701.067V1011.01H749.216V1021.56Z" fill="#9747FF"/>
</g>
</g>
<mask id="mask7_246_8946" style="mask-type:luminance" maskUnits="userSpaceOnUse" x="723" y="998" width="50" height="11">
<path d="M723.967 998.107H772.117V1008.66H723.967V998.107Z" fill="white"/>
</mask>
<g mask="url(#mask7_246_8946)">
<g opacity="0.240005">
<path d="M772.116 1008.66H723.968V998.108H772.116V1008.66Z" fill="#9747FF"/>
</g>
</g>
<path d="M1041.72 642.021L782.25 739.089H1301.19L1041.72 642.021Z" fill="#9747FF"/>
<mask id="mask8_246_8946" style="mask-type:luminance" maskUnits="userSpaceOnUse" x="782" y="654" width="520" height="86">
<path d="M782.249 654.945H1301.19V739.089H782.249V654.945Z" fill="white"/>
</mask>
<g mask="url(#mask8_246_8946)">
<g opacity="0.240005">
<path d="M1076.27 654.945C1080.34 662.178 1086 669.669 1086 675.757C1090.45 691.969 1088.43 711.012 1076.61 722.987C1062.06 737.74 1038.53 737.376 1017.84 736.004C953.469 731.736 889.097 727.467 824.726 723.199L782.249 739.089H1301.19L1076.27 654.945Z" fill="#9747FF"/>
</g>
</g>
<path d="M1041.72 1009.4L956.116 1043.69H1127.32L1041.72 1009.4Z" fill="white"/>
<path d="M1325.51 757.148H757.926V739.089H1325.51V757.148Z" fill="#8561B4"/>
<path d="M1301.19 786.669H782.249V757.148H1301.19V786.669Z" fill="white"/>
<path d="M1318.12 1208.9H765.326V1179.38H1318.12V1208.9Z" fill="white"/>
<path d="M1434.24 1238.42H649.196V1208.9H1434.24V1238.42Z" fill="#8561B4"/>
<path d="M907.945 806.315H865.033C858.76 806.315 853.673 801.235 853.673 794.97V786.669H919.305V794.97C919.305 801.235 914.219 806.315 907.945 806.315Z" fill="#8561B4"/>
<path d="M865.034 1159.73H907.946C914.219 1159.73 919.306 1164.81 919.306 1171.08V1179.38H853.674V1171.08C853.674 1164.81 858.76 1159.73 865.034 1159.73Z" fill="#8561B4"/>
<path d="M906.503 1159.73H866.477V806.315H906.503V1159.73Z" fill="white"/>
<mask id="mask9_246_8946" style="mask-type:luminance" maskUnits="userSpaceOnUse" x="866" y="806" width="41" height="354">
<path d="M866.477 806.315H906.503V1159.73H866.477V806.315Z" fill="white"/>
</mask>
<g mask="url(#mask9_246_8946)">
<g opacity="0.380005">
<path d="M866.476 808.035C868.973 811.215 873.496 813.346 876.427 815.248C882.955 819.482 888.449 823.886 891.957 831.098C898.068 843.657 897.789 858.244 897.383 872.202C895.358 941.705 893.334 1011.21 891.309 1080.71C890.497 1108.59 888.663 1139.06 870.029 1159.73H906.502V806.314H866.476V808.035Z" fill="white"/>
</g>
</g>
<path d="M836.521 806.315H793.611C787.336 806.315 782.249 801.235 782.249 794.97V786.669H847.881V794.97C847.881 801.235 842.796 806.315 836.521 806.315Z" fill="#8561B4"/>
<path d="M793.61 1159.73H836.52C842.795 1159.73 847.882 1164.81 847.882 1171.08V1179.38H782.25V1171.08C782.25 1164.81 787.335 1159.73 793.61 1159.73Z" fill="#8561B4"/>
<path d="M835.079 1159.73H795.052V806.315H835.079V1159.73Z" fill="white"/>
<mask id="mask10_246_8946" style="mask-type:luminance" maskUnits="userSpaceOnUse" x="795" y="806" width="41" height="354">
<path d="M795.052 806.315H835.079V1159.73H795.052V806.315Z" fill="white"/>
</mask>
<g mask="url(#mask10_246_8946)">
<g opacity="0.380005">
<path d="M795.053 808.035C797.551 811.215 802.073 813.346 805.004 815.248C811.532 819.482 817.027 823.886 820.534 831.098C826.644 843.657 826.366 858.244 825.96 872.202C823.935 941.705 821.911 1011.21 819.887 1080.71C819.074 1108.59 817.24 1139.06 798.607 1159.73H835.08V806.314H795.053V808.035Z" fill="white"/>
</g>
</g>
<path d="M1289.83 806.315H1246.92C1240.64 806.315 1235.56 801.235 1235.56 794.97V786.669H1301.19V794.97C1301.19 801.235 1296.1 806.315 1289.83 806.315Z" fill="#8561B4"/>
<path d="M1246.92 1159.73H1289.83C1296.1 1159.73 1301.19 1164.81 1301.19 1171.08V1179.38H1235.56V1171.08C1235.56 1164.81 1240.65 1159.73 1246.92 1159.73Z" fill="#8561B4"/>
<path d="M1288.39 1159.73H1248.36V806.315H1288.39V1159.73Z" fill="white"/>
<mask id="mask11_246_8946" style="mask-type:luminance" maskUnits="userSpaceOnUse" x="1248" y="806" width="41" height="354">
<path d="M1248.36 806.315H1288.39V1159.73H1248.36V806.315Z" fill="white"/>
</mask>
<g mask="url(#mask11_246_8946)">
<g opacity="0.380005">
<path d="M1248.36 808.035C1250.86 811.215 1255.38 813.346 1258.31 815.248C1264.84 819.482 1270.33 823.886 1273.84 831.098C1279.95 843.657 1279.67 858.244 1279.27 872.202C1277.24 941.705 1275.22 1011.21 1273.19 1080.71C1272.38 1108.59 1270.55 1139.06 1251.91 1159.73H1288.39V806.314H1248.36V808.035Z" fill="white"/>
</g>
</g>
<path d="M1218.41 806.315H1175.5C1169.22 806.315 1164.13 801.235 1164.13 794.97V786.669H1229.77V794.97C1229.77 801.235 1224.68 806.315 1218.41 806.315Z" fill="#8561B4"/>
<path d="M1175.5 1159.73H1218.41C1224.68 1159.73 1229.77 1164.81 1229.77 1171.08V1179.38H1164.14V1171.08C1164.14 1164.81 1169.22 1159.73 1175.5 1159.73Z" fill="#8561B4"/>
<path d="M1216.96 1159.73H1176.94V806.315H1216.96V1159.73Z" fill="white"/>
<mask id="mask12_246_8946" style="mask-type:luminance" maskUnits="userSpaceOnUse" x="1176" y="806" width="41" height="354">
<path d="M1176.93 806.315H1216.96V1159.73H1176.93V806.315Z" fill="white"/>
</mask>
<g mask="url(#mask12_246_8946)">
<g opacity="0.380005">
<path d="M1176.94 808.035C1179.43 811.214 1183.96 813.345 1186.89 815.247C1193.42 819.482 1198.91 823.885 1202.42 831.097C1208.53 843.656 1208.25 858.243 1207.84 872.201C1205.82 941.705 1203.8 1011.21 1201.77 1080.71C1200.96 1108.59 1199.12 1139.06 1180.49 1159.73H1216.96V806.314H1176.94V808.035Z" fill="white"/>
</g>
</g>
<path d="M1068.4 698.018C1068.4 683.304 1056.45 671.376 1041.72 671.376C1026.99 671.376 1015.04 683.304 1015.04 698.018C1015.04 712.732 1026.99 724.66 1041.72 724.66C1056.45 724.66 1068.4 712.732 1068.4 698.018Z" fill="#8561B4"/>
<path d="M1101.14 1043.69H982.297V1179.38H1101.14V1043.69Z" fill="#8561B4"/>
<path d="M1022.23 852.561H967.914V939.027H1022.23V852.561Z" fill="white"/>
<path d="M1115.53 852.561H1061.21V939.027H1115.53V852.561Z" fill="white"/>
<path d="M1022.23 871.546H967.914V939.027H1022.23V871.546Z" fill="#8561B4"/>
<path d="M1115.53 871.546H1061.21V939.027H1115.53V871.546Z" fill="#8561B4"/>
<mask id="mask13_246_8946" style="mask-type:luminance" maskUnits="userSpaceOnUse" x="947" y="970" width="49" height="11">
<path d="M947.665 970.011H995.813V980.565H947.665V970.011Z" fill="white"/>
</mask>
<g mask="url(#mask13_246_8946)">
<g opacity="0.240005">
<path d="M995.813 980.565H947.665V970.011H995.813V980.565Z" fill="#9747FF"/>
</g>
</g>
<mask id="mask14_246_8946" style="mask-type:luminance" maskUnits="userSpaceOnUse" x="999" y="970" width="50" height="11">
<path d="M999.925 970.011H1048.07V980.565H999.925V970.011Z" fill="white"/>
</mask>
<g mask="url(#mask14_246_8946)">
<g opacity="0.240005">
<path d="M1048.07 980.565H999.925V970.011H1048.07V980.565Z" fill="#9747FF"/>
</g>
</g>
<mask id="mask15_246_8946" style="mask-type:luminance" maskUnits="userSpaceOnUse" x="970" y="957" width="49" height="11">
<path d="M970.565 957.109H1018.71V967.664H970.565V957.109Z" fill="white"/>
</mask>
<g mask="url(#mask15_246_8946)">
<g opacity="0.240005">
<path d="M1018.71 967.664H970.566V957.109H1018.71V967.664Z" fill="#9747FF"/>
</g>
</g>
<mask id="mask16_246_8946" style="mask-type:luminance" maskUnits="userSpaceOnUse" x="1009" y="653" width="72" height="62">
<path d="M1009.96 653.717H1080.34V714.23H1009.96V653.717Z" fill="white"/>
</mask>
<g mask="url(#mask16_246_8946)">
<g opacity="0.240005">
<path d="M1077.38 680.057C1076.67 668.164 1069.38 658.417 1058.52 653.718C1066.55 660.612 1072.85 670.102 1076.14 679.332C1076.61 680.699 1077.09 682.064 1077.59 683.42C1077.53 682.298 1077.46 681.176 1077.38 680.057Z" fill="#9747FF"/>
<path d="M1073.6 661.642C1075.46 666.759 1077.6 671.385 1080.34 676.361C1079.48 670.922 1077.11 665.872 1073.6 661.642Z" fill="#9747FF"/>
<path d="M1010.07 702.703C1009.91 704.674 1009.83 706.683 1010.4 708.602C1011.04 710.665 1012.3 712.473 1013.52 714.23C1012.23 710.422 1010.8 706.672 1010.07 702.703Z" fill="#9747FF"/>
</g>
</g>
<mask id="mask17_246_8946" style="mask-type:luminance" maskUnits="userSpaceOnUse" x="1074" y="837" width="36" height="10">
<path d="M1074.48 837.936H1109.35V846.627H1074.48V837.936Z" fill="white"/>
</mask>
<g mask="url(#mask17_246_8946)">
<g opacity="0.240005">
<path d="M1106.7 844.539C1097.37 837.116 1085.24 836.007 1074.48 840.931C1084.98 839.581 1096.26 841.247 1105.34 844.968C1106.67 845.536 1108 846.092 1109.35 846.627C1108.47 845.923 1107.59 845.222 1106.7 844.539Z" fill="#9747FF"/>
</g>
</g>
<mask id="mask18_246_8946" style="mask-type:luminance" maskUnits="userSpaceOnUse" x="1090" y="835" width="16" height="5">
<path d="M1090.46 835.033H1105.92V839.869H1090.46V835.033Z" fill="white"/>
</mask>
<g mask="url(#mask18_246_8946)">
<g opacity="0.240005">
<path d="M1090.46 835.033C1095.52 837.073 1100.39 838.574 1105.93 839.87C1101.31 836.867 1095.96 835.252 1090.46 835.033Z" fill="#9747FF"/>
</g>
</g>
<mask id="mask19_246_8946" style="mask-type:luminance" maskUnits="userSpaceOnUse" x="878" y="689" width="61" height="29">
<path d="M878.07 689.934H938.403V717.129H878.07V689.934Z" fill="white"/>
</mask>
<g mask="url(#mask19_246_8946)">
<g opacity="0.240005">
<path d="M897.501 707.623C890.729 710.137 884.326 713.545 878.07 717.127C891.547 714.092 904.695 709.327 916.673 702.408C910.223 703.915 903.736 705.357 897.501 707.623Z" fill="#9747FF"/>
<path d="M913.223 699.573C917.042 698.966 920.717 697.666 924.026 695.663C920.242 696.391 916.583 697.685 913.223 699.573Z" fill="#9747FF"/>
<path d="M931.325 692.658C933.831 692.188 936.237 691.282 938.402 689.934C935.907 690.438 933.506 691.341 931.325 692.658Z" fill="#9747FF"/>
<path d="M920.499 702.054C923.876 701.333 927.132 700.107 930.1 698.341C926.692 698.963 923.426 700.198 920.499 702.054Z" fill="#9747FF"/>
<path d="M913.092 710.355C908.942 711.875 905.098 714.078 901.138 716.015C910.218 714.508 917.848 711.296 926.343 707.149C921.848 707.829 917.368 708.791 913.092 710.355Z" fill="#9747FF"/>
</g>
</g>
<mask id="mask20_246_8946" style="mask-type:luminance" maskUnits="userSpaceOnUse" x="917" y="835" width="20" height="99">
<path d="M917.496 835.979H936.513V933.556H917.496V835.979Z" fill="white"/>
</mask>
<g mask="url(#mask20_246_8946)">
<g opacity="0.240005">
<path d="M919.393 901.742C918.773 912.415 919.62 923.041 920.8 933.557C924.764 913.341 926.128 892.68 923.787 872.518C921.964 882.221 920.03 891.94 919.393 901.742Z" fill="#9747FF"/>
<path d="M917.752 875.812C919.228 870.217 919.654 864.458 918.88 858.841C917.593 864.451 917.169 870.185 917.752 875.812Z" fill="#9747FF"/>
<path d="M919.135 847.183C920.002 843.473 920.206 839.675 919.648 835.979C918.832 839.692 918.63 843.483 919.135 847.183Z" fill="#9747FF"/>
<path d="M925.616 867.042C926.666 861.999 926.938 856.858 926.289 851.835C925.082 856.871 924.816 862.029 925.616 867.042Z" fill="#9747FF"/>
<path d="M932.651 881.601C932.243 888.131 932.969 894.594 933.256 901.077C936.676 887.736 936.847 875.515 936.242 861.61C934.46 868.18 933.076 874.876 932.651 881.601Z" fill="#9747FF"/>
</g>
</g>
<mask id="mask21_246_8946" style="mask-type:luminance" maskUnits="userSpaceOnUse" x="803" y="907" width="7" height="62">
<path d="M803.58 907.702H809.33V968.741H803.58V907.702Z" fill="white"/>
</mask>
<g mask="url(#mask21_246_8946)">
<g opacity="0.380005">
<path d="M803.789 936.927C803.169 947.599 804.015 958.225 805.195 968.741C809.16 948.525 810.524 927.864 808.183 907.702C806.36 917.406 804.426 927.125 803.789 936.927Z" fill="white"/>
</g>
</g>
<mask id="mask22_246_8946" style="mask-type:luminance" maskUnits="userSpaceOnUse" x="801" y="894" width="3" height="17">
<path d="M801.892 894.026H803.656V910.999H801.892V894.026Z" fill="white"/>
</mask>
<g mask="url(#mask22_246_8946)">
<g opacity="0.380005">
<path d="M802.147 910.998C803.624 905.402 804.05 899.643 803.276 894.026C801.988 899.636 801.565 905.37 802.147 910.998Z" fill="white"/>
</g>
</g>
<mask id="mask23_246_8946" style="mask-type:luminance" maskUnits="userSpaceOnUse" x="803" y="871" width="2" height="12">
<path d="M803.256 871.165H804.356V882.367H803.256V871.165Z" fill="white"/>
</mask>
<g mask="url(#mask23_246_8946)">
<g opacity="0.380005">
<path d="M803.531 882.368C804.398 878.659 804.602 874.861 804.043 871.164C803.228 874.878 803.025 878.668 803.531 882.368Z" fill="white"/>
</g>
</g>
<mask id="mask24_246_8946" style="mask-type:luminance" maskUnits="userSpaceOnUse" x="809" y="887" width="3" height="16">
<path d="M809.555 887.019H811.034V902.227H809.555V887.019Z" fill="white"/>
</mask>
<g mask="url(#mask24_246_8946)">
<g opacity="0.380005">
<path d="M810.012 902.227C811.062 897.183 811.334 892.042 810.685 887.019C809.479 892.055 809.212 897.213 810.012 902.227Z" fill="white"/>
</g>
</g>
<mask id="mask25_246_8946" style="mask-type:luminance" maskUnits="userSpaceOnUse" x="1188" y="1060" width="7" height="62">
<path d="M1188.37 1060.54H1194.13V1121.57H1188.37V1060.54Z" fill="white"/>
</mask>
<g mask="url(#mask25_246_8946)">
<g opacity="0.380005">
<path d="M1188.59 1089.76C1187.97 1100.43 1188.81 1111.06 1189.99 1121.57C1193.96 1101.36 1195.32 1080.7 1192.98 1060.54C1191.16 1070.24 1189.22 1079.96 1188.59 1089.76Z" fill="white"/>
</g>
</g>
<mask id="mask26_246_8946" style="mask-type:luminance" maskUnits="userSpaceOnUse" x="1186" y="1046" width="3" height="18">
<path d="M1186.69 1046.86H1188.46V1063.83H1186.69V1046.86Z" fill="white"/>
</mask>
<g mask="url(#mask26_246_8946)">
<g opacity="0.380005">
<path d="M1186.94 1063.83C1188.42 1058.23 1188.85 1052.48 1188.07 1046.86C1186.79 1052.47 1186.36 1058.2 1186.94 1063.83Z" fill="white"/>
</g>
</g>
<mask id="mask27_246_8946" style="mask-type:luminance" maskUnits="userSpaceOnUse" x="1188" y="1023" width="2" height="13">
<path d="M1188.06 1024H1189.15V1035.2H1188.06V1024Z" fill="white"/>
</mask>
<g mask="url(#mask27_246_8946)">
<g opacity="0.380005">
<path d="M1188.33 1035.2C1189.2 1031.49 1189.4 1027.69 1188.84 1024C1188.02 1027.71 1187.82 1031.5 1188.33 1035.2Z" fill="white"/>
</g>
</g>
<mask id="mask28_246_8946" style="mask-type:luminance" maskUnits="userSpaceOnUse" x="1194" y="1039" width="2" height="17">
<path d="M1194.36 1039.85H1195.83V1055.06H1194.36V1039.85Z" fill="white"/>
</mask>
<g mask="url(#mask28_246_8946)">
<g opacity="0.380005">
<path d="M1194.81 1055.06C1195.86 1050.02 1196.13 1044.88 1195.48 1039.85C1194.28 1044.89 1194.01 1050.05 1194.81 1055.06Z" fill="white"/>
</g>
</g>
<mask id="mask29_246_8946" style="mask-type:luminance" maskUnits="userSpaceOnUse" x="1190" y="772" width="62" height="7">
<path d="M1190.42 772.888H1251.61V778.207H1190.42V772.888Z" fill="white"/>
</mask>
<g mask="url(#mask29_246_8946)">
<g opacity="0.380005">
<path d="M1222.16 772.89C1211.46 772.825 1200.87 774.22 1190.42 775.942C1210.84 778.847 1231.57 779.137 1251.61 775.757C1241.82 774.443 1232 773.017 1222.16 772.89Z" fill="#DAE7EE"/>
</g>
</g>
<mask id="mask30_246_8946" style="mask-type:luminance" maskUnits="userSpaceOnUse" x="1248" y="769" width="18" height="2">
<path d="M1248 769.325H1265.04V770.88H1248V769.325Z" fill="white"/>
</mask>
<g mask="url(#mask30_246_8946)">
<g opacity="0.380005">
<path d="M1248.01 769.909C1253.68 771.091 1259.46 771.218 1265.04 770.155C1259.36 769.161 1253.61 769.036 1248.01 769.909Z" fill="#DAE7EE"/>
</g>
</g>
<mask id="mask31_246_8946" style="mask-type:luminance" maskUnits="userSpaceOnUse" x="1276" y="769" width="12" height="2">
<path d="M1276.71 769.276H1287.93V770.304H1276.71V769.276Z" fill="white"/>
</mask>
<g mask="url(#mask31_246_8946)">
<g opacity="0.380005">
<path d="M1276.71 769.805C1280.46 770.477 1284.27 770.483 1287.94 769.736C1284.18 769.115 1280.38 769.109 1276.71 769.805Z" fill="#DAE7EE"/>
</g>
</g>
<mask id="mask32_246_8946" style="mask-type:luminance" maskUnits="userSpaceOnUse" x="1257" y="776" width="16" height="2">
<path d="M1257.19 776.488H1272.42V777.875H1257.19V776.488Z" fill="white"/>
</mask>
<g mask="url(#mask32_246_8946)">
<g opacity="0.380005">
<path d="M1257.18 777.297C1262.28 778.082 1267.44 778.087 1272.43 777.179C1267.33 776.239 1262.16 776.239 1257.18 777.297Z" fill="#DAE7EE"/>
</g>
</g>
<mask id="mask33_246_8946" style="mask-type:luminance" maskUnits="userSpaceOnUse" x="696" y="837" width="63" height="6">
<path d="M696.942 837.211H758.136V842.53H696.942V837.211Z" fill="white"/>
</mask>
<g mask="url(#mask33_246_8946)">
<g opacity="0.380005">
<path d="M728.684 837.214C717.98 837.149 707.397 838.544 696.942 840.266C717.365 843.171 738.096 843.461 758.136 840.081C748.338 838.766 738.518 837.341 728.684 837.214Z" fill="#DAE7EE"/>
</g>
</g>
<mask id="mask34_246_8946" style="mask-type:luminance" maskUnits="userSpaceOnUse" x="754" y="833" width="18" height="3">
<path d="M754.528 833.649H771.558V835.203H754.528V833.649Z" fill="white"/>
</mask>
<g mask="url(#mask34_246_8946)">
<g opacity="0.380005">
<path d="M754.528 834.233C760.2 835.415 765.981 835.541 771.559 834.478C765.882 833.485 760.126 833.359 754.528 834.233Z" fill="#DAE7EE"/>
</g>
</g>
<mask id="mask35_246_8946" style="mask-type:luminance" maskUnits="userSpaceOnUse" x="783" y="833" width="12" height="2">
<path d="M783.23 833.6H794.46V834.627H783.23V833.6Z" fill="white"/>
</mask>
<g mask="url(#mask35_246_8946)">
<g opacity="0.380005">
<path d="M783.229 834.128C786.983 834.8 790.792 834.806 794.459 834.059C790.703 833.438 786.903 833.432 783.229 834.128Z" fill="#DAE7EE"/>
</g>
</g>
<mask id="mask36_246_8946" style="mask-type:luminance" maskUnits="userSpaceOnUse" x="763" y="840" width="16" height="3">
<path d="M763.707 840.811H778.949V842.198H763.707V840.811Z" fill="white"/>
</mask>
<g mask="url(#mask36_246_8946)">
<g opacity="0.380005">
<path d="M763.706 841.62C768.804 842.405 773.959 842.41 778.949 841.502C773.85 840.562 768.678 840.562 763.706 841.62Z" fill="#DAE7EE"/>
</g>
</g>
<mask id="mask37_246_8946" style="mask-type:luminance" maskUnits="userSpaceOnUse" x="1006" y="1030" width="62" height="7">
<path d="M1006 1030.72H1067.2V1036.04H1006V1030.72Z" fill="white"/>
</mask>
<g mask="url(#mask37_246_8946)">
<g opacity="0.380005">
<path d="M1037.75 1030.73C1027.04 1030.66 1016.46 1032.06 1006 1033.78C1026.43 1036.68 1047.16 1036.97 1067.2 1033.59C1057.4 1032.28 1047.58 1030.85 1037.75 1030.73Z" fill="#DAE7EE"/>
</g>
</g>
<mask id="mask38_246_8946" style="mask-type:luminance" maskUnits="userSpaceOnUse" x="1063" y="1027" width="18" height="2">
<path d="M1063.59 1027.16H1080.62V1028.72H1063.59V1027.16Z" fill="white"/>
</mask>
<g mask="url(#mask38_246_8946)">
<g opacity="0.380005">
<path d="M1063.59 1027.74C1069.26 1028.93 1075.04 1029.05 1080.62 1027.99C1074.94 1027 1069.19 1026.87 1063.59 1027.74Z" fill="#DAE7EE"/>
</g>
</g>
<mask id="mask39_246_8946" style="mask-type:luminance" maskUnits="userSpaceOnUse" x="1072" y="1034" width="17" height="2">
<path d="M1072.77 1034.32H1088.01V1035.71H1072.77V1034.32Z" fill="white"/>
</mask>
<g mask="url(#mask39_246_8946)">
<g opacity="0.380005">
<path d="M1072.77 1035.13C1077.87 1035.92 1083.02 1035.92 1088.01 1035.02C1082.91 1034.07 1077.74 1034.07 1072.77 1035.13Z" fill="#DAE7EE"/>
</g>
</g>
<mask id="mask40_246_8946" style="mask-type:luminance" maskUnits="userSpaceOnUse" x="793" y="1194" width="62" height="6">
<path d="M793.513 1194H854.706V1199.32H793.513V1194Z" fill="white"/>
</mask>
<g mask="url(#mask40_246_8946)">
<g opacity="0.380005">
<path d="M825.254 1194C814.55 1193.94 803.967 1195.33 793.512 1197.06C813.935 1199.96 834.665 1200.25 854.706 1196.87C844.908 1195.56 835.088 1194.13 825.254 1194Z" fill="#DAE7EE"/>
</g>
</g>
<mask id="mask41_246_8946" style="mask-type:luminance" maskUnits="userSpaceOnUse" x="851" y="1190" width="18" height="2">
<path d="M851.098 1190.44H868.129V1191.99H851.098V1190.44Z" fill="white"/>
</mask>
<g mask="url(#mask41_246_8946)">
<g opacity="0.380005">
<path d="M851.098 1191.02C856.77 1192.21 862.551 1192.33 868.129 1191.27C862.452 1190.28 856.696 1190.15 851.098 1191.02Z" fill="#DAE7EE"/>
</g>
</g>
<mask id="mask42_246_8946" style="mask-type:luminance" maskUnits="userSpaceOnUse" x="860" y="1197" width="16" height="2">
<path d="M860.277 1197.6H875.52V1198.99H860.277V1197.6Z" fill="white"/>
</mask>
<g mask="url(#mask42_246_8946)">
<g opacity="0.380005">
<path d="M860.277 1198.41C865.375 1199.2 870.53 1199.2 875.52 1198.29C870.421 1197.35 865.249 1197.35 860.277 1198.41Z" fill="#DAE7EE"/>
</g>
</g>
<mask id="mask43_246_8946" style="mask-type:luminance" maskUnits="userSpaceOnUse" x="1284" y="1193" width="18" height="2">
<path d="M1284.89 1193.19H1301.92V1194.74H1284.89V1193.19Z" fill="white"/>
</mask>
<g mask="url(#mask43_246_8946)">
<g opacity="0.380005">
<path d="M1284.89 1193.77C1290.56 1194.95 1296.34 1195.08 1301.92 1194.02C1296.24 1193.02 1290.49 1192.9 1284.89 1193.77Z" fill="#DAE7EE"/>
</g>
</g>
<mask id="mask44_246_8946" style="mask-type:luminance" maskUnits="userSpaceOnUse" x="1294" y="1200" width="16" height="2">
<path d="M1294.07 1200.35H1309.31V1201.74H1294.07V1200.35Z" fill="white"/>
</mask>
<g mask="url(#mask44_246_8946)">
<g opacity="0.380005">
<path d="M1294.07 1201.16C1299.16 1201.95 1304.32 1201.95 1309.31 1201.04C1304.21 1200.1 1299.04 1200.1 1294.07 1201.16Z" fill="#DAE7EE"/>
</g>
</g>
<path d="M543.379 1124.49C508.636 1112.2 481.886 1079.45 476.815 1042.99L486.449 1041.66C491.034 1074.62 515.217 1104.23 546.626 1115.34L543.379 1124.49Z" fill="#8561B4"/>
<path d="M552.606 1045.71C550.466 1106.7 560.917 1167.59 582.691 1223.45L558.559 1231.64C540.643 1170.78 535.431 1106.86 542.909 1044.96L552.606 1045.71Z" fill="#8561B4"/>
<path d="M620.977 1049.2L619.209 1221.81L598.931 1220.98L611.258 1048.8L620.977 1049.2Z" fill="#8561B4"/>
<path d="M611.044 1115.34L608.109 1111.26C592.032 1088.93 579.276 1064.44 570.196 1038.47L579.379 1035.27C587.585 1058.74 598.899 1080.96 613.041 1101.39C630.455 1086.67 643.24 1066.74 649.274 1044.74L658.656 1047.3C651.617 1072.96 636.123 1096.03 615.027 1112.28L611.044 1115.34Z" fill="#8561B4"/>
<path d="M690.925 1053.34C688.134 1040.1 682.361 1027.55 672.411 1018.57C658.977 1006.45 636.789 1003.07 622.686 1014.41C630.971 992.017 623.359 964.725 604.678 949.835C585.996 934.945 557.661 933.584 537.636 946.616C525.287 954.652 516.444 967.227 510.506 980.699C504.569 994.17 501.292 1008.63 498.049 1022.99C482.849 1021.98 467.375 1029.81 459.206 1042.65C456.888 1046.3 455.356 1049.85 454.419 1053.34H690.925Z" fill="#E0E0E0"/>
<path d="M683.738 1238.42C684.339 1235.72 684.652 1232.95 684.622 1230.18C684.47 1216.17 676.245 1202.71 664.246 1195.45C651.924 1187.99 636.277 1186.97 622.51 1191.21C608.743 1195.46 596.812 1204.62 587.742 1215.8C581.566 1210.86 572.916 1209.2 565.345 1211.48C557.774 1213.76 551.495 1219.93 549.085 1227.45C549.819 1225.16 531.731 1229.41 530.067 1230.34C526.441 1232.37 523.323 1235.14 520.871 1238.42H683.738Z" fill="#E0E0E0"/>
<mask id="mask45_246_8946" style="mask-type:luminance" maskUnits="userSpaceOnUse" x="571" y="1188" width="114" height="51">
<path d="M571.527 1188.73H684.624V1238.42H571.527V1188.73Z" fill="white"/>
</mask>
<g mask="url(#mask45_246_8946)">
<g opacity="0.419998">
<path d="M664.246 1195.45C652.828 1188.54 638.557 1187.16 625.57 1190.38C627.183 1190.3 628.72 1190.17 629.783 1190.25C633.991 1190.57 638.172 1191.3 642.125 1192.82C651.09 1196.25 658.84 1204.82 658.101 1214.39C657.508 1222.03 651.624 1228.5 644.682 1231.78C637.741 1235.07 629.861 1235.69 622.182 1235.86C616.832 1235.98 611.411 1235.89 606.24 1234.51C601.069 1233.13 596.114 1230.34 593.058 1225.95C590.773 1222.67 589.698 1218.77 588.453 1214.95C588.216 1215.23 587.974 1215.51 587.742 1215.8C583.203 1212.17 577.328 1210.32 571.526 1210.49C575.297 1213.19 582.258 1213.92 582.487 1218.6C582.682 1222.56 577.268 1226.04 579.154 1229.52C580.093 1231.25 582.402 1231.72 583.733 1233.18C585.082 1234.66 584.965 1236.68 584.02 1238.42H683.737C684.338 1235.72 684.652 1232.95 684.622 1230.18C684.471 1216.17 676.244 1202.71 664.246 1195.45Z" fill="#E0E0E0"/>
</g>
</g>
<mask id="mask46_246_8946" style="mask-type:luminance" maskUnits="userSpaceOnUse" x="543" y="1235" width="24" height="4">
<path d="M543.576 1235.04H566.776V1238.42H543.576V1235.04Z" fill="white"/>
</mask>
<g mask="url(#mask46_246_8946)">
<g opacity="0.419998">
<path d="M543.577 1238.42H566.776C561.081 1235.84 554.726 1234.03 548.733 1235.67C546.859 1236.18 545.091 1237.15 543.577 1238.42Z" fill="#E0E0E0"/>
</g>
</g>
<mask id="mask47_246_8946" style="mask-type:luminance" maskUnits="userSpaceOnUse" x="569" y="937" width="122" height="117">
<path d="M569.296 937.69H690.925V1053.34H569.296V937.69Z" fill="white"/>
</mask>
<g mask="url(#mask47_246_8946)">
<g opacity="0.419998">
<path d="M617.655 1046.37C616.073 1048.34 615.624 1050.78 615.414 1053.34H690.925C688.135 1040.1 682.361 1027.55 672.411 1018.57C658.977 1006.45 636.789 1003.07 622.686 1014.41C630.97 992.016 623.359 964.724 604.678 949.834C594.72 941.898 582.019 937.807 569.296 937.689C572.288 939.331 575.199 940.884 576.198 941.785C580.903 946.027 584.688 951.31 587.019 957.208C592.32 970.617 589.972 986.751 581.07 998.099C578.321 1001.6 574.767 1005.7 576.262 1009.9C578.071 1014.97 585.077 1014.94 590.466 1014.86C598.64 1014.73 606.69 1016.67 614.635 1018.59C618.81 1019.6 622.985 1020.62 627.161 1021.63C630.919 1022.54 634.808 1023.51 637.838 1025.91C640.868 1028.31 642.786 1032.57 641.284 1036.13C637.808 1044.37 623.244 1039.38 617.655 1046.37Z" fill="#E0E0E0"/>
</g>
</g>
<mask id="mask48_246_8946" style="mask-type:luminance" maskUnits="userSpaceOnUse" x="472" y="1042" width="34" height="12">
<path d="M472.719 1042.28H505.04V1053.34H472.719V1042.28Z" fill="white"/>
</mask>
<g mask="url(#mask48_246_8946)">
<g opacity="0.419998">
<path d="M505.04 1053.34C503.043 1051.23 501.011 1049.17 498.736 1047.37C494.095 1043.7 487.976 1041.18 482.271 1042.76C477.302 1044.12 474.042 1048.36 472.718 1053.34H505.04Z" fill="#E0E0E0"/>
</g>
</g>
<mask id="mask49_246_8946" style="mask-type:luminance" maskUnits="userSpaceOnUse" x="528" y="943" width="57" height="31">
<path d="M528.374 943.522H584.312V973.226H528.374V943.522Z" fill="white"/>
</mask>
<g mask="url(#mask49_246_8946)">
<g opacity="0.419998">
<path d="M581.351 969.862C580.641 957.968 573.359 948.222 562.497 943.522C570.522 950.416 576.823 959.907 580.12 969.136C580.588 970.504 581.068 971.869 581.568 973.225C581.507 972.103 581.439 970.981 581.351 969.862Z" fill="#E0E0E0"/>
<path d="M577.574 951.447C579.434 956.563 581.579 961.19 584.312 966.166C583.458 960.727 581.087 955.676 577.574 951.447Z" fill="#E0E0E0"/>
<path d="M528.374 972.052C530.168 971.215 531.955 970.291 533.349 968.856C534.827 967.278 535.779 965.292 536.703 963.36C534.026 966.363 531.467 969.456 528.374 972.052Z" fill="#E0E0E0"/>
</g>
</g>
<mask id="mask50_246_8946" style="mask-type:luminance" maskUnits="userSpaceOnUse" x="571" y="1192" width="84" height="43">
<path d="M571.295 1192.26H654.404V1234.37H571.295V1192.26Z" fill="white"/>
</mask>
<g mask="url(#mask50_246_8946)">
<g opacity="0.419998">
<path d="M651.443 1218.6C650.732 1206.71 643.45 1196.96 632.588 1192.26C640.613 1199.16 646.914 1208.65 650.211 1217.88C650.679 1219.24 651.16 1220.61 651.659 1221.97C651.598 1220.84 651.53 1219.72 651.443 1218.6Z" fill="#E0E0E0"/>
<path d="M647.665 1200.19C649.525 1205.3 651.67 1209.93 654.403 1214.91C653.55 1209.47 651.179 1204.42 647.665 1200.19Z" fill="#E0E0E0"/>
<path d="M595.675 1223.85C596.53 1225.64 597.47 1227.41 598.92 1228.79C600.514 1230.25 602.511 1231.19 604.454 1232.09C601.423 1229.45 598.302 1226.92 595.675 1223.85Z" fill="#E0E0E0"/>
<path d="M579.45 1221.29C578.728 1219.45 577.92 1217.61 576.574 1216.13C575.091 1214.56 573.168 1213.48 571.296 1212.44C574.125 1215.29 577.053 1218.04 579.45 1221.29Z" fill="#E0E0E0"/>
<path d="M572.687 1226.13C573.542 1227.92 574.483 1229.69 575.932 1231.07C577.527 1232.53 579.523 1233.47 581.467 1234.37C578.436 1231.73 575.315 1229.2 572.687 1226.13Z" fill="#E0E0E0"/>
</g>
</g>
<mask id="mask51_246_8946" style="mask-type:luminance" maskUnits="userSpaceOnUse" x="502" y="1018" width="57" height="32">
<path d="M502.729 1019H558.887V1049.58H502.729V1019Z" fill="white"/>
</mask>
<g mask="url(#mask51_246_8946)">
<g opacity="0.419998">
<path d="M505.865 1022.37C506.001 1034.28 512.802 1044.36 523.426 1049.58C515.743 1042.31 509.909 1032.53 507.061 1023.15C506.658 1021.76 506.245 1020.37 505.811 1019C505.819 1020.12 505.831 1021.24 505.865 1022.37Z" fill="#E0E0E0"/>
<path d="M508.749 1040.94C507.138 1035.74 505.22 1031.02 502.729 1025.91C503.319 1031.39 505.444 1036.55 508.749 1040.94Z" fill="#E0E0E0"/>
<path d="M558.887 1022.73C557.056 1023.48 555.224 1024.31 553.763 1025.68C552.211 1027.19 551.164 1029.12 550.149 1031.01C552.966 1028.14 555.672 1025.17 558.887 1022.73Z" fill="#E0E0E0"/>
</g>
</g>
<path d="M1510.53 1093.73C1538.65 1083.78 1560.3 1057.28 1564.4 1027.77L1556.61 1026.69C1552.9 1053.36 1533.32 1077.33 1507.9 1086.32L1510.53 1093.73Z" fill="#8561B4"/>
<path d="M1503.35 1045.71C1505.49 1106.7 1495.04 1167.59 1473.27 1223.45L1497.4 1231.64C1515.31 1170.78 1520.53 1106.86 1513.05 1044.96L1503.35 1045.71Z" fill="#8561B4"/>
<path d="M1435 1049.21L1445.83 1225.39L1466.07 1224.55L1444.7 1048.8L1435 1049.21Z" fill="#8561B4"/>
<path d="M1443.48 1093.95L1446.42 1089.88C1462.5 1067.54 1475.25 1043.05 1484.33 1017.08L1475.15 1013.88C1466.94 1037.35 1455.63 1059.57 1441.49 1080C1424.07 1065.28 1411.29 1045.35 1405.25 1023.35L1395.87 1025.91C1402.91 1051.57 1418.41 1074.64 1439.5 1090.89L1443.48 1093.95Z" fill="#8561B4"/>
<path d="M1372.22 1238.42C1371.62 1235.72 1371.31 1232.95 1371.34 1230.18C1371.49 1216.17 1379.71 1202.71 1391.71 1195.45C1404.03 1187.99 1419.68 1186.97 1433.45 1191.21C1447.21 1195.46 1459.14 1204.62 1468.21 1215.8C1474.39 1210.86 1483.04 1209.2 1490.61 1211.48C1498.18 1213.76 1504.46 1219.93 1506.87 1227.45C1506.14 1225.16 1524.23 1229.41 1525.89 1230.34C1529.52 1232.37 1532.63 1235.14 1535.09 1238.42H1372.22Z" fill="#E0E0E0"/>
<mask id="mask52_246_8946" style="mask-type:luminance" maskUnits="userSpaceOnUse" x="1371" y="1188" width="114" height="51">
<path d="M1371.33 1188.73H1484.43V1238.42H1371.33V1188.73Z" fill="white"/>
</mask>
<g mask="url(#mask52_246_8946)">
<g opacity="0.419998">
<path d="M1391.71 1195.45C1403.13 1188.54 1417.4 1187.16 1430.39 1190.38C1428.77 1190.3 1427.24 1190.17 1426.17 1190.25C1421.97 1190.57 1417.78 1191.3 1413.83 1192.82C1404.87 1196.25 1397.12 1204.83 1397.86 1214.39C1398.45 1222.04 1404.33 1228.5 1411.27 1231.79C1418.22 1235.07 1426.09 1235.69 1433.77 1235.86C1439.12 1235.98 1444.55 1235.89 1449.72 1234.51C1454.89 1233.13 1459.84 1230.34 1462.9 1225.95C1465.18 1222.67 1466.26 1218.77 1467.5 1214.95C1467.74 1215.23 1467.98 1215.51 1468.21 1215.8C1472.75 1212.17 1478.63 1210.32 1484.43 1210.49C1480.66 1213.19 1473.7 1213.92 1473.47 1218.6C1473.27 1222.56 1478.69 1226.04 1476.8 1229.52C1475.86 1231.25 1473.55 1231.72 1472.22 1233.18C1470.87 1234.66 1470.99 1236.68 1471.94 1238.42H1372.22C1371.62 1235.72 1371.3 1232.95 1371.33 1230.18C1371.49 1216.17 1379.71 1202.71 1391.71 1195.45Z" fill="#E0E0E0"/>
</g>
</g>
<mask id="mask53_246_8946" style="mask-type:luminance" maskUnits="userSpaceOnUse" x="1489" y="1235" width="24" height="4">
<path d="M1489.18 1235.04H1512.38V1238.42H1489.18V1235.04Z" fill="white"/>
</mask>
<g mask="url(#mask53_246_8946)">
<g opacity="0.419998">
<path d="M1512.38 1238.42H1489.18C1494.88 1235.84 1501.23 1234.03 1507.22 1235.67C1509.1 1236.18 1510.87 1237.15 1512.38 1238.42Z" fill="#E0E0E0"/>
</g>
</g>
<mask id="mask54_246_8946" style="mask-type:luminance" maskUnits="userSpaceOnUse" x="1401" y="1192" width="84" height="43">
<path d="M1401.56 1192.26H1484.66V1234.37H1401.56V1192.26Z" fill="white"/>
</mask>
<g mask="url(#mask54_246_8946)">
<g opacity="0.419998">
<path d="M1404.51 1218.6C1405.22 1206.71 1412.51 1196.96 1423.37 1192.26C1415.34 1199.16 1409.04 1208.65 1405.75 1217.88C1405.28 1219.24 1404.8 1220.61 1404.3 1221.97C1404.36 1220.84 1404.43 1219.72 1404.51 1218.6Z" fill="#E0E0E0"/>
<path d="M1408.29 1200.19C1406.43 1205.3 1404.29 1209.93 1401.55 1214.91C1402.41 1209.47 1404.78 1204.42 1408.29 1200.19Z" fill="#E0E0E0"/>
<path d="M1460.28 1223.85C1459.43 1225.64 1458.49 1227.41 1457.04 1228.79C1455.44 1230.25 1453.45 1231.19 1451.5 1232.09C1454.53 1229.45 1457.65 1226.92 1460.28 1223.85Z" fill="#E0E0E0"/>
<path d="M1476.51 1221.29C1477.23 1219.45 1478.04 1217.61 1479.38 1216.13C1480.87 1214.56 1482.79 1213.48 1484.66 1212.44C1481.83 1215.29 1478.9 1218.04 1476.51 1221.29Z" fill="#E0E0E0"/>
<path d="M1483.27 1226.13C1482.41 1227.91 1481.47 1229.69 1480.02 1231.07C1478.43 1232.53 1476.43 1233.46 1474.49 1234.37C1477.52 1231.72 1480.64 1229.2 1483.27 1226.13Z" fill="#E0E0E0"/>
</g>
</g>
<path d="M1365.03 1053.14C1367.82 1036.34 1373.6 1020.41 1383.55 1009.01C1396.98 993.633 1419.17 989.346 1433.27 1003.73C1424.99 975.321 1432.6 940.688 1451.28 921.793C1469.96 902.897 1498.3 901.172 1518.32 917.708C1530.67 927.905 1539.51 943.863 1545.45 960.957C1551.39 978.053 1554.66 996.405 1557.91 1014.63C1573.11 1013.34 1588.58 1023.28 1596.75 1039.58C1599.07 1044.2 1600.6 1048.7 1601.54 1053.14H1365.03Z" fill="#E0E0E0"/>
<mask id="mask55_246_8946" style="mask-type:luminance" maskUnits="userSpaceOnUse" x="1365" y="906" width="122" height="149">
<path d="M1365.43 906.274H1486.27V1054.08H1365.43V906.274Z" fill="white"/>
</mask>
<g mask="url(#mask55_246_8946)">
<g opacity="0.419998">
<path d="M1438.65 1044.6C1440.25 1047.1 1440.71 1050.19 1440.94 1053.43L1365.43 1054.08C1368.13 1037.26 1373.82 1021.28 1383.71 1009.8C1397.06 994.301 1419.22 989.823 1433.4 1004.09C1424.96 975.747 1432.39 941.05 1450.97 921.993C1460.87 911.835 1473.54 906.533 1486.26 906.274C1483.28 908.384 1480.38 910.379 1479.39 911.531C1474.71 916.956 1470.97 923.692 1468.67 931.198C1463.47 948.257 1465.92 968.712 1474.9 983.033C1477.68 987.457 1481.26 992.63 1479.79 997.965C1478.02 1004.42 1471.01 1004.44 1465.62 1004.38C1457.45 1004.29 1449.41 1006.82 1441.48 1009.33C1437.31 1010.65 1433.14 1011.97 1428.98 1013.29C1425.22 1014.48 1421.34 1015.75 1418.33 1018.82C1415.31 1021.89 1413.43 1027.32 1414.95 1031.82C1418.48 1042.25 1433.01 1035.78 1438.65 1044.6Z" fill="#E0E0E0"/>
</g>
</g>
<mask id="mask56_246_8946" style="mask-type:luminance" maskUnits="userSpaceOnUse" x="1551" y="1038" width="33" height="15">
<path d="M1551.31 1038.27H1583.64V1052.47H1551.31V1038.27Z" fill="white"/>
</mask>
<g mask="url(#mask56_246_8946)">
<g opacity="0.419998">
<path d="M1551.31 1052.47C1553.29 1049.78 1555.31 1047.14 1557.57 1044.84C1562.19 1040.14 1568.29 1036.9 1574.01 1038.84C1578.99 1040.54 1582.27 1045.89 1583.63 1052.19L1551.31 1052.47Z" fill="#E0E0E0"/>
</g>
</g>
<mask id="mask57_246_8946" style="mask-type:luminance" maskUnits="userSpaceOnUse" x="1471" y="913" width="57" height="39">
<path d="M1471.64 913.783H1527.58V951.476H1471.64V913.783Z" fill="white"/>
</mask>
<g mask="url(#mask57_246_8946)">
<g opacity="0.419998">
<path d="M1474.61 947.208C1475.32 932.116 1482.6 919.747 1493.46 913.783C1485.43 922.531 1479.13 934.575 1475.84 946.288C1475.37 948.023 1474.89 949.754 1474.39 951.475C1474.45 950.053 1474.52 948.629 1474.61 947.208Z" fill="#E0E0E0"/>
<path d="M1478.38 923.84C1476.52 930.333 1474.38 936.204 1471.65 942.518C1472.5 935.616 1474.87 929.207 1478.38 923.84Z" fill="#E0E0E0"/>
<path d="M1527.58 949.986C1525.79 948.924 1524 947.753 1522.61 945.93C1521.13 943.928 1520.18 941.409 1519.25 938.957C1521.93 942.766 1524.49 946.691 1527.58 949.986Z" fill="#E0E0E0"/>
</g>
</g>
<mask id="mask58_246_8946" style="mask-type:luminance" maskUnits="userSpaceOnUse" x="1497" y="1009" width="57" height="40">
<path d="M1497.07 1009.56H1553.23V1048.37H1497.07V1009.56Z" fill="white"/>
</mask>
<g mask="url(#mask58_246_8946)">
<g opacity="0.419998">
<path d="M1550.09 1013.83C1549.96 1028.95 1543.15 1041.75 1532.53 1048.37C1540.21 1039.14 1546.05 1026.73 1548.9 1014.83C1549.3 1013.07 1549.71 1011.31 1550.15 1009.56C1550.14 1010.98 1550.12 1012.41 1550.09 1013.83Z" fill="#E0E0E0"/>
<path d="M1547.21 1037.41C1548.82 1030.81 1550.74 1024.81 1553.23 1018.34C1552.64 1025.28 1550.51 1031.83 1547.21 1037.41Z" fill="#E0E0E0"/>
<path d="M1497.07 1014.3C1498.9 1015.25 1500.73 1016.31 1502.19 1018.04C1503.75 1019.95 1504.79 1022.41 1505.81 1024.8C1502.99 1021.16 1500.28 1017.4 1497.07 1014.3Z" fill="#E0E0E0"/>
</g>
</g>
<path d="M1802.35 590.04C1804.13 597.179 1809.75 602.799 1816.9 604.575C1817.53 604.731 1817.53 605.598 1816.9 605.754C1809.75 607.531 1804.13 613.15 1802.35 620.29C1802.19 620.918 1801.32 620.918 1801.17 620.29C1799.39 613.15 1793.76 607.531 1786.61 605.754C1785.98 605.598 1785.98 604.731 1786.61 604.575C1793.76 602.799 1799.39 597.179 1801.17 590.04C1801.32 589.411 1802.19 589.411 1802.35 590.04Z" fill="white"/>
<path d="M2001.01 0.471636C2002.79 7.61115 2008.42 13.2306 2015.57 15.0068C2016.2 15.1631 2016.2 16.0302 2015.57 16.1865C2008.42 17.9627 2002.79 23.5822 2001.01 30.7217C2000.86 31.3506 1999.99 31.3506 1999.83 30.7217C1998.05 23.5822 1992.42 17.9627 1985.28 16.1865C1984.65 16.0302 1984.65 15.1631 1985.28 15.0068C1992.42 13.2306 1998.05 7.61115 1999.83 0.471636C1999.99 -0.157295 2000.86 -0.157295 2001.01 0.471636Z" fill="white"/>
<path d="M16.2083 228.405C17.9868 235.545 23.6139 241.164 30.763 242.94C31.3928 243.097 31.3928 243.964 30.763 244.12C23.6139 245.896 17.9868 251.516 16.2083 258.655C16.0518 259.284 15.1836 259.284 15.027 258.655C13.2485 251.516 7.62143 245.896 0.472332 244.12C-0.157444 243.964 -0.157444 243.097 0.472332 242.94C7.62143 241.164 13.2485 235.545 15.027 228.405C15.1836 227.776 16.0518 227.776 16.2083 228.405Z" fill="white"/>
<path d="M447.584 101.153C449.856 110.272 457.044 117.45 466.174 119.718C466.978 119.917 466.978 121.025 466.174 121.224C457.044 123.492 449.856 130.672 447.584 139.789C447.384 140.593 446.277 140.593 446.075 139.789C443.804 130.672 436.617 123.492 427.486 121.224C426.681 121.025 426.681 119.917 427.486 119.718C436.617 117.45 443.804 110.272 446.075 101.153C446.277 100.349 447.384 100.349 447.584 101.153Z" fill="white"/>
<path d="M518.128 800.412C519.533 806.052 523.979 810.49 529.625 811.894C530.123 812.018 530.123 812.702 529.625 812.826C523.979 814.228 519.533 818.668 518.128 824.308C518.004 824.804 517.319 824.804 517.195 824.308C515.791 818.668 511.345 814.228 505.697 812.826C505.2 812.702 505.2 812.018 505.697 811.894C511.345 810.49 515.791 806.052 517.195 800.412C517.319 799.915 518.004 799.915 518.128 800.412Z" fill="white"/>
<path d="M1662.57 73.2322C1663.98 78.8722 1668.42 83.3108 1674.07 84.7141C1674.57 84.838 1674.57 85.5222 1674.07 85.6461C1668.42 87.0483 1663.98 91.4881 1662.57 97.128C1662.45 97.6247 1661.76 97.6247 1661.64 97.128C1660.23 91.4881 1655.79 87.0483 1650.14 85.6461C1649.64 85.5222 1649.64 84.838 1650.14 84.7141C1655.79 83.3108 1660.23 78.8722 1661.64 73.2322C1661.76 72.7356 1662.45 72.7356 1662.57 73.2322Z" fill="white"/>
<path d="M262.976 656.121C262.976 650.21 258.179 645.419 252.26 645.419C246.343 645.419 241.546 650.21 241.546 656.121C241.546 662.031 246.343 666.822 252.26 666.822C258.179 666.822 262.976 662.031 262.976 656.121Z" stroke="white" stroke-width="1.33333" stroke-miterlimit="10"/>
<path d="M1891.7 1129.1C1891.7 1123.19 1886.9 1118.4 1880.98 1118.4C1875.07 1118.4 1870.27 1123.19 1870.27 1129.1C1870.27 1135.01 1875.07 1139.8 1880.98 1139.8C1886.9 1139.8 1891.7 1135.01 1891.7 1129.1Z" stroke="white" stroke-width="2.66667" stroke-miterlimit="10"/>
<path d="M1240.28 113.196C1240.28 107.285 1235.48 102.495 1229.56 102.495C1223.65 102.495 1218.85 107.285 1218.85 113.196C1218.85 119.105 1223.65 123.896 1229.56 123.896C1235.48 123.896 1240.28 119.105 1240.28 113.196Z" stroke="white" stroke-width="2.66667" stroke-miterlimit="10"/>
<path d="M201.175 926.559C201.175 920.649 196.377 915.858 190.459 915.858C184.542 915.858 179.744 920.649 179.744 926.559C179.744 932.47 184.542 937.261 190.459 937.261C196.377 937.261 201.175 932.47 201.175 926.559Z" stroke="white" stroke-width="2.66667" stroke-miterlimit="10"/>
<path d="M367.056 1122.6C367.056 1116.69 362.258 1111.9 356.34 1111.9C350.423 1111.9 345.625 1116.69 345.625 1122.6C345.625 1128.51 350.423 1133.31 356.34 1133.31C362.258 1133.31 367.056 1128.51 367.056 1122.6Z" stroke="white" stroke-width="2.66667" stroke-miterlimit="10"/>
<path d="M2061 371.476C2061 365.566 2056.2 360.775 2050.28 360.775C2044.37 360.775 2039.57 365.566 2039.57 371.476C2039.57 377.386 2044.37 382.178 2050.28 382.178C2056.2 382.178 2061 377.386 2061 371.476Z" stroke="white" stroke-width="2.66667" stroke-miterlimit="10"/>
<path d="M699.005 652.08C702.62 654.046 706.035 656.431 709.185 659.201C731.285 649.675 747.754 646.643 751.576 652.634C755.458 658.719 745.39 672.672 726.868 688.969C715.471 698.997 700.879 709.91 684.345 720.429C667.812 730.946 651.742 739.542 637.824 745.621C615.206 755.499 598.289 758.713 594.408 752.628C590.585 746.636 600.296 733.011 618.282 717.035C617.099 713.013 616.379 708.915 616.121 704.811C571.595 738.176 544.187 768.935 551.286 780.063C558.471 791.326 598.856 779.082 648.784 752.209C661.816 745.195 675.486 737.201 689.398 728.349C703.31 719.498 716.344 710.503 728.215 701.673C773.704 667.84 801.884 636.464 794.698 625.201C787.599 614.072 748.102 625.88 699.005 652.08Z" fill="#9747FF"/>
<path d="M673.277 738.262C664.941 743.243 656.735 747.929 648.784 752.209C651.541 753.464 654.397 754.471 657.31 755.268C663.444 750.447 668.833 744.685 673.277 738.262Z" fill="#E0E0E0"/>
<path d="M681.749 668.531C678.185 659.166 672.432 652.554 666.709 645.49C658.173 646.308 649.699 649.088 641.971 654.005C624.125 665.36 614.888 685.114 616.122 704.812C616.378 708.915 617.098 713.013 618.282 717.036C619.737 721.978 621.887 726.805 624.798 731.369C628.389 736.998 632.822 741.765 637.824 745.621C651.059 739.841 666.247 731.762 681.923 721.941C683.991 716.567 685.478 710.975 686.232 705.257C687.86 692.89 686.177 680.172 681.749 668.531Z" fill="#E0E0E0"/>
<path d="M702.265 748.518C718.914 737.925 728.062 720.022 728.215 701.673C716.344 710.503 703.31 719.497 689.398 728.349C683.973 731.799 678.604 735.079 673.277 738.262C668.833 744.685 663.445 750.447 657.31 755.267C672.049 759.297 688.361 757.364 702.265 748.518Z" fill="#E0E0E0"/>
<path d="M726.868 688.97C725.482 682.813 723.029 676.785 719.439 671.156C716.528 666.593 713.057 662.606 709.185 659.202C706.035 656.43 702.62 654.046 699.005 652.08C689.164 646.727 677.884 644.42 666.708 645.49C672.432 652.554 678.185 659.166 681.748 668.531C686.177 680.172 687.861 692.89 686.232 705.257C685.479 710.975 683.991 716.567 681.923 721.941C682.731 721.433 683.534 720.944 684.346 720.428C700.878 709.911 715.471 698.998 726.868 688.97Z" fill="#E0E0E0"/>
<path d="M675.971 671.645C674.254 663.964 669.486 657.336 663.783 652.05C669.787 663.087 672.695 670.136 676.741 681.537C678.205 686.376 676.589 673.359 675.971 671.645Z" fill="#E0E0E0"/>
<path d="M680.192 678.308C680.897 683.137 680.99 688.775 682.219 693.171C682.789 688.162 682.649 682.838 680.192 678.308Z" fill="#E0E0E0"/>
<path d="M673.293 683.523C673.595 689.241 673.63 695.893 674.522 701.119C675.783 695.265 675.678 689.083 673.293 683.523Z" fill="#E0E0E0"/>
<path d="M678.305 706.695C678.647 705.585 678.778 704.421 678.701 703.263C678.366 704.35 678.212 705.63 678.305 706.695Z" fill="#E0E0E0"/>
<path d="M621.775 709.652C623.677 697.119 624.897 684.193 630.217 672.535C620.687 682.195 619.051 697.378 621.775 709.652Z" fill="#E0E0E0"/>
<path d="M627.979 707.359C627.615 709.91 627.757 712.744 628.419 715.118C628.694 712.525 628.551 709.904 627.979 707.359Z" fill="#E0E0E0"/>
<path d="M623.317 713.505C622.872 719.358 626.163 725.25 629.236 729.627C627.913 724.009 624.937 719.01 623.317 713.505Z" fill="#E0E0E0"/>
<mask id="mask59_246_8946" style="mask-type:luminance" maskUnits="userSpaceOnUse" x="738" y="641" width="23" height="30">
<path d="M738.636 641.769H760.312V670.172H738.636V641.769Z" fill="white"/>
</mask>
<g mask="url(#mask59_246_8946)">
<g opacity="0.330002">
<path d="M759.366 648.437C755.417 641.528 745.504 640.451 738.636 643.1C741.19 642.769 743.511 643.311 745.988 643.926C749.168 644.685 752.337 645.963 754.453 648.247C758.221 651.993 755.97 657.623 755.145 662.129C754.564 664.769 753.734 667.73 753.154 670.173C754.345 668.33 755.467 666.44 756.476 664.491C758.777 659.641 761.907 653.757 759.366 648.437Z" fill="#9747FF"/>
</g>
</g>
<mask id="mask60_246_8946" style="mask-type:luminance" maskUnits="userSpaceOnUse" x="758" y="653" width="9" height="17">
<path d="M758.548 653.068H766.233V669.05H758.548V653.068Z" fill="white"/>
</mask>
<g mask="url(#mask60_246_8946)">
<g opacity="0.330002">
<path d="M758.548 669.05C762.328 664.553 766.195 659.164 766.233 653.068C764.163 658.508 760.321 663.712 758.548 669.05Z" fill="#9747FF"/>
</g>
</g>
<mask id="mask61_246_8946" style="mask-type:luminance" maskUnits="userSpaceOnUse" x="740" y="674" width="10" height="12">
<path d="M740.172 674.471H749.205V685.467H740.172V674.471Z" fill="white"/>
</mask>
<g mask="url(#mask61_246_8946)">
<g opacity="0.330002">
<path d="M740.172 685.467C743.89 682.448 747 678.725 749.205 674.471C745.745 677.587 742.271 681.673 740.172 685.467Z" fill="#9747FF"/>
</g>
</g>
<mask id="mask62_246_8946" style="mask-type:luminance" maskUnits="userSpaceOnUse" x="588" y="725" width="12" height="36">
<path d="M588.682 725.78H599.476V760.791H588.682V725.78Z" fill="white"/>
</mask>
<g mask="url(#mask62_246_8946)">
<g opacity="0.330002">
<path d="M589.977 758.986C590.919 762.903 590.467 759.509 590.737 757.58C591.42 746.527 593.451 735.273 599.476 725.78C589.341 734.05 586.779 746.706 589.977 758.986Z" fill="#9747FF"/>
</g>
</g>
<mask id="mask63_246_8946" style="mask-type:luminance" maskUnits="userSpaceOnUse" x="581" y="745" width="4" height="21">
<path d="M581.059 745.717H584.226V765.311H581.059V745.717Z" fill="white"/>
</mask>
<g mask="url(#mask63_246_8946)">
<g opacity="0.330002">
<path d="M584.17 764.87C583.147 759.058 581.96 751.706 583.77 745.717C580.504 749.997 580.443 756.349 582.239 761.272C582.52 762.209 584.59 766.719 584.17 764.87Z" fill="#9747FF"/>
</g>
</g>
<mask id="mask64_246_8946" style="mask-type:luminance" maskUnits="userSpaceOnUse" x="592" y="757" width="25" height="8">
<path d="M592.87 757.843H616.256V764.579H592.87V757.843Z" fill="white"/>
</mask>
<g mask="url(#mask64_246_8946)">
<g opacity="0.330002">
<path d="M603.061 761.469C599.795 762.604 596.398 764.102 592.871 763.749C600.701 766.64 610.151 761.327 616.256 757.843C611.798 758.807 607.35 759.905 603.061 761.469Z" fill="#9747FF"/>
</g>
</g>
<path d="M691.689 684.692C691.17 691.599 690.033 698.481 690.28 705.447C692.506 698.856 693.656 691.478 691.689 684.692Z" fill="#E0E0E0"/>
<path d="M686.203 666.764C686.475 669.443 686.913 672.154 687.912 674.793C687.913 672.032 687.438 669.253 686.203 666.764Z" fill="#E0E0E0"/>
<path d="M1256.7 615.054C1257.01 615.704 1257.82 616.001 1258.6 615.746C1300.73 602.151 1339.85 579.432 1373.22 548.891C1381.18 539.479 1380.15 526.486 1371.72 520.486C1363.27 514.467 1351.4 516.592 1344.53 524.701C1323.39 558.647 1294.17 589.289 1257.37 613.151C1256.68 613.596 1256.4 614.403 1256.7 615.054Z" fill="#E0E0E0"/>
<path d="M1346.65 529.266C1351.99 523.053 1361.08 521.588 1367.34 526.311C1373.59 531.022 1374.18 540.763 1368.21 547.717C1362.24 554.676 1352.5 555.606 1346.88 550.156C1341.25 544.698 1341.32 535.492 1346.65 529.266Z" fill="#FBE9DD"/>
<mask id="mask65_246_8946" style="mask-type:luminance" maskUnits="userSpaceOnUse" x="1275" y="587" width="33" height="19">
<path d="M1275.32 587.184H1307.17V605.682H1275.32V587.184Z" fill="white"/>
</mask>
<g mask="url(#mask65_246_8946)">
<g opacity="0.389999">
<path d="M1306.46 587.807C1297.43 595.805 1286.94 602.254 1275.32 605.682C1283.16 600.097 1291.07 594.516 1299.86 590.49C1302.25 589.347 1304.81 588.176 1307.17 587.183C1306.93 587.392 1306.7 587.6 1306.46 587.807Z" fill="#E0E0E0"/>
</g>
</g>
<mask id="mask66_246_8946" style="mask-type:luminance" maskUnits="userSpaceOnUse" x="1309" y="579" width="17" height="12">
<path d="M1309.69 579.943H1325.65V590.393H1309.69V579.943Z" fill="white"/>
</mask>
<g mask="url(#mask66_246_8946)">
<g opacity="0.389999">
<path d="M1309.68 590.394C1314.21 586.207 1320.48 581.964 1325.64 579.944C1321.02 584.399 1315.63 587.962 1309.68 590.394Z" fill="#E0E0E0"/>
</g>
</g>
<mask id="mask67_246_8946" style="mask-type:luminance" maskUnits="userSpaceOnUse" x="1314" y="574" width="13" height="10">
<path d="M1314.33 574.305H1326.19V583.027H1314.33V574.305Z" fill="white"/>
</mask>
<g mask="url(#mask67_246_8946)">
<g opacity="0.389999">
<path d="M1314.33 583.027C1317.73 579.85 1322.58 575.82 1326.19 574.305C1322.84 577.93 1318.92 581.122 1314.33 583.027Z" fill="#E0E0E0"/>
</g>
</g>
<mask id="mask68_246_8946" style="mask-type:luminance" maskUnits="userSpaceOnUse" x="1306" y="576" width="7" height="6">
<path d="M1306.46 576.914H1312.48V581.945H1306.46V576.914Z" fill="white"/>
</mask>
<g mask="url(#mask68_246_8946)">
<g opacity="0.389999">
<path d="M1306.46 581.945C1308.15 579.967 1310.29 578.149 1312.48 576.914C1310.81 578.959 1308.77 580.67 1306.46 581.945Z" fill="#E0E0E0"/>
</g>
</g>
<path d="M1457.12 566.068C1457.83 566.705 1459.07 566.642 1460.03 565.913C1511.37 526.85 1551.38 472.342 1571.07 407.672C1574.33 389.527 1563.55 373.907 1549.3 373.325C1534.99 372.723 1522.73 384.803 1519.99 399.854C1517.8 457.294 1496.48 514.611 1457.16 563.383C1456.43 564.291 1456.4 565.43 1457.12 566.068Z" fill="#9747FF"/>
<path d="M1525.66 403.834C1527.9 392.204 1537.56 383.243 1548.34 384.096C1559.1 384.938 1566.78 396.735 1564.21 410.126C1561.65 423.523 1550.12 431.982 1539.71 429.38C1529.25 426.772 1523.45 415.476 1525.66 403.834Z" fill="white"/>
<path d="M1541.26 416.614C1547.19 411.922 1552.33 406.397 1556.03 400.022C1550.42 404.591 1544.21 411.151 1541.26 416.614Z" fill="#DDFAFB"/>
<path d="M1545.5 417.329C1548.41 414.843 1551.04 411.989 1553.31 408.95C1550.02 411.038 1547.15 414.158 1545.5 417.329Z" fill="#DDFAFB"/>
<path d="M1547.77 419.538C1549.74 417.897 1551.47 416.004 1552.69 413.82C1550.78 415.402 1548.91 417.432 1547.77 419.538Z" fill="#DDFAFB"/>
<path d="M1547.49 423.859C1549.86 421.863 1551.82 419.499 1553.3 416.871C1550.95 418.821 1548.82 421.347 1547.49 423.859Z" fill="#DDFAFB"/>
<path d="M1540 422.15C1534.07 415.62 1531.18 406.796 1533.49 398.416C1527.42 407.286 1530.84 418.056 1540.29 423.475C1540.91 423.846 1541.64 424.278 1542.23 424.566C1541.46 423.78 1540.72 422.973 1540 422.15Z" fill="#DDFAFB"/>
<mask id="mask69_246_8946" style="mask-type:luminance" maskUnits="userSpaceOnUse" x="1510" y="449" width="26" height="53">
<path d="M1510.61 449.146H1535.72V501.442H1510.61V449.146Z" fill="white"/>
</mask>
<g mask="url(#mask69_246_8946)">
<g opacity="0.330002">
<path d="M1517.21 483.894C1514.8 489.675 1512.69 495.558 1510.61 501.442C1510.86 501.119 1511.11 500.797 1511.36 500.471C1523.03 485.088 1532.16 467.742 1535.71 449.146C1529.27 460.6 1521.96 471.702 1517.21 483.894Z" fill="#9747FF"/>
</g>
</g>
<mask id="mask70_246_8946" style="mask-type:luminance" maskUnits="userSpaceOnUse" x="1509" y="464" width="10" height="23">
<path d="M1509.23 464.493H1518.4V486.322H1509.23V464.493Z" fill="white"/>
</mask>
<g mask="url(#mask70_246_8946)">
<g opacity="0.330002">
<path d="M1509.23 486.323C1509.42 486.042 1509.61 485.761 1509.8 485.479C1514.13 479.097 1517.47 472.03 1518.4 464.493C1514.59 471.489 1511.06 478.636 1509.23 486.323Z" fill="#9747FF"/>
</g>
</g>
<mask id="mask71_246_8946" style="mask-type:luminance" maskUnits="userSpaceOnUse" x="1500" y="495" width="9" height="15">
<path d="M1500.65 495.577H1508.26V509.895H1500.65V495.577Z" fill="white"/>
</mask>
<g mask="url(#mask71_246_8946)">
<g opacity="0.330002">
<path d="M1500.65 509.895C1504.04 505.563 1506.81 500.771 1508.27 495.577C1505.03 499.844 1501.89 505.195 1500.65 509.895Z" fill="#9747FF"/>
</g>
</g>
<mask id="mask72_246_8946" style="mask-type:luminance" maskUnits="userSpaceOnUse" x="1493" y="508" width="15" height="22">
<path d="M1493.25 508.986H1507.13V529.159H1493.25V508.986Z" fill="white"/>
</mask>
<g mask="url(#mask72_246_8946)">
<g opacity="0.330002">
<path d="M1493.26 529.157C1499.25 523.325 1503.86 516.424 1507.13 508.986C1501.32 514.874 1496.54 521.986 1493.26 529.157Z" fill="#9747FF"/>
</g>
</g>
<path d="M1655.76 573.612C1661.84 580.578 1671.23 584.044 1680.47 584.548C1688.07 584.962 1695.98 583.439 1702.17 579.013C1708.36 574.589 1712.5 566.963 1711.56 559.42C1710.99 554.84 1708.64 550.618 1705.61 547.139C1699.03 539.608 1688.95 535.265 1678.96 535.656C1668.69 536.057 1660.51 541.512 1653.12 548.136C1646.11 554.411 1650.51 567.592 1655.76 573.612Z" fill="#9747FF"/>
<path d="M1652.46 552.879C1650.48 550.468 1650.7 546.769 1652.31 544.092C1653.92 541.414 1656.65 539.597 1659.45 538.205C1667.05 534.425 1675.9 533.188 1684.25 534.739C1687.2 535.286 1690.66 536.848 1690.8 539.836C1696.88 540.416 1702.76 543.031 1707.08 547.333C1711.4 551.635 1713.5 558.453 1711.16 564.081C1709.03 569.195 1703.72 572.432 1698.29 573.552C1692.86 574.67 1687.23 574.005 1681.73 573.335C1675.16 572.537 1668.39 571.676 1662.63 568.417C1656.88 565.157 1651.61 559.434 1652.46 552.879Z" fill="white"/>
<path d="M1660.63 550.903C1668.28 551.057 1675.84 549.058 1683.07 546.539C1684.59 546.007 1687.92 544.217 1685.1 543.388C1683.34 542.869 1679.03 544.987 1677.23 545.486C1672.37 546.835 1663.17 548.593 1660.63 550.903Z" fill="white"/>
<path d="M1688.98 540.019C1695.54 536.735 1702.11 533.451 1708.67 530.165C1709.28 531.856 1709.89 533.547 1710.5 535.237C1704.25 537.048 1697.34 539.084 1691.1 540.895C1690.57 541.047 1690.01 541.201 1689.48 541.047C1688.95 540.892 1688.76 540.521 1688.98 540.019Z" fill="#4D3328"/>
<path d="M1670.81 540.09C1670.13 539.97 1669.42 539.913 1668.78 540.142C1667.92 540.442 1667.28 541.259 1667.18 542.158C1667.08 543.057 1667.53 543.993 1668.3 544.472C1669.07 544.951 1670.11 544.946 1670.88 544.461C1671.49 544.074 1671.9 543.434 1672.45 542.96C1672.95 542.528 1674.5 542.209 1673.99 541.288C1673.57 540.53 1671.58 540.229 1670.81 540.09Z" fill="#4D3328"/>
<path d="M1682.51 556.312C1682.11 556.989 1681.63 557.649 1680.95 558.04C1680.04 558.557 1678.85 558.509 1677.99 557.921C1677.13 557.333 1676.65 556.235 1676.81 555.208C1676.97 554.181 1677.76 553.276 1678.75 552.973C1679.55 552.732 1680.41 552.858 1681.24 552.735C1681.99 552.625 1683.43 551.515 1683.85 552.649C1684.2 553.581 1682.97 555.532 1682.51 556.312Z" fill="#4D3328"/>
<path d="M382.03 752.796L380.319 787.841L423.205 720.63L424.791 688.149C424.825 687.451 423.911 687.16 423.535 687.75L382.03 752.796Z" fill="#FBFBFB"/>
<path d="M364.82 745.039L377.1 785.793L419.987 718.582L408.135 679.25C407.967 678.692 407.22 678.589 406.907 679.081L364.82 745.039Z" fill="#FBFBFB"/>
<path d="M373.523 748.283L377.1 785.794L419.987 718.583L416.597 683.043C416.535 682.398 415.691 682.195 415.343 682.742L373.523 748.283Z" fill="#FBFBFB"/>
<path d="M414.09 773.199L383.006 789.551L425.891 722.34L454.703 707.184C455.322 706.858 455.971 707.563 455.595 708.152L414.09 773.199Z" fill="#FBFBFB"/>
<path d="M428.401 785.499L386.224 791.6L429.11 724.388L469.816 718.5C470.392 718.418 470.801 719.049 470.487 719.541L428.401 785.499Z" fill="#FBFBFB"/>
<path d="M421.78 778.993L386.224 791.599L429.11 724.387L462.798 712.444C463.409 712.227 463.949 712.904 463.601 713.451L421.78 778.993Z" fill="#FBFBFB"/>
<path d="M428.132 725.319C427.46 726.371 424.935 725.964 422.49 724.409C420.047 722.854 418.61 720.74 419.281 719.688C419.953 718.634 422.479 719.042 424.923 720.598C427.367 722.153 428.804 724.267 428.132 725.319Z" fill="#E0E0E0"/>
<path d="M431.176 792.602L385.61 791.96L428.496 724.748L474.062 725.39L431.176 792.602Z" fill="#E0E0E0"/>
<path d="M356.929 745.354L376.761 786.327L419.647 719.116L399.815 678.143L356.929 745.354Z" fill="#E0E0E0"/>
<path d="M423.38 728.543C424.164 724.374 426.835 720.817 429.7 717.684C432.565 714.553 435.737 711.63 437.907 707.983C441.434 702.058 441.911 694.427 439.15 688.11C440.791 690.181 442.815 692.046 444.455 694.118C445.861 692.19 447.353 690.476 448.757 688.549C448.612 692.881 448.08 697.217 447.188 701.459C446.296 705.701 444.612 709.864 441.723 713.099C436.59 718.85 426.456 721.477 423.38 728.543Z" fill="#9747FF"/>
<path d="M385.61 791.959L376.76 786.328L419.646 719.116L428.497 724.748L385.61 791.959Z" fill="#E0E0E0"/>
<path d="M371.985 729.081C368.408 734.218 365.537 739.809 362.859 745.452C370.951 736.629 377.953 726.738 383.053 715.891C379.207 720.152 375.303 724.385 371.985 729.081Z" fill="#E0E0E0"/>
<path d="M379.19 715.576C381.61 713.258 383.582 710.516 384.945 707.453C382.613 709.841 380.648 712.571 379.19 715.576Z" fill="#E0E0E0"/>
<path d="M388.654 701.705C390.205 700.131 391.469 698.297 392.344 696.267C390.815 697.86 389.554 699.69 388.654 701.705Z" fill="#E0E0E0"/>
<path d="M385.601 713.747C387.648 711.565 389.359 709.082 390.598 706.358C388.48 708.486 386.767 710.979 385.601 713.747Z" fill="#E0E0E0"/>
<path d="M384.441 723.319C382.238 726.453 380.592 729.922 378.733 733.258C384.453 727.697 388.294 721.639 392.287 714.487C389.425 717.193 386.711 720.093 384.441 723.319Z" fill="#E0E0E0"/>
<path d="M377.664 762.982C376.536 768.315 375.9 773.764 376.508 779.208C377.793 773.91 378.431 768.408 377.664 762.982Z" fill="#E0E0E0"/>
<path d="M380.869 765.269C379.739 769.058 379.329 773.021 379.658 776.961C380.71 773.158 381.12 769.206 380.869 765.269Z" fill="#E0E0E0"/>
<path d="M410.934 760.314C417.971 751.174 424.573 741.619 428.797 730.819C421.318 739.627 414.65 749.289 410.934 760.314Z" fill="#E0E0E0"/>
<path d="M428.811 739.013C430.755 736.718 432.48 734.27 433.835 731.43C431.635 733.564 429.863 736.126 428.811 739.013Z" fill="#E0E0E0"/>
<path d="M434.148 736.647C435.764 734.778 437.191 732.745 438.26 730.514C436.463 732.24 435.02 734.307 434.148 736.647Z" fill="#E0E0E0"/>
<path d="M446.937 753.397C454.009 746.618 459.902 738.705 464.208 729.905C457.252 736.778 451.367 744.677 446.937 753.397Z" fill="#E0E0E0"/>
<path d="M426.534 779.203C425.093 778.316 423.848 779.441 423.634 780.91C423.346 782.375 423.838 783.848 424.145 785.272C424.381 783.406 423.758 777.845 427.116 780.011C427.291 780.147 427.431 780.317 427.575 780.482C427.386 779.952 427.038 779.471 426.534 779.203Z" fill="#E0E0E0"/>
<path d="M1632.08 831.982L1620.72 839.082L1549.69 725.654L1561.06 718.555L1632.08 831.982Z" fill="#FBFBFB"/>
<path d="M1687.63 783.59L1632.09 831.983L1561.06 718.555L1616.6 670.163L1687.63 783.59Z" fill="#7B8FDB"/>
<path d="M1675.19 784.825L1632.08 831.982L1561.06 718.555L1604.16 671.398L1675.19 784.825Z" fill="#E7F3FA"/>
<path d="M1662.58 781.753L1632.08 831.982L1561.06 718.555L1591.55 668.325L1662.58 781.753Z" fill="#E7F3FA"/>
<path d="M1638.77 773.349L1629.1 833.847L1558.07 720.419L1567.74 659.921L1638.77 773.349Z" fill="#FBFBFB"/>
<path d="M1558.32 865.122L1620.72 839.081L1549.69 725.654L1487.29 751.694L1558.32 865.122Z" fill="#9747FF"/>
<path d="M1558.32 865.122L1620.72 839.081L1549.69 725.654L1487.29 751.694L1558.32 865.122Z" fill="#E7F3FA"/>
<path d="M1557.46 851.294L1624.8 836.531L1553.77 723.104L1486.44 737.868L1557.46 851.294Z" fill="#FBFBFB"/>
<path d="M1557.26 792.572C1559.68 786.629 1562.09 780.686 1564.5 774.743C1570.31 780.344 1576.11 785.947 1581.92 791.548C1574.19 767.667 1563 744.908 1548.82 724.19L1534.64 727.299C1544.2 748.289 1551.8 770.168 1557.26 792.572Z" fill="#9747FF"/>
<path d="M1564.91 725.663C1568.49 735.888 1572.57 745.973 1577.69 755.534C1582.84 764.69 1588.8 773.374 1594.88 781.936C1588.29 761.571 1577.64 742.804 1564.91 725.663Z" fill="#E7F3FA"/>
<path d="M1595.03 769.085C1596.88 777.091 1600.04 784.766 1604.68 791.568C1602.66 783.619 1599.52 775.968 1595.03 769.085Z" fill="#E7F3FA"/>
<path d="M1598.43 791.645C1601.81 799.87 1606.51 807.432 1611.96 814.445C1609.22 805.931 1604.44 798.242 1598.43 791.645Z" fill="#E7F3FA"/>
<path d="M1613.25 805.714C1614.49 809.264 1616.33 812.576 1618.68 815.507C1617.5 811.93 1615.66 808.611 1613.25 805.714Z" fill="#E7F3FA"/>
<path d="M1588.39 711.38C1588.4 711.401 1588.41 711.421 1588.42 711.44C1588.44 711.49 1588.46 711.536 1588.48 711.586C1588.43 711.481 1588.41 711.428 1588.39 711.38Z" fill="black"/>
<path d="M1588.39 711.38C1588.39 711.365 1588.38 711.349 1588.37 711.335C1588.35 711.271 1588.36 711.303 1588.39 711.38Z" fill="black"/>
<path d="M1588.42 711.441C1584.55 701.891 1578.98 693.2 1573.65 684.425C1576.51 697.193 1583.07 708.727 1591.13 718.929C1591.3 719.16 1591.48 719.39 1591.66 719.621C1590.65 716.866 1589.57 714.137 1588.42 711.441Z" fill="#E7F3FA"/>
<path d="M1504.67 746.768C1509.35 760.871 1516.95 773.819 1526.56 785.135C1521.42 771.659 1513.74 758.454 1504.67 746.768Z" fill="#E7F3FA"/>
<path d="M1548.63 827.061C1553.23 831.858 1558.71 835.682 1564.68 838.581C1560.07 833.799 1554.59 829.974 1548.63 827.061Z" fill="#E7F3FA"/>
<path d="M1552.52 821.967C1557.64 827.365 1563.63 831.862 1570.15 835.45C1565.24 829.811 1559.21 825.289 1552.52 821.967Z" fill="#E7F3FA"/>
<path d="M1556.89 812.507C1563.56 819.76 1570.81 826.653 1579.66 831.179C1572.93 823.972 1565.71 817.109 1556.89 812.507Z" fill="#E7F3FA"/>
<path d="M1543.78 734.396C1546.68 745.551 1550.18 754.486 1555.94 764.375C1553.89 753.688 1549.87 743.432 1543.78 734.396Z" fill="#E0E0E0"/>
<path d="M1643.48 770.762C1639.12 759.206 1632.93 748.277 1624.42 739.247C1629.14 749.747 1634.38 760.05 1641.54 769.126C1642.55 770.268 1645.03 774.251 1643.48 770.762Z" fill="#FBFBFB"/>
<path d="M1642.64 758.654C1643.85 763.357 1645.98 767.781 1649.01 771.585C1647.5 766.998 1645.4 762.621 1642.64 758.654Z" fill="#FBFBFB"/>
<path d="M1651.63 763.748C1652.15 767.57 1653.36 771.291 1655.44 774.558C1654.65 770.804 1653.44 767.137 1651.63 763.748Z" fill="#FBFBFB"/>
<path d="M462.185 490.881C442.147 489.371 422.072 487.858 402.033 486.348C389.552 474.685 377.043 462.997 364.562 451.334L356.848 471.35C356.76 471.635 356.561 472.172 356.516 472.467C356.168 474.191 356.512 476.042 357.133 477.665C360.424 485.505 368.825 491.77 375.726 496.42C390.124 505.679 406.356 512.282 423.147 515.652C431.125 517.062 440.041 518.224 447.873 515.624C449.598 514.985 451.347 514.023 452.553 512.605C452.718 512.371 453.116 511.892 453.248 511.631L453.523 511.114L462.236 490.885L462.185 490.881Z" fill="white"/>
<path d="M453.248 511.63C449.522 517.455 439.218 517.357 433.036 516.987C416.354 515.55 400.2 509.77 385.406 502.113C376.446 497.268 367.534 491.632 360.894 483.797C358.183 480.392 355.227 475.834 356.848 471.35C356.543 472.046 352.765 481.83 352.722 482.305C352.465 483.556 352.555 484.947 352.855 486.182C355.173 494.57 364.729 501.845 371.694 506.578C385.115 515.347 400.243 521.633 415.885 525.141C424.714 526.963 437.565 528.877 445.757 524.485C446.874 523.834 447.983 522.93 448.731 521.866C449.359 521.561 453.051 511.767 453.523 511.113L453.248 511.63Z" fill="#8561B4"/>
<path d="M519.879 491.031L518.037 495.089C483.245 492.468 436.353 488.934 402.033 486.347L403.86 481.847L519.879 491.031Z" fill="#8561B4"/>
<path d="M519.879 491.031L403.86 481.847L325.691 409.494L436.59 423.919L519.879 491.031Z" fill="#7B8FDB"/>
<path d="M403.859 481.847L402.033 486.348C379.916 465.681 346.652 434.599 324.192 413.612L325.691 409.494L403.859 481.847Z" fill="#8561B4"/>
<path d="M473.071 533.533C473.259 532.026 472.989 530.518 472.335 529.147C471.471 527.333 470.321 526.299 469.079 525.862L473.869 487.518C473.926 487.057 473.738 486.6 473.372 486.314L421.042 445.395C420.466 444.945 419.635 445.046 419.185 445.62C418.735 446.195 418.836 447.024 419.411 447.474L471.152 487.933L466.426 525.76C463.343 526.515 460.5 530.065 460.614 533.938C460.665 535.659 461.262 537.338 462.242 538.751C464.21 541.586 468.253 541.691 470.516 539.085C471.852 537.546 472.801 535.692 473.071 533.533Z" fill="white"/>
<path d="M1685.48 953.003C1682.58 948.709 1683.71 942.879 1688.01 939.982L1759.13 892.071L1769.63 907.623L1698.52 955.533C1694.22 958.43 1688.38 957.298 1685.48 953.003Z" fill="#7B8FDB"/>
<path d="M1739.75 905.128L1750.25 920.679L1761.67 912.987L1751.17 897.434L1739.75 905.128Z" fill="#9747FF"/>
<path d="M1762.96 897.743L1765.8 901.953L1777.22 894.259L1774.38 890.049L1762.96 897.743Z" fill="#9747FF"/>
<path d="M1778.73 890.177C1766.77 872.472 1771.45 848.435 1789.18 836.491C1806.91 824.547 1830.98 829.218 1842.94 846.923C1854.9 864.629 1850.22 888.664 1832.49 900.609C1814.76 912.553 1790.69 907.882 1778.73 890.177ZM1847.99 843.517C1834.15 823.023 1806.29 817.617 1785.77 831.442C1765.25 845.268 1759.84 873.089 1773.68 893.583C1787.52 914.076 1815.38 919.483 1835.9 905.657C1856.42 891.832 1861.84 864.011 1847.99 843.517Z" fill="#8561B4"/>
<mask id="mask73_246_8946" style="mask-type:luminance" maskUnits="userSpaceOnUse" x="1772" y="829" width="78" height="79">
<path d="M1772.11 829.874H1849.56V907.225H1772.11V829.874Z" fill="white"/>
</mask>
<g mask="url(#mask73_246_8946)">
<g opacity="0.5">
<path d="M1778.73 890.177C1766.77 872.472 1771.45 848.436 1789.18 836.491C1806.91 824.547 1830.98 829.218 1842.94 846.923C1854.9 864.629 1850.22 888.664 1832.49 900.609C1814.76 912.553 1790.69 907.882 1778.73 890.177Z" fill="#FBFBFB"/>
</g>
</g>
</svg>
