<svg width="291" height="56" viewBox="0 0 291 56" fill="none" xmlns="http://www.w3.org/2000/svg">
<path d="M5.408 29.192C4.66133 29.192 3.968 29.0533 3.328 28.776C2.688 28.488 2.144 28.0987 1.696 27.608C1.248 27.1173 0.917333 26.552 0.704 25.912L2.304 25.24C2.592 25.976 3.01333 26.5413 3.568 26.936C4.12267 27.3307 4.76267 27.528 5.488 27.528C5.91467 27.528 6.288 27.464 6.608 27.336C6.928 27.1973 7.17333 27.0053 7.344 26.76C7.52533 26.5147 7.616 26.232 7.616 25.912C7.616 25.4747 7.49333 25.128 7.248 24.872C7.00267 24.616 6.64 24.4133 6.16 24.264L3.92 23.56C3.024 23.2827 2.34133 22.8613 1.872 22.296C1.40267 21.72 1.168 21.048 1.168 20.28C1.168 19.608 1.33333 19.0213 1.664 18.52C1.99467 18.008 2.448 17.608 3.024 17.32C3.61067 17.032 4.27733 16.888 5.024 16.888C5.73867 16.888 6.38933 17.016 6.976 17.272C7.56267 17.5173 8.064 17.8587 8.48 18.296C8.90667 18.7333 9.216 19.24 9.408 19.816L7.84 20.504C7.60533 19.8747 7.23733 19.3893 6.736 19.048C6.24533 18.7067 5.67467 18.536 5.024 18.536C4.62933 18.536 4.28267 18.6053 3.984 18.744C3.68533 18.872 3.45067 19.064 3.28 19.32C3.12 19.5653 3.04 19.8533 3.04 20.184C3.04 20.568 3.16267 20.9093 3.408 21.208C3.65333 21.5067 4.02667 21.7307 4.528 21.88L6.608 22.536C7.55733 22.824 8.272 23.24 8.752 23.784C9.232 24.3173 9.472 24.984 9.472 25.784C9.472 26.4453 9.296 27.032 8.944 27.544C8.60267 28.056 8.128 28.4613 7.52 28.76C6.912 29.048 6.208 29.192 5.408 29.192Z" fill="white"/>
<path d="M14.6794 29.096C13.7727 29.096 13.0687 28.84 12.5674 28.328C12.066 27.816 11.8154 27.096 11.8154 26.168V21.976H10.2954V20.344H10.5354C10.9407 20.344 11.2554 20.2267 11.4794 19.992C11.7034 19.7573 11.8154 19.4373 11.8154 19.032V18.36H13.6234V20.344H15.5914V21.976H13.6234V26.088C13.6234 26.3867 13.6714 26.6427 13.7674 26.856C13.8634 27.0587 14.018 27.2187 14.2314 27.336C14.4447 27.4427 14.722 27.496 15.0634 27.496C15.1487 27.496 15.2447 27.4907 15.3514 27.48C15.458 27.4693 15.5594 27.4587 15.6554 27.448V29C15.506 29.0213 15.3407 29.0427 15.1594 29.064C14.978 29.0853 14.818 29.096 14.6794 29.096ZM20.8475 29.192C19.9835 29.192 19.2155 28.9947 18.5435 28.6C17.8822 28.1947 17.3648 27.6507 16.9915 26.968C16.6182 26.2747 16.4315 25.5013 16.4315 24.648C16.4315 23.7733 16.6182 23 16.9915 22.328C17.3755 21.656 17.8875 21.128 18.5275 20.744C19.1675 20.3493 19.8928 20.152 20.7035 20.152C21.3542 20.152 21.9355 20.264 22.4475 20.488C22.9595 20.712 23.3915 21.0213 23.7435 21.416C24.0955 21.8 24.3622 22.2427 24.5435 22.744C24.7355 23.2453 24.8315 23.7787 24.8315 24.344C24.8315 24.4827 24.8262 24.6267 24.8155 24.776C24.8048 24.9253 24.7835 25.064 24.7515 25.192H17.8555V23.752H23.7275L22.8635 24.408C22.9702 23.8853 22.9328 23.4213 22.7515 23.016C22.5808 22.6 22.3142 22.2747 21.9515 22.04C21.5995 21.7947 21.1835 21.672 20.7035 21.672C20.2235 21.672 19.7968 21.7947 19.4235 22.04C19.0502 22.2747 18.7622 22.616 18.5595 23.064C18.3568 23.5013 18.2768 24.0347 18.3195 24.664C18.2662 25.2507 18.3462 25.7627 18.5595 26.2C18.7835 26.6373 19.0928 26.9787 19.4875 27.224C19.8928 27.4693 20.3515 27.592 20.8635 27.592C21.3862 27.592 21.8288 27.4747 22.1915 27.24C22.5648 27.0053 22.8582 26.7013 23.0715 26.328L24.5435 27.048C24.3728 27.4533 24.1062 27.8213 23.7435 28.152C23.3915 28.472 22.9648 28.728 22.4635 28.92C21.9728 29.1013 21.4342 29.192 20.8475 29.192ZM26.116 29V16.888H27.924V29H26.116ZM29.5579 29V16.888H31.3659V29H29.5579ZM35.5918 29.192C35.0051 29.192 34.4878 29.0907 34.0398 28.888C33.6024 28.6747 33.2611 28.3867 33.0158 28.024C32.7704 27.6507 32.6478 27.2133 32.6478 26.712C32.6478 26.2427 32.7491 25.8213 32.9518 25.448C33.1651 25.0747 33.4904 24.76 33.9278 24.504C34.3651 24.248 34.9144 24.0667 35.5758 23.96L38.5838 23.464V24.888L35.9278 25.352C35.4478 25.4373 35.0958 25.592 34.8718 25.816C34.6478 26.0293 34.5358 26.3067 34.5358 26.648C34.5358 26.9787 34.6584 27.2507 34.9038 27.464C35.1598 27.6667 35.4851 27.768 35.8798 27.768C36.3704 27.768 36.7971 27.6613 37.1598 27.448C37.5331 27.2347 37.8211 26.952 38.0238 26.6C38.2264 26.2373 38.3278 25.8373 38.3278 25.4V23.176C38.3278 22.7493 38.1678 22.4027 37.8478 22.136C37.5384 21.8587 37.1224 21.72 36.5998 21.72C36.1198 21.72 35.6984 21.848 35.3358 22.104C34.9838 22.3493 34.7224 22.6693 34.5518 23.064L33.0478 22.312C33.2078 21.8853 33.4691 21.512 33.8318 21.192C34.1944 20.8613 34.6158 20.6053 35.0958 20.424C35.5864 20.2427 36.1038 20.152 36.6478 20.152C37.3304 20.152 37.9331 20.28 38.4558 20.536C38.9891 20.792 39.3998 21.1493 39.6878 21.608C39.9864 22.056 40.1358 22.5787 40.1358 23.176V29H38.4078V27.432L38.7758 27.48C38.5731 27.832 38.3118 28.136 37.9918 28.392C37.6824 28.648 37.3251 28.8453 36.9198 28.984C36.5251 29.1227 36.0824 29.192 35.5918 29.192ZM41.7697 29V20.344H43.4977V22.088L43.3377 21.832C43.5297 21.2667 43.8391 20.8613 44.2657 20.616C44.6924 20.36 45.2044 20.232 45.8017 20.232H46.3297V21.88H45.5777C44.9804 21.88 44.4951 22.0667 44.1217 22.44C43.7591 22.8027 43.5777 23.3253 43.5777 24.008V29H41.7697ZM54.0435 29.192C53.1582 29.192 52.3688 29.0053 51.6755 28.632C50.9928 28.2587 50.4542 27.7467 50.0595 27.096C49.6755 26.4453 49.4835 25.704 49.4835 24.872V17.08H51.3715V24.792C51.3715 25.3147 51.4835 25.7787 51.7075 26.184C51.9422 26.5893 52.2568 26.904 52.6515 27.128C53.0568 27.352 53.5208 27.464 54.0435 27.464C54.5768 27.464 55.0408 27.352 55.4355 27.128C55.8408 26.904 56.1555 26.5893 56.3795 26.184C56.6142 25.7787 56.7315 25.3147 56.7315 24.792V17.08H58.6035V24.872C58.6035 25.704 58.4115 26.4453 58.0275 27.096C57.6435 27.7467 57.1048 28.2587 56.4115 28.632C55.7288 29.0053 54.9395 29.192 54.0435 29.192ZM60.3141 29V20.344H62.0421V22.04L61.8341 21.816C62.0475 21.272 62.3888 20.8613 62.8581 20.584C63.3275 20.296 63.8715 20.152 64.4901 20.152C65.1301 20.152 65.6955 20.2907 66.1861 20.568C66.6768 20.8453 67.0608 21.2293 67.3381 21.72C67.6155 22.2107 67.7541 22.776 67.7541 23.416V29H65.9621V23.896C65.9621 23.4587 65.8821 23.0907 65.7221 22.792C65.5621 22.4827 65.3328 22.248 65.0341 22.088C64.7461 21.9173 64.4155 21.832 64.0421 21.832C63.6688 21.832 63.3328 21.9173 63.0341 22.088C62.7461 22.248 62.5221 22.4827 62.3621 22.792C62.2021 23.1013 62.1221 23.4693 62.1221 23.896V29H60.3141ZM69.2091 29V20.344H71.0171V29H69.2091ZM69.2091 19.16V17.08H71.0171V19.16H69.2091ZM75.163 29L71.771 20.344H73.739L76.347 27.4H75.627L78.235 20.344H80.219L76.811 29H75.163ZM84.8756 29.192C84.0116 29.192 83.2436 28.9947 82.5716 28.6C81.9103 28.1947 81.393 27.6507 81.0196 26.968C80.6463 26.2747 80.4596 25.5013 80.4596 24.648C80.4596 23.7733 80.6463 23 81.0196 22.328C81.4036 21.656 81.9156 21.128 82.5556 20.744C83.1956 20.3493 83.921 20.152 84.7316 20.152C85.3823 20.152 85.9636 20.264 86.4756 20.488C86.9876 20.712 87.4196 21.0213 87.7716 21.416C88.1236 21.8 88.3903 22.2427 88.5716 22.744C88.7636 23.2453 88.8596 23.7787 88.8596 24.344C88.8596 24.4827 88.8543 24.6267 88.8436 24.776C88.833 24.9253 88.8116 25.064 88.7796 25.192H81.8836V23.752H87.7556L86.8916 24.408C86.9983 23.8853 86.961 23.4213 86.7796 23.016C86.609 22.6 86.3423 22.2747 85.9796 22.04C85.6276 21.7947 85.2116 21.672 84.7316 21.672C84.2516 21.672 83.825 21.7947 83.4516 22.04C83.0783 22.2747 82.7903 22.616 82.5876 23.064C82.385 23.5013 82.305 24.0347 82.3476 24.664C82.2943 25.2507 82.3743 25.7627 82.5876 26.2C82.8116 26.6373 83.121 26.9787 83.5156 27.224C83.921 27.4693 84.3796 27.592 84.8916 27.592C85.4143 27.592 85.857 27.4747 86.2196 27.24C86.593 27.0053 86.8863 26.7013 87.0996 26.328L88.5716 27.048C88.401 27.4533 88.1343 27.8213 87.7716 28.152C87.4196 28.472 86.993 28.728 86.4916 28.92C86.001 29.1013 85.4623 29.192 84.8756 29.192ZM90.1441 29V20.344H91.8721V22.088L91.7121 21.832C91.9041 21.2667 92.2135 20.8613 92.6401 20.616C93.0668 20.36 93.5788 20.232 94.1761 20.232H94.7041V21.88H93.9521C93.3548 21.88 92.8695 22.0667 92.4961 22.44C92.1335 22.8027 91.9521 23.3253 91.9521 24.008V29H90.1441ZM98.661 29.192C97.7757 29.192 96.997 28.9733 96.325 28.536C95.6637 28.0987 95.1997 27.512 94.933 26.776L96.325 26.12C96.5597 26.6107 96.8797 27 97.285 27.288C97.701 27.576 98.1597 27.72 98.661 27.72C99.0877 27.72 99.4343 27.624 99.701 27.432C99.9677 27.24 100.101 26.9787 100.101 26.648C100.101 26.4347 100.042 26.264 99.925 26.136C99.8077 25.9973 99.6583 25.8853 99.477 25.8C99.3063 25.7147 99.1303 25.6507 98.949 25.608L97.589 25.224C96.8423 25.0107 96.2823 24.6907 95.909 24.264C95.5463 23.8267 95.365 23.32 95.365 22.744C95.365 22.2213 95.4983 21.768 95.765 21.384C96.0317 20.9893 96.3997 20.6853 96.869 20.472C97.3383 20.2587 97.8663 20.152 98.453 20.152C99.2423 20.152 99.9463 20.3493 100.565 20.744C101.184 21.128 101.621 21.6667 101.877 22.36L100.485 23.016C100.314 22.6 100.042 22.2693 99.669 22.024C99.3063 21.7787 98.8957 21.656 98.437 21.656C98.0423 21.656 97.7277 21.752 97.493 21.944C97.2583 22.1253 97.141 22.3653 97.141 22.664C97.141 22.8667 97.1943 23.0373 97.301 23.176C97.4077 23.304 97.5463 23.4107 97.717 23.496C97.8877 23.5707 98.0637 23.6347 98.245 23.688L99.653 24.104C100.368 24.3067 100.917 24.6267 101.301 25.064C101.685 25.4907 101.877 26.0027 101.877 26.6C101.877 27.112 101.738 27.5653 101.461 27.96C101.194 28.344 100.821 28.648 100.341 28.872C99.861 29.0853 99.301 29.192 98.661 29.192ZM103.169 29V20.344H104.977V29H103.169ZM103.169 19.16V17.08H104.977V19.16H103.169ZM110.354 29.096C109.448 29.096 108.744 28.84 108.242 28.328C107.741 27.816 107.49 27.096 107.49 26.168V21.976H105.97V20.344H106.21C106.616 20.344 106.93 20.2267 107.154 19.992C107.378 19.7573 107.49 19.4373 107.49 19.032V18.36H109.298V20.344H111.266V21.976H109.298V26.088C109.298 26.3867 109.346 26.6427 109.442 26.856C109.538 27.0587 109.693 27.2187 109.906 27.336C110.12 27.4427 110.397 27.496 110.738 27.496C110.824 27.496 110.92 27.4907 111.026 27.48C111.133 27.4693 111.234 27.4587 111.33 27.448V29C111.181 29.0213 111.016 29.0427 110.834 29.064C110.653 29.0853 110.493 29.096 110.354 29.096ZM113.383 32.536C113.169 32.536 112.956 32.5147 112.743 32.472C112.54 32.44 112.353 32.3867 112.183 32.312V30.76C112.311 30.792 112.465 30.8187 112.647 30.84C112.828 30.872 113.004 30.888 113.175 30.888C113.676 30.888 114.044 30.776 114.279 30.552C114.524 30.3387 114.743 30.0027 114.935 29.544L115.511 28.232L115.479 29.752L111.735 20.344H113.671L116.439 27.56H115.783L118.535 20.344H120.487L116.663 29.944C116.46 30.456 116.204 30.904 115.895 31.288C115.596 31.6827 115.239 31.9867 114.823 32.2C114.417 32.424 113.937 32.536 113.383 32.536Z" fill="white"/>
<path d="M0.704 37V31.04H1.344V37H0.704ZM2.42288 37V32.712H3.02288V33.544L2.88688 33.512C2.99354 33.2347 3.16688 33.016 3.40688 32.856C3.65221 32.696 3.93488 32.616 4.25488 32.616C4.55888 32.616 4.83088 32.6853 5.07088 32.824C5.31621 32.9627 5.50821 33.1547 5.64688 33.4C5.79088 33.64 5.86288 33.912 5.86288 34.216V37H5.26288V34.448C5.26288 34.1867 5.21488 33.9653 5.11888 33.784C5.02821 33.6027 4.89754 33.464 4.72688 33.368C4.56154 33.2667 4.36954 33.216 4.15088 33.216C3.93221 33.216 3.73754 33.2667 3.56688 33.368C3.39621 33.464 3.26288 33.6053 3.16688 33.792C3.07088 33.9733 3.02288 34.192 3.02288 34.448V37H2.42288ZM8.25681 37.096C7.84615 37.096 7.48615 36.992 7.17681 36.784C6.86748 36.576 6.64348 36.2933 6.50481 35.936L7.00881 35.696C7.13148 35.9573 7.30215 36.1653 7.52081 36.32C7.74481 36.4747 7.99015 36.552 8.25681 36.552C8.51281 36.552 8.72881 36.4907 8.90481 36.368C9.08081 36.24 9.16881 36.0747 9.16881 35.872C9.16881 35.7227 9.12615 35.6053 9.04081 35.52C8.95548 35.4293 8.85681 35.36 8.74481 35.312C8.63281 35.264 8.53415 35.2293 8.44881 35.208L7.83281 35.032C7.43815 34.92 7.15281 34.7627 6.97681 34.56C6.80081 34.3573 6.71281 34.1227 6.71281 33.856C6.71281 33.6053 6.77681 33.3867 6.90481 33.2C7.03281 33.0133 7.20615 32.8693 7.42481 32.768C7.64348 32.6667 7.88615 32.616 8.15281 32.616C8.51548 32.616 8.84348 32.712 9.13681 32.904C9.43548 33.0907 9.64615 33.352 9.76881 33.688L9.25681 33.928C9.15015 33.688 8.99548 33.5013 8.79281 33.368C8.59548 33.2293 8.37415 33.16 8.12881 33.16C7.88881 33.16 7.69681 33.2213 7.55281 33.344C7.40881 33.4667 7.33681 33.6213 7.33681 33.808C7.33681 33.952 7.37415 34.0667 7.44881 34.152C7.52348 34.2373 7.60881 34.3013 7.70481 34.344C7.80615 34.3867 7.89415 34.4187 7.96881 34.44L8.68081 34.648C9.02748 34.7493 9.29681 34.9067 9.48881 35.12C9.68615 35.3333 9.78481 35.584 9.78481 35.872C9.78481 36.1067 9.71815 36.3173 9.58481 36.504C9.45681 36.6907 9.27815 36.8373 9.04881 36.944C8.81948 37.0453 8.55548 37.096 8.25681 37.096ZM10.5991 38.6V32.712H11.1991V33.672L11.1031 33.504C11.2738 33.232 11.5005 33.016 11.7831 32.856C12.0711 32.696 12.3991 32.616 12.7671 32.616C13.1725 32.616 13.5325 32.7147 13.8471 32.912C14.1671 33.104 14.4178 33.368 14.5991 33.704C14.7858 34.04 14.8791 34.424 14.8791 34.856C14.8791 35.2827 14.7858 35.6667 14.5991 36.008C14.4178 36.344 14.1671 36.6107 13.8471 36.808C13.5325 37 13.1725 37.096 12.7671 37.096C12.3991 37.096 12.0658 37.0133 11.7671 36.848C11.4738 36.6773 11.2525 36.4373 11.1031 36.128L11.1991 36.04V38.6H10.5991ZM12.7351 36.496C13.0231 36.496 13.2791 36.424 13.5031 36.28C13.7325 36.136 13.9111 35.9413 14.0391 35.696C14.1725 35.4453 14.2391 35.1653 14.2391 34.856C14.2391 34.5413 14.1725 34.2613 14.0391 34.016C13.9111 33.7707 13.7325 33.576 13.5031 33.432C13.2791 33.288 13.0231 33.216 12.7351 33.216C12.4471 33.216 12.1858 33.288 11.9511 33.432C11.7218 33.576 11.5378 33.7733 11.3991 34.024C11.2658 34.2693 11.1991 34.5467 11.1991 34.856C11.1991 35.1653 11.2658 35.4453 11.3991 35.696C11.5378 35.9413 11.7218 36.136 11.9511 36.28C12.1858 36.424 12.4471 36.496 12.7351 36.496ZM15.6951 37V32.712H16.2951V37H15.6951ZM15.6951 31.92V31.04H16.2951V31.92H15.6951ZM17.2832 37V32.712H17.8832V33.416L17.8032 33.312C17.9045 33.1093 18.0565 32.9493 18.2592 32.832C18.4672 32.7147 18.7179 32.656 19.0112 32.656H19.2832V33.256H18.9072C18.5979 33.256 18.3499 33.352 18.1632 33.544C17.9765 33.736 17.8832 34.008 17.8832 34.36V37H17.2832ZM19.7463 37V32.712H20.3463V37H19.7463ZM19.7463 31.92V31.04H20.3463V31.92H19.7463ZM21.3344 37V32.712H21.9344V33.544L21.7984 33.512C21.9051 33.2347 22.0784 33.016 22.3184 32.856C22.5638 32.696 22.8464 32.616 23.1664 32.616C23.4704 32.616 23.7424 32.6853 23.9824 32.824C24.2278 32.9627 24.4198 33.1547 24.5584 33.4C24.7024 33.64 24.7744 33.912 24.7744 34.216V37H24.1744V34.448C24.1744 34.1867 24.1264 33.9653 24.0304 33.784C23.9398 33.6027 23.8091 33.464 23.6384 33.368C23.4731 33.2667 23.2811 33.216 23.0624 33.216C22.8438 33.216 22.6491 33.2667 22.4784 33.368C22.3078 33.464 22.1744 33.6053 22.0784 33.792C21.9824 33.9733 21.9344 34.192 21.9344 34.448V37H21.3344ZM27.7124 38.76C27.419 38.76 27.147 38.7147 26.8964 38.624C26.651 38.5333 26.4377 38.408 26.2564 38.248C26.0804 38.0933 25.9444 37.912 25.8484 37.704L26.4004 37.408C26.4857 37.6107 26.6377 37.7867 26.8564 37.936C27.075 38.0853 27.355 38.16 27.6964 38.16C27.9577 38.16 28.1977 38.1093 28.4164 38.008C28.635 37.9067 28.811 37.7573 28.9444 37.56C29.0777 37.3627 29.1444 37.12 29.1444 36.832V35.88L29.2404 35.968C29.091 36.2773 28.8697 36.5173 28.5764 36.688C28.283 36.8533 27.963 36.936 27.6164 36.936C27.2164 36.936 26.8564 36.84 26.5364 36.648C26.2164 36.456 25.963 36.1973 25.7764 35.872C25.595 35.5413 25.5044 35.176 25.5044 34.776C25.5044 34.3707 25.595 34.0053 25.7764 33.68C25.963 33.3547 26.2137 33.096 26.5284 32.904C26.8484 32.712 27.211 32.616 27.6164 32.616C27.963 32.616 28.2777 32.696 28.5604 32.856C28.8484 33.016 29.075 33.232 29.2404 33.504L29.1444 33.672V32.712H29.7444V36.832C29.7444 37.2 29.6564 37.528 29.4804 37.816C29.3097 38.1093 29.0697 38.3387 28.7604 38.504C28.4564 38.6747 28.107 38.76 27.7124 38.76ZM27.6484 36.336C27.9257 36.336 28.1764 36.2667 28.4004 36.128C28.6244 35.984 28.803 35.7947 28.9364 35.56C29.075 35.32 29.1444 35.0587 29.1444 34.776C29.1444 34.4933 29.075 34.2347 28.9364 34C28.803 33.76 28.6244 33.5707 28.4004 33.432C28.1764 33.288 27.9257 33.216 27.6484 33.216C27.3657 33.216 27.1097 33.288 26.8804 33.432C26.651 33.5707 26.4697 33.7573 26.3364 33.992C26.2084 34.2267 26.1444 34.488 26.1444 34.776C26.1444 35.0587 26.2084 35.32 26.3364 35.56C26.4697 35.7947 26.6484 35.984 26.8724 36.128C27.1017 36.2667 27.3604 36.336 27.6484 36.336ZM31.9446 37V31.04H32.5046L34.7446 34.288H34.4326L36.6646 31.04H37.2246V37H36.5846V31.904L36.7926 31.984L34.6006 35.16H34.5686L32.3846 31.984L32.5846 31.904V37H31.9446ZM38.3041 37V32.712H38.9041V37H38.3041ZM38.3041 31.92V31.04H38.9041V31.92H38.3041ZM39.8922 37V32.712H40.4922V33.544L40.3562 33.512C40.4629 33.2347 40.6362 33.016 40.8762 32.856C41.1216 32.696 41.4042 32.616 41.7242 32.616C42.0282 32.616 42.3002 32.6853 42.5402 32.824C42.7856 32.9627 42.9776 33.1547 43.1162 33.4C43.2602 33.64 43.3322 33.912 43.3322 34.216V37H42.7322V34.448C42.7322 34.1867 42.6842 33.9653 42.5882 33.784C42.4976 33.6027 42.3669 33.464 42.1962 33.368C42.0309 33.2667 41.8389 33.216 41.6202 33.216C41.4016 33.216 41.2069 33.2667 41.0362 33.368C40.8656 33.464 40.7322 33.6053 40.6362 33.792C40.5402 33.9733 40.4922 34.192 40.4922 34.448V37H39.8922ZM46.1742 37.096C45.7742 37.096 45.4142 37 45.0942 36.808C44.7742 36.6107 44.5209 36.344 44.3342 36.008C44.1529 35.6667 44.0622 35.2827 44.0622 34.856C44.0622 34.424 44.1529 34.04 44.3342 33.704C44.5209 33.368 44.7715 33.104 45.0862 32.912C45.4062 32.7147 45.7689 32.616 46.1742 32.616C46.5422 32.616 46.8702 32.696 47.1582 32.856C47.4462 33.016 47.6729 33.232 47.8382 33.504L47.7422 33.672V30.944H48.3422V37H47.7422V36.04L47.8382 36.128C47.6889 36.4373 47.4649 36.6773 47.1662 36.848C46.8729 37.0133 46.5422 37.096 46.1742 37.096ZM46.2062 36.496C46.4942 36.496 46.7529 36.424 46.9822 36.28C47.2169 36.136 47.4009 35.9413 47.5342 35.696C47.6729 35.4453 47.7422 35.1653 47.7422 34.856C47.7422 34.5467 47.6729 34.2693 47.5342 34.024C47.4009 33.7733 47.2169 33.576 46.9822 33.432C46.7529 33.288 46.4942 33.216 46.2062 33.216C45.9235 33.216 45.6675 33.288 45.4382 33.432C45.2089 33.576 45.0275 33.7707 44.8942 34.016C44.7662 34.2613 44.7022 34.5413 44.7022 34.856C44.7022 35.1653 44.7662 35.4453 44.8942 35.696C45.0275 35.9413 45.2062 36.136 45.4302 36.28C45.6595 36.424 45.9182 36.496 46.2062 36.496ZM50.8221 37.096C50.4115 37.096 50.0515 36.992 49.7421 36.784C49.4328 36.576 49.2088 36.2933 49.0701 35.936L49.5741 35.696C49.6968 35.9573 49.8675 36.1653 50.0861 36.32C50.3101 36.4747 50.5555 36.552 50.8221 36.552C51.0781 36.552 51.2941 36.4907 51.4701 36.368C51.6461 36.24 51.7341 36.0747 51.7341 35.872C51.7341 35.7227 51.6915 35.6053 51.6061 35.52C51.5208 35.4293 51.4221 35.36 51.3101 35.312C51.1981 35.264 51.0995 35.2293 51.0141 35.208L50.3981 35.032C50.0035 34.92 49.7181 34.7627 49.5421 34.56C49.3661 34.3573 49.2781 34.1227 49.2781 33.856C49.2781 33.6053 49.3421 33.3867 49.4701 33.2C49.5981 33.0133 49.7715 32.8693 49.9901 32.768C50.2088 32.6667 50.4515 32.616 50.7181 32.616C51.0808 32.616 51.4088 32.712 51.7021 32.904C52.0008 33.0907 52.2115 33.352 52.3341 33.688L51.8221 33.928C51.7155 33.688 51.5608 33.5013 51.3581 33.368C51.1608 33.2293 50.9395 33.16 50.6941 33.16C50.4541 33.16 50.2621 33.2213 50.1181 33.344C49.9741 33.4667 49.9021 33.6213 49.9021 33.808C49.9021 33.952 49.9395 34.0667 50.0141 34.152C50.0888 34.2373 50.1741 34.3013 50.2701 34.344C50.3715 34.3867 50.4595 34.4187 50.5341 34.44L51.2461 34.648C51.5928 34.7493 51.8621 34.9067 52.0541 35.12C52.2515 35.3333 52.3501 35.584 52.3501 35.872C52.3501 36.1067 52.2835 36.3173 52.1501 36.504C52.0221 36.6907 51.8435 36.8373 51.6141 36.944C51.3848 37.0453 51.1208 37.096 50.8221 37.096ZM53.1884 38.04V37.76C53.3484 37.7173 53.4658 37.6347 53.5404 37.512C53.6151 37.3893 53.6524 37.2187 53.6524 37H53.3484V36.12H53.9884V36.792C53.9884 37.1387 53.9218 37.416 53.7884 37.624C53.6551 37.8373 53.4551 37.976 53.1884 38.04ZM58.2961 37.096C57.9174 37.096 57.5734 37.024 57.2641 36.88C56.9547 36.736 56.6934 36.544 56.4801 36.304C56.2667 36.0587 56.1147 35.7893 56.0241 35.496L56.6001 35.28C56.7387 35.6853 56.9547 35.9947 57.2481 36.208C57.5414 36.416 57.8907 36.52 58.2961 36.52C58.5521 36.52 58.7761 36.48 58.9681 36.4C59.1654 36.3147 59.3174 36.1973 59.4241 36.048C59.5307 35.8987 59.5841 35.7253 59.5841 35.528C59.5841 35.2347 59.5041 35.008 59.3441 34.848C59.1841 34.688 58.9547 34.5653 58.6561 34.48L57.5841 34.16C57.1627 34.0373 56.8374 33.832 56.6081 33.544C56.3841 33.256 56.2721 32.928 56.2721 32.56C56.2721 32.2453 56.3494 31.968 56.5041 31.728C56.6587 31.4827 56.8694 31.2907 57.1361 31.152C57.4081 31.0133 57.7147 30.944 58.0561 30.944C58.4134 30.944 58.7334 31.0107 59.0161 31.144C59.3041 31.272 59.5467 31.4427 59.7441 31.656C59.9414 31.8693 60.0827 32.1067 60.1681 32.368L59.6081 32.592C59.4801 32.24 59.2801 31.9733 59.0081 31.792C58.7414 31.6107 58.4267 31.52 58.0641 31.52C57.8347 31.52 57.6321 31.56 57.4561 31.64C57.2854 31.72 57.1521 31.8347 57.0561 31.984C56.9601 32.1333 56.9121 32.3093 56.9121 32.512C56.9121 32.7573 56.9894 32.9787 57.1441 33.176C57.2987 33.368 57.5361 33.512 57.8561 33.608L58.8001 33.888C59.2694 34.0267 59.6241 34.2267 59.8641 34.488C60.1041 34.7493 60.2241 35.0773 60.2241 35.472C60.2241 35.792 60.1414 36.0747 59.9761 36.32C59.8161 36.56 59.5894 36.7493 59.2961 36.888C59.0081 37.0267 58.6747 37.096 58.2961 37.096ZM61.1319 37V30.944H61.7319V33.544L61.5959 33.512C61.7026 33.2347 61.8759 33.016 62.1159 32.856C62.3613 32.696 62.6439 32.616 62.9639 32.616C63.2679 32.616 63.5399 32.6853 63.7799 32.824C64.0253 32.9627 64.2173 33.1547 64.3559 33.4C64.4999 33.64 64.5719 33.912 64.5719 34.216V37H63.9719V34.448C63.9719 34.1867 63.9239 33.9653 63.8279 33.784C63.7319 33.6027 63.5986 33.464 63.4279 33.368C63.2626 33.2667 63.0733 33.216 62.8599 33.216C62.6466 33.216 62.4546 33.2667 62.2839 33.368C62.1133 33.464 61.9773 33.6053 61.8759 33.792C61.7799 33.9733 61.7319 34.192 61.7319 34.448V37H61.1319ZM66.7179 37.096C66.4459 37.096 66.2032 37.0453 65.9899 36.944C65.7765 36.8373 65.6085 36.6933 65.4859 36.512C65.3632 36.3307 65.3019 36.1227 65.3019 35.888C65.3019 35.664 65.3499 35.4613 65.4459 35.28C65.5419 35.0933 65.6912 34.936 65.8939 34.808C66.0965 34.68 66.3552 34.5893 66.6699 34.536L68.3499 34.256V34.8L66.8139 35.056C66.5045 35.1093 66.2805 35.208 66.1419 35.352C66.0085 35.496 65.9419 35.6667 65.9419 35.864C65.9419 36.056 66.0165 36.2187 66.1659 36.352C66.3205 36.4853 66.5179 36.552 66.7579 36.552C67.0512 36.552 67.3072 36.4907 67.5259 36.368C67.7445 36.24 67.9152 36.0693 68.0379 35.856C68.1605 35.6427 68.2219 35.4053 68.2219 35.144V34.056C68.2219 33.8 68.1285 33.592 67.9419 33.432C67.7552 33.272 67.5125 33.192 67.2139 33.192C66.9525 33.192 66.7232 33.2587 66.5259 33.392C66.3285 33.52 66.1819 33.688 66.0859 33.896L65.5419 33.6C65.6219 33.4187 65.7472 33.2533 65.9179 33.104C66.0939 32.9547 66.2939 32.8373 66.5179 32.752C66.7419 32.6613 66.9739 32.616 67.2139 32.616C67.5285 32.616 67.8059 32.6773 68.0459 32.8C68.2912 32.9227 68.4805 33.0933 68.6139 33.312C68.7525 33.5253 68.8219 33.7733 68.8219 34.056V37H68.2219V36.144L68.3099 36.232C68.2352 36.392 68.1179 36.5387 67.9579 36.672C67.8032 36.8 67.6192 36.904 67.4059 36.984C67.1979 37.0587 66.9685 37.096 66.7179 37.096ZM69.816 38.6V32.712H70.416V33.672L70.32 33.504C70.4907 33.232 70.7173 33.016 71 32.856C71.288 32.696 71.616 32.616 71.984 32.616C72.3893 32.616 72.7493 32.7147 73.064 32.912C73.384 33.104 73.6347 33.368 73.816 33.704C74.0027 34.04 74.096 34.424 74.096 34.856C74.096 35.2827 74.0027 35.6667 73.816 36.008C73.6347 36.344 73.384 36.6107 73.064 36.808C72.7493 37 72.3893 37.096 71.984 37.096C71.616 37.096 71.2827 37.0133 70.984 36.848C70.6907 36.6773 70.4693 36.4373 70.32 36.128L70.416 36.04V38.6H69.816ZM71.952 36.496C72.24 36.496 72.496 36.424 72.72 36.28C72.9493 36.136 73.128 35.9413 73.256 35.696C73.3893 35.4453 73.456 35.1653 73.456 34.856C73.456 34.5413 73.3893 34.2613 73.256 34.016C73.128 33.7707 72.9493 33.576 72.72 33.432C72.496 33.288 72.24 33.216 71.952 33.216C71.664 33.216 71.4027 33.288 71.168 33.432C70.9387 33.576 70.7547 33.7733 70.616 34.024C70.4827 34.2693 70.416 34.5467 70.416 34.856C70.416 35.1653 70.4827 35.4453 70.616 35.696C70.7547 35.9413 70.9387 36.136 71.168 36.28C71.4027 36.424 71.664 36.496 71.952 36.496ZM74.9119 37V32.712H75.5119V37H74.9119ZM74.9119 31.92V31.04H75.5119V31.92H74.9119ZM76.5001 37V32.712H77.1001V33.544L76.9641 33.512C77.0707 33.2347 77.2441 33.016 77.4841 32.856C77.7294 32.696 78.0121 32.616 78.3321 32.616C78.6361 32.616 78.9081 32.6853 79.1481 32.824C79.3934 32.9627 79.5854 33.1547 79.7241 33.4C79.8681 33.64 79.9401 33.912 79.9401 34.216V37H79.3401V34.448C79.3401 34.1867 79.2921 33.9653 79.1961 33.784C79.1054 33.6027 78.9747 33.464 78.8041 33.368C78.6387 33.2667 78.4467 33.216 78.2281 33.216C78.0094 33.216 77.8147 33.2667 77.6441 33.368C77.4734 33.464 77.3401 33.6053 77.2441 33.792C77.1481 33.9733 77.1001 34.192 77.1001 34.448V37H76.5001ZM82.878 38.76C82.5847 38.76 82.3127 38.7147 82.062 38.624C81.8167 38.5333 81.6033 38.408 81.422 38.248C81.246 38.0933 81.11 37.912 81.014 37.704L81.566 37.408C81.6513 37.6107 81.8033 37.7867 82.022 37.936C82.2407 38.0853 82.5207 38.16 82.862 38.16C83.1233 38.16 83.3633 38.1093 83.582 38.008C83.8007 37.9067 83.9767 37.7573 84.11 37.56C84.2433 37.3627 84.31 37.12 84.31 36.832V35.88L84.406 35.968C84.2567 36.2773 84.0353 36.5173 83.742 36.688C83.4487 36.8533 83.1287 36.936 82.782 36.936C82.382 36.936 82.022 36.84 81.702 36.648C81.382 36.456 81.1287 36.1973 80.942 35.872C80.7607 35.5413 80.67 35.176 80.67 34.776C80.67 34.3707 80.7607 34.0053 80.942 33.68C81.1287 33.3547 81.3793 33.096 81.694 32.904C82.014 32.712 82.3767 32.616 82.782 32.616C83.1287 32.616 83.4433 32.696 83.726 32.856C84.014 33.016 84.2407 33.232 84.406 33.504L84.31 33.672V32.712H84.91V36.832C84.91 37.2 84.822 37.528 84.646 37.816C84.4753 38.1093 84.2353 38.3387 83.926 38.504C83.622 38.6747 83.2727 38.76 82.878 38.76ZM82.814 36.336C83.0913 36.336 83.342 36.2667 83.566 36.128C83.79 35.984 83.9687 35.7947 84.102 35.56C84.2407 35.32 84.31 35.0587 84.31 34.776C84.31 34.4933 84.2407 34.2347 84.102 34C83.9687 33.76 83.79 33.5707 83.566 33.432C83.342 33.288 83.0913 33.216 82.814 33.216C82.5313 33.216 82.2753 33.288 82.046 33.432C81.8167 33.5707 81.6353 33.7573 81.502 33.992C81.374 34.2267 81.31 34.488 81.31 34.776C81.31 35.0587 81.374 35.32 81.502 35.56C81.6353 35.7947 81.814 35.984 82.038 36.128C82.2673 36.2667 82.526 36.336 82.814 36.336ZM87.1103 37V31.04H90.7903V31.64H87.7503V33.712H90.5503V34.312H87.7503V37H87.1103ZM92.8726 37.096C92.5739 37.096 92.3019 37.0267 92.0566 36.888C91.8112 36.744 91.6166 36.5467 91.4726 36.296C91.3339 36.04 91.2646 35.7467 91.2646 35.416V32.712H91.8646V35.344C91.8646 35.5733 91.9099 35.776 92.0006 35.952C92.0966 36.1227 92.2272 36.256 92.3926 36.352C92.5632 36.448 92.7579 36.496 92.9766 36.496C93.1952 36.496 93.3899 36.448 93.5606 36.352C93.7312 36.2507 93.8646 36.1093 93.9606 35.928C94.0566 35.7413 94.1046 35.52 94.1046 35.264V32.712H94.7046V37H94.1046V36.168L94.2406 36.2C94.1392 36.4773 93.9659 36.696 93.7206 36.856C93.4752 37.016 93.1926 37.096 92.8726 37.096ZM97.3385 37.048C96.9545 37.048 96.6585 36.936 96.4505 36.712C96.2425 36.488 96.1385 36.168 96.1385 35.752V33.312H95.3465V32.712H95.5465C95.7278 32.712 95.8718 32.6533 95.9785 32.536C96.0852 32.4133 96.1385 32.2613 96.1385 32.08V31.72H96.7385V32.712H97.6825V33.312H96.7385V35.752C96.7385 35.896 96.7598 36.024 96.8025 36.136C96.8452 36.2427 96.9172 36.328 97.0185 36.392C97.1252 36.456 97.2665 36.488 97.4425 36.488C97.4852 36.488 97.5358 36.4853 97.5945 36.48C97.6532 36.4747 97.7038 36.4693 97.7465 36.464V37C97.6825 37.016 97.6105 37.0267 97.5305 37.032C97.4505 37.0427 97.3865 37.048 97.3385 37.048ZM100.08 37.096C99.7814 37.096 99.5094 37.0267 99.2641 36.888C99.0187 36.744 98.8241 36.5467 98.6801 36.296C98.5414 36.04 98.4721 35.7467 98.4721 35.416V32.712H99.0721V35.344C99.0721 35.5733 99.1174 35.776 99.2081 35.952C99.3041 36.1227 99.4347 36.256 99.6001 36.352C99.7707 36.448 99.9654 36.496 100.184 36.496C100.403 36.496 100.597 36.448 100.768 36.352C100.939 36.2507 101.072 36.1093 101.168 35.928C101.264 35.7413 101.312 35.52 101.312 35.264V32.712H101.912V37H101.312V36.168L101.448 36.2C101.347 36.4773 101.173 36.696 100.928 36.856C100.683 37.016 100.4 37.096 100.08 37.096ZM102.906 37V32.712H103.506V33.416L103.426 33.312C103.527 33.1093 103.679 32.9493 103.882 32.832C104.09 32.7147 104.341 32.656 104.634 32.656H104.906V33.256H104.53C104.221 33.256 103.973 33.352 103.786 33.544C103.599 33.736 103.506 34.008 103.506 34.36V37H102.906ZM107.321 37.096C106.921 37.096 106.558 37 106.233 36.808C105.913 36.6107 105.66 36.3413 105.473 36C105.286 35.6587 105.193 35.272 105.193 34.84C105.193 34.408 105.284 34.0267 105.465 33.696C105.646 33.36 105.892 33.096 106.201 32.904C106.516 32.712 106.868 32.616 107.257 32.616C107.566 32.616 107.841 32.6747 108.081 32.792C108.326 32.904 108.534 33.0587 108.705 33.256C108.876 33.448 109.006 33.6667 109.097 33.912C109.188 34.152 109.233 34.4 109.233 34.656C109.233 34.7093 109.23 34.7707 109.225 34.84C109.22 34.904 109.212 34.9707 109.201 35.04H105.577V34.48H108.857L108.569 34.72C108.617 34.4267 108.582 34.1653 108.465 33.936C108.353 33.7013 108.19 33.5173 107.977 33.384C107.764 33.2453 107.524 33.176 107.257 33.176C106.99 33.176 106.742 33.2453 106.513 33.384C106.289 33.5227 106.113 33.7173 105.985 33.968C105.857 34.2133 105.806 34.5067 105.833 34.848C105.806 35.1893 105.86 35.488 105.993 35.744C106.132 35.9947 106.318 36.1893 106.553 36.328C106.793 36.4667 107.049 36.536 107.321 36.536C107.636 36.536 107.9 36.4613 108.113 36.312C108.326 36.1627 108.5 35.976 108.633 35.752L109.145 36.024C109.06 36.216 108.929 36.3947 108.753 36.56C108.577 36.72 108.366 36.8507 108.121 36.952C107.881 37.048 107.614 37.096 107.321 37.096ZM111.539 37.096C111.128 37.096 110.768 36.992 110.459 36.784C110.15 36.576 109.926 36.2933 109.787 35.936L110.291 35.696C110.414 35.9573 110.584 36.1653 110.803 36.32C111.027 36.4747 111.272 36.552 111.539 36.552C111.795 36.552 112.011 36.4907 112.187 36.368C112.363 36.24 112.451 36.0747 112.451 35.872C112.451 35.7227 112.408 35.6053 112.323 35.52C112.238 35.4293 112.139 35.36 112.027 35.312C111.915 35.264 111.816 35.2293 111.731 35.208L111.115 35.032C110.72 34.92 110.435 34.7627 110.259 34.56C110.083 34.3573 109.995 34.1227 109.995 33.856C109.995 33.6053 110.059 33.3867 110.187 33.2C110.315 33.0133 110.488 32.8693 110.707 32.768C110.926 32.6667 111.168 32.616 111.435 32.616C111.798 32.616 112.126 32.712 112.419 32.904C112.718 33.0907 112.928 33.352 113.051 33.688L112.539 33.928C112.432 33.688 112.278 33.5013 112.075 33.368C111.878 33.2293 111.656 33.16 111.411 33.16C111.171 33.16 110.979 33.2213 110.835 33.344C110.691 33.4667 110.619 33.6213 110.619 33.808C110.619 33.952 110.656 34.0667 110.731 34.152C110.806 34.2373 110.891 34.3013 110.987 34.344C111.088 34.3867 111.176 34.4187 111.251 34.44L111.963 34.648C112.31 34.7493 112.579 34.9067 112.771 35.12C112.968 35.3333 113.067 35.584 113.067 35.872C113.067 36.1067 113 36.3173 112.867 36.504C112.739 36.6907 112.56 36.8373 112.331 36.944C112.102 37.0453 111.838 37.096 111.539 37.096Z" fill="white"/>
</svg>
