<svg width="350" height="69" viewBox="0 0 375 71" fill="none" xmlns="http://www.w3.org/2000/svg">
<path d="M10.816 37.384C9.32267 37.384 7.936 37.1067 6.656 36.552C5.376 35.976 4.288 35.1973 3.392 34.216C2.496 33.2347 1.83467 32.104 1.408 30.824L4.608 29.48C5.184 30.952 6.02667 32.0827 7.136 32.872C8.24533 33.6613 9.52533 34.056 10.976 34.056C11.8293 34.056 12.576 33.928 13.216 33.672C13.856 33.3947 14.3467 33.0107 14.688 32.52C15.0507 32.0293 15.232 31.464 15.232 30.824C15.232 29.9493 14.9867 29.256 14.496 28.744C14.0053 28.232 13.28 27.8267 12.32 27.528L7.84 26.12C6.048 25.5653 4.68267 24.7227 3.744 23.592C2.80533 22.44 2.336 21.096 2.336 19.56C2.336 18.216 2.66667 17.0427 3.328 16.04C3.98933 15.016 4.896 14.216 6.048 13.64C7.22133 13.064 8.55467 12.776 10.048 12.776C11.4773 12.776 12.7787 13.032 13.952 13.544C15.1253 14.0347 16.128 14.7173 16.96 15.592C17.8133 16.4667 18.432 17.48 18.816 18.632L15.68 20.008C15.2107 18.7493 14.4747 17.7787 13.472 17.096C12.4907 16.4133 11.3493 16.072 10.048 16.072C9.25867 16.072 8.56533 16.2107 7.968 16.488C7.37067 16.744 6.90133 17.128 6.56 17.64C6.24 18.1307 6.08 18.7067 6.08 19.368C6.08 20.136 6.32533 20.8187 6.816 21.416C7.30667 22.0133 8.05333 22.4613 9.056 22.76L13.216 24.072C15.1147 24.648 16.544 25.48 17.504 26.568C18.464 27.6347 18.944 28.968 18.944 30.568C18.944 31.8907 18.592 33.064 17.888 34.088C17.2053 35.112 16.256 35.9227 15.04 36.52C13.824 37.096 12.416 37.384 10.816 37.384Z" fill="#490AFF"/>
<path d="M29.3588 37.192C27.5454 37.192 26.1374 36.68 25.1348 35.656C24.1321 34.632 23.6308 33.192 23.6308 31.336V22.952H20.5908V19.688H21.0708C21.8814 19.688 22.5108 19.4533 22.9588 18.984C23.4068 18.5147 23.6308 17.8747 23.6308 17.064V15.72H27.2468V19.688H31.1828V22.952H27.2468V31.176C27.2468 31.7733 27.3428 32.2853 27.5348 32.712C27.7268 33.1173 28.0361 33.4373 28.4628 33.672C28.8894 33.8853 29.4441 33.992 30.1268 33.992C30.2974 33.992 30.4894 33.9813 30.7028 33.96C30.9161 33.9387 31.1188 33.9173 31.3108 33.896V37C31.0121 37.0427 30.6814 37.0853 30.3188 37.128C29.9561 37.1707 29.6361 37.192 29.3588 37.192ZM41.695 37.384C39.967 37.384 38.431 36.9893 37.087 36.2C35.7643 35.3893 34.7297 34.3013 33.983 32.936C33.2363 31.5493 32.863 30.0027 32.863 28.296C32.863 26.5467 33.2363 25 33.983 23.656C34.751 22.312 35.775 21.256 37.055 20.488C38.335 19.6987 39.7857 19.304 41.407 19.304C42.7083 19.304 43.871 19.528 44.895 19.976C45.919 20.424 46.783 21.0427 47.487 21.832C48.191 22.6 48.7243 23.4853 49.087 24.488C49.471 25.4907 49.663 26.5573 49.663 27.688C49.663 27.9653 49.6523 28.2533 49.631 28.552C49.6097 28.8507 49.567 29.128 49.503 29.384H35.711V26.504H47.455L45.727 27.816C45.9403 26.7707 45.8657 25.8427 45.503 25.032C45.1617 24.2 44.6283 23.5493 43.903 23.08C43.199 22.5893 42.367 22.344 41.407 22.344C40.447 22.344 39.5937 22.5893 38.847 23.08C38.1003 23.5493 37.5243 24.232 37.119 25.128C36.7137 26.0027 36.5537 27.0693 36.639 28.328C36.5323 29.5013 36.6923 30.5253 37.119 31.4C37.567 32.2747 38.1857 32.9573 38.975 33.448C39.7857 33.9387 40.703 34.184 41.727 34.184C42.7723 34.184 43.6577 33.9493 44.383 33.48C45.1297 33.0107 45.7163 32.4027 46.143 31.656L49.087 33.096C48.7457 33.9067 48.2123 34.6427 47.487 35.304C46.783 35.944 45.9297 36.456 44.927 36.84C43.9457 37.2027 42.8683 37.384 41.695 37.384ZM52.232 37V12.776H55.848V37H52.232ZM59.1157 37V12.776H62.7318V37H59.1157ZM71.1835 37.384C70.0102 37.384 68.9755 37.1813 68.0795 36.776C67.2048 36.3493 66.5222 35.7733 66.0315 35.048C65.5408 34.3013 65.2955 33.4267 65.2955 32.424C65.2955 31.4853 65.4982 30.6427 65.9035 29.896C66.3302 29.1493 66.9808 28.52 67.8555 28.008C68.7302 27.496 69.8288 27.1333 71.1515 26.92L77.1675 25.928V28.776L71.8555 29.704C70.8955 29.8747 70.1915 30.184 69.7435 30.632C69.2955 31.0587 69.0715 31.6133 69.0715 32.296C69.0715 32.9573 69.3168 33.5013 69.8075 33.928C70.3195 34.3333 70.9702 34.536 71.7595 34.536C72.7408 34.536 73.5942 34.3227 74.3195 33.896C75.0662 33.4693 75.6422 32.904 76.0475 32.2C76.4528 31.4747 76.6555 30.6747 76.6555 29.8V25.352C76.6555 24.4987 76.3355 23.8053 75.6955 23.272C75.0768 22.7173 74.2448 22.44 73.1995 22.44C72.2395 22.44 71.3968 22.696 70.6715 23.208C69.9675 23.6987 69.4448 24.3387 69.1035 25.128L66.0955 23.624C66.4155 22.7707 66.9382 22.024 67.6635 21.384C68.3888 20.7227 69.2315 20.2107 70.1915 19.848C71.1728 19.4853 72.2075 19.304 73.2955 19.304C74.6608 19.304 75.8662 19.56 76.9115 20.072C77.9782 20.584 78.7995 21.2987 79.3755 22.216C79.9728 23.112 80.2715 24.1573 80.2715 25.352V37H76.8155V33.864L77.5515 33.96C77.1462 34.664 76.6235 35.272 75.9835 35.784C75.3648 36.296 74.6502 36.6907 73.8395 36.968C73.0502 37.2453 72.1648 37.384 71.1835 37.384ZM83.5395 37V19.688H86.9955V23.176L86.6755 22.664C87.0595 21.5333 87.6782 20.7227 88.5315 20.232C89.3848 19.72 90.4088 19.464 91.6035 19.464H92.6595V22.76H91.1555C89.9608 22.76 88.9902 23.1333 88.2435 23.88C87.5182 24.6053 87.1555 25.6507 87.1555 27.016V37H83.5395ZM108.087 37.384C106.316 37.384 104.738 37.0107 103.351 36.264C101.986 35.5173 100.908 34.4933 100.119 33.192C99.351 31.8907 98.967 30.408 98.967 28.744V13.16H102.743V28.584C102.743 29.6293 102.967 30.5573 103.415 31.368C103.884 32.1787 104.514 32.808 105.303 33.256C106.114 33.704 107.042 33.928 108.087 33.928C109.154 33.928 110.082 33.704 110.871 33.256C111.682 32.808 112.311 32.1787 112.759 31.368C113.228 30.5573 113.463 29.6293 113.463 28.584V13.16H117.207V28.744C117.207 30.408 116.823 31.8907 116.055 33.192C115.287 34.4933 114.21 35.5173 112.823 36.264C111.458 37.0107 109.879 37.384 108.087 37.384ZM120.628 37V19.688H124.084V23.08L123.668 22.632C124.095 21.544 124.778 20.7227 125.716 20.168C126.655 19.592 127.743 19.304 128.98 19.304C130.26 19.304 131.391 19.5813 132.372 20.136C133.354 20.6907 134.122 21.4587 134.676 22.44C135.231 23.4213 135.508 24.552 135.508 25.832V37H131.924V26.792C131.924 25.9173 131.764 25.1813 131.444 24.584C131.124 23.9653 130.666 23.496 130.068 23.176C129.492 22.8347 128.831 22.664 128.084 22.664C127.338 22.664 126.666 22.8347 126.068 23.176C125.492 23.496 125.044 23.9653 124.724 24.584C124.404 25.2027 124.244 25.9387 124.244 26.792V37H120.628ZM138.418 37V19.688H142.034V37H138.418ZM138.418 17.32V13.16H142.034V17.32H138.418ZM150.326 37L143.542 19.688H147.478L152.694 33.8H151.254L156.47 19.688H160.438L153.622 37H150.326ZM169.751 37.384C168.023 37.384 166.487 36.9893 165.143 36.2C163.821 35.3893 162.786 34.3013 162.039 32.936C161.293 31.5493 160.919 30.0027 160.919 28.296C160.919 26.5467 161.293 25 162.039 23.656C162.807 22.312 163.831 21.256 165.111 20.488C166.391 19.6987 167.842 19.304 169.463 19.304C170.765 19.304 171.927 19.528 172.951 19.976C173.975 20.424 174.839 21.0427 175.543 21.832C176.247 22.6 176.781 23.4853 177.143 24.488C177.527 25.4907 177.719 26.5573 177.719 27.688C177.719 27.9653 177.709 28.2533 177.687 28.552C177.666 28.8507 177.623 29.128 177.559 29.384H163.767V26.504H175.511L173.783 27.816C173.997 26.7707 173.922 25.8427 173.559 25.032C173.218 24.2 172.685 23.5493 171.959 23.08C171.255 22.5893 170.423 22.344 169.463 22.344C168.503 22.344 167.65 22.5893 166.903 23.08C166.157 23.5493 165.581 24.232 165.175 25.128C164.77 26.0027 164.61 27.0693 164.695 28.328C164.589 29.5013 164.749 30.5253 165.175 31.4C165.623 32.2747 166.242 32.9573 167.031 33.448C167.842 33.9387 168.759 34.184 169.783 34.184C170.829 34.184 171.714 33.9493 172.439 33.48C173.186 33.0107 173.773 32.4027 174.199 31.656L177.143 33.096C176.802 33.9067 176.269 34.6427 175.543 35.304C174.839 35.944 173.986 36.456 172.983 36.84C172.002 37.2027 170.925 37.384 169.751 37.384ZM180.288 37V19.688H183.744V23.176L183.424 22.664C183.808 21.5333 184.427 20.7227 185.28 20.232C186.134 19.72 187.158 19.464 188.352 19.464H189.408V22.76H187.904C186.71 22.76 185.739 23.1333 184.992 23.88C184.267 24.6053 183.904 25.6507 183.904 27.016V37H180.288ZM197.322 37.384C195.551 37.384 193.994 36.9467 192.65 36.072C191.327 35.1973 190.399 34.024 189.866 32.552L192.65 31.24C193.119 32.2213 193.759 33 194.57 33.576C195.402 34.152 196.319 34.44 197.322 34.44C198.175 34.44 198.869 34.248 199.402 33.864C199.935 33.48 200.202 32.9573 200.202 32.296C200.202 31.8693 200.085 31.528 199.85 31.272C199.615 30.9947 199.317 30.7707 198.954 30.6C198.613 30.4293 198.261 30.3013 197.898 30.216L195.178 29.448C193.685 29.0213 192.565 28.3813 191.818 27.528C191.093 26.6533 190.73 25.64 190.73 24.488C190.73 23.4427 190.997 22.536 191.53 21.768C192.063 20.9787 192.799 20.3707 193.738 19.944C194.677 19.5173 195.733 19.304 196.906 19.304C198.485 19.304 199.893 19.6987 201.13 20.488C202.367 21.256 203.242 22.3333 203.754 23.72L200.97 25.032C200.629 24.2 200.085 23.5387 199.338 23.048C198.613 22.5573 197.791 22.312 196.874 22.312C196.085 22.312 195.455 22.504 194.986 22.888C194.517 23.2507 194.282 23.7307 194.282 24.328C194.282 24.7333 194.389 25.0747 194.602 25.352C194.815 25.608 195.093 25.8213 195.434 25.992C195.775 26.1413 196.127 26.2693 196.49 26.376L199.306 27.208C200.735 27.6133 201.834 28.2533 202.602 29.128C203.37 29.9813 203.754 31.0053 203.754 32.2C203.754 33.224 203.477 34.1307 202.922 34.92C202.389 35.688 201.642 36.296 200.682 36.744C199.722 37.1707 198.602 37.384 197.322 37.384ZM206.337 37V19.688H209.953V37H206.337ZM206.337 17.32V13.16H209.953V17.32H206.337ZM220.709 37.192C218.895 37.192 217.487 36.68 216.485 35.656C215.482 34.632 214.981 33.192 214.981 31.336V22.952H211.941V19.688H212.421C213.231 19.688 213.861 19.4533 214.309 18.984C214.757 18.5147 214.981 17.8747 214.981 17.064V15.72H218.597V19.688H222.533V22.952H218.597V31.176C218.597 31.7733 218.693 32.2853 218.885 32.712C219.077 33.1173 219.386 33.4373 219.813 33.672C220.239 33.8853 220.794 33.992 221.477 33.992C221.647 33.992 221.839 33.9813 222.053 33.96C222.266 33.9387 222.469 33.9173 222.661 33.896V37C222.362 37.0427 222.031 37.0853 221.669 37.128C221.306 37.1707 220.986 37.192 220.709 37.192ZM226.766 44.072C226.339 44.072 225.912 44.0293 225.486 43.944C225.08 43.88 224.707 43.7733 224.366 43.624V40.52C224.622 40.584 224.931 40.6373 225.294 40.68C225.656 40.744 226.008 40.776 226.35 40.776C227.352 40.776 228.088 40.552 228.558 40.104C229.048 39.6773 229.486 39.0053 229.87 38.088L231.022 35.464L230.958 38.504L223.47 19.688H227.342L232.878 34.12H231.566L237.07 19.688H240.974L233.326 38.888C232.92 39.912 232.408 40.808 231.79 41.576C231.192 42.3653 230.478 42.9733 229.646 43.4C228.835 43.848 227.875 44.072 226.766 44.072Z" fill="#1A202C"/>
<path d="M1.496 56V43.335H2.856V56H1.496ZM5.14861 56V46.888H6.42361V48.656L6.13461 48.588C6.36128 47.9987 6.72961 47.534 7.23961 47.194C7.76094 46.854 8.36161 46.684 9.04161 46.684C9.68761 46.684 10.2656 46.8313 10.7756 47.126C11.2969 47.4207 11.7049 47.8287 11.9996 48.35C12.3056 48.86 12.4586 49.438 12.4586 50.084V56H11.1836V50.577C11.1836 50.0217 11.0816 49.5513 10.8776 49.166C10.6849 48.7807 10.4073 48.486 10.0446 48.282C9.69328 48.0667 9.28528 47.959 8.82061 47.959C8.35594 47.959 7.94228 48.0667 7.57961 48.282C7.21694 48.486 6.93361 48.7863 6.72961 49.183C6.52561 49.5683 6.42361 50.033 6.42361 50.577V56H5.14861ZM17.5457 56.204C16.6731 56.204 15.9081 55.983 15.2507 55.541C14.5934 55.099 14.1174 54.4983 13.8227 53.739L14.8937 53.229C15.1544 53.7843 15.5171 54.2263 15.9817 54.555C16.4577 54.8837 16.9791 55.048 17.5457 55.048C18.0897 55.048 18.5487 54.9177 18.9227 54.657C19.2967 54.385 19.4837 54.0337 19.4837 53.603C19.4837 53.2857 19.3931 53.0363 19.2117 52.855C19.0304 52.6623 18.8207 52.515 18.5827 52.413C18.3447 52.311 18.1351 52.2373 17.9537 52.192L16.6447 51.818C15.8061 51.58 15.1997 51.2457 14.8257 50.815C14.4517 50.3843 14.2647 49.8857 14.2647 49.319C14.2647 48.7863 14.4007 48.3217 14.6727 47.925C14.9447 47.5283 15.3131 47.2223 15.7777 47.007C16.2424 46.7917 16.7581 46.684 17.3247 46.684C18.0954 46.684 18.7924 46.888 19.4157 47.296C20.0504 47.6927 20.4981 48.248 20.7587 48.962L19.6707 49.472C19.4441 48.962 19.1154 48.5653 18.6847 48.282C18.2654 47.9873 17.7951 47.84 17.2737 47.84C16.7637 47.84 16.3557 47.9703 16.0497 48.231C15.7437 48.4917 15.5907 48.8203 15.5907 49.217C15.5907 49.523 15.6701 49.7667 15.8287 49.948C15.9874 50.1293 16.1687 50.2653 16.3727 50.356C16.5881 50.4467 16.7751 50.5147 16.9337 50.56L18.4467 51.002C19.1834 51.2173 19.7557 51.5517 20.1637 52.005C20.5831 52.4583 20.7927 52.991 20.7927 53.603C20.7927 54.1017 20.6511 54.5493 20.3677 54.946C20.0957 55.3427 19.7161 55.6543 19.2287 55.881C18.7414 56.0963 18.1804 56.204 17.5457 56.204ZM22.5231 59.4V46.888H23.7981V48.928L23.5941 48.571C23.9568 47.993 24.4385 47.534 25.0391 47.194C25.6511 46.854 26.3481 46.684 27.1301 46.684C27.9915 46.684 28.7565 46.8937 29.4251 47.313C30.1051 47.721 30.6378 48.282 31.0231 48.996C31.4198 49.71 31.6181 50.526 31.6181 51.444C31.6181 52.3507 31.4198 53.1667 31.0231 53.892C30.6378 54.606 30.1051 55.1727 29.4251 55.592C28.7565 56 27.9915 56.204 27.1301 56.204C26.3481 56.204 25.6398 56.0283 25.0051 55.677C24.3818 55.3143 23.9115 54.8043 23.5941 54.147L23.7981 53.96V59.4H22.5231ZM27.0621 54.929C27.6741 54.929 28.2181 54.776 28.6941 54.47C29.1815 54.164 29.5611 53.7503 29.8331 53.229C30.1165 52.6963 30.2581 52.1013 30.2581 51.444C30.2581 50.7753 30.1165 50.1803 29.8331 49.659C29.5611 49.1377 29.1815 48.724 28.6941 48.418C28.2181 48.112 27.6741 47.959 27.0621 47.959C26.4501 47.959 25.8948 48.112 25.3961 48.418C24.9088 48.724 24.5178 49.1433 24.2231 49.676C23.9398 50.1973 23.7981 50.7867 23.7981 51.444C23.7981 52.1013 23.9398 52.6963 24.2231 53.229C24.5178 53.7503 24.9088 54.164 25.3961 54.47C25.8948 54.776 26.4501 54.929 27.0621 54.929ZM33.352 56V46.888H34.627V56H33.352ZM33.352 45.205V43.335H34.627V45.205H33.352ZM36.7268 56V46.888H38.0018V48.384L37.8318 48.163C38.0471 47.7323 38.3701 47.3923 38.8008 47.143C39.2428 46.8937 39.7754 46.769 40.3988 46.769H40.9768V48.044H40.1778C39.5204 48.044 38.9934 48.248 38.5968 48.656C38.2001 49.064 38.0018 49.642 38.0018 50.39V56H36.7268ZM41.9609 56V46.888H43.2359V56H41.9609ZM41.9609 45.205V43.335H43.2359V45.205H41.9609ZM45.3357 56V46.888H46.6107V48.656L46.3217 48.588C46.5483 47.9987 46.9167 47.534 47.4267 47.194C47.948 46.854 48.5487 46.684 49.2287 46.684C49.8747 46.684 50.4527 46.8313 50.9627 47.126C51.484 47.4207 51.892 47.8287 52.1867 48.35C52.4927 48.86 52.6457 49.438 52.6457 50.084V56H51.3707V50.577C51.3707 50.0217 51.2687 49.5513 51.0647 49.166C50.872 48.7807 50.5943 48.486 50.2317 48.282C49.8803 48.0667 49.4723 47.959 49.0077 47.959C48.543 47.959 48.1293 48.0667 47.7667 48.282C47.404 48.486 47.1207 48.7863 46.9167 49.183C46.7127 49.5683 46.6107 50.033 46.6107 50.577V56H45.3357ZM58.8888 59.74C58.2655 59.74 57.6875 59.6437 57.1548 59.451C56.6335 59.2583 56.1801 58.992 55.7948 58.652C55.4208 58.3233 55.1318 57.938 54.9278 57.496L56.1008 56.867C56.2821 57.2977 56.6051 57.6717 57.0698 57.989C57.5345 58.3063 58.1295 58.465 58.8548 58.465C59.4101 58.465 59.9201 58.3573 60.3848 58.142C60.8495 57.9267 61.2235 57.6093 61.5068 57.19C61.7901 56.7707 61.9318 56.255 61.9318 55.643V53.62L62.1358 53.807C61.8185 54.4643 61.3481 54.9743 60.7248 55.337C60.1015 55.6883 59.4215 55.864 58.6848 55.864C57.8348 55.864 57.0698 55.66 56.3898 55.252C55.7098 54.844 55.1715 54.2943 54.7748 53.603C54.3895 52.9003 54.1968 52.124 54.1968 51.274C54.1968 50.4127 54.3895 49.6363 54.7748 48.945C55.1715 48.2537 55.7041 47.704 56.3728 47.296C57.0528 46.888 57.8235 46.684 58.6848 46.684C59.4215 46.684 60.0901 46.854 60.6908 47.194C61.3028 47.534 61.7845 47.993 62.1358 48.571L61.9318 48.928V46.888H63.2068V55.643C63.2068 56.425 63.0198 57.122 62.6458 57.734C62.2831 58.3573 61.7731 58.8447 61.1158 59.196C60.4698 59.5587 59.7275 59.74 58.8888 59.74ZM58.7528 54.589C59.3421 54.589 59.8748 54.4417 60.3508 54.147C60.8268 53.841 61.2065 53.4387 61.4898 52.94C61.7845 52.43 61.9318 51.8747 61.9318 51.274C61.9318 50.6733 61.7845 50.1237 61.4898 49.625C61.2065 49.115 60.8268 48.7127 60.3508 48.418C59.8748 48.112 59.3421 47.959 58.7528 47.959C58.1521 47.959 57.6081 48.112 57.1208 48.418C56.6335 48.7127 56.2481 49.1093 55.9648 49.608C55.6928 50.1067 55.5568 50.662 55.5568 51.274C55.5568 51.8747 55.6928 52.43 55.9648 52.94C56.2481 53.4387 56.6278 53.841 57.1038 54.147C57.5911 54.4417 58.1408 54.589 58.7528 54.589ZM67.8823 56V43.335H69.0723L73.8323 50.237H73.1693L77.9123 43.335H79.1023V56H77.7423V45.171L78.1843 45.341L73.5263 52.09H73.4583L68.8173 45.341L69.2423 45.171V56H67.8823ZM81.3963 56V46.888H82.6713V56H81.3963ZM81.3963 45.205V43.335H82.6713V45.205H81.3963ZM84.771 56V46.888H86.046V48.656L85.757 48.588C85.9837 47.9987 86.352 47.534 86.862 47.194C87.3834 46.854 87.984 46.684 88.664 46.684C89.31 46.684 89.888 46.8313 90.398 47.126C90.9194 47.4207 91.3274 47.8287 91.622 48.35C91.928 48.86 92.081 49.438 92.081 50.084V56H90.806V50.577C90.806 50.0217 90.704 49.5513 90.5 49.166C90.3074 48.7807 90.0297 48.486 89.667 48.282C89.3157 48.0667 88.9077 47.959 88.443 47.959C87.9784 47.959 87.5647 48.0667 87.202 48.282C86.8394 48.486 86.556 48.7863 86.352 49.183C86.148 49.5683 86.046 50.033 86.046 50.577V56H84.771ZM98.1202 56.204C97.2702 56.204 96.5052 56 95.8252 55.592C95.1452 55.1727 94.6068 54.606 94.2102 53.892C93.8248 53.1667 93.6322 52.3507 93.6322 51.444C93.6322 50.526 93.8248 49.71 94.2102 48.996C94.6068 48.282 95.1395 47.721 95.8082 47.313C96.4882 46.8937 97.2588 46.684 98.1202 46.684C98.9022 46.684 99.5992 46.854 100.211 47.194C100.823 47.534 101.305 47.993 101.656 48.571L101.452 48.928V43.131H102.727V56H101.452V53.96L101.656 54.147C101.339 54.8043 100.863 55.3143 100.228 55.677C99.6048 56.0283 98.9022 56.204 98.1202 56.204ZM98.1882 54.929C98.8002 54.929 99.3498 54.776 99.8372 54.47C100.336 54.164 100.727 53.7503 101.01 53.229C101.305 52.6963 101.452 52.1013 101.452 51.444C101.452 50.7867 101.305 50.1973 101.01 49.676C100.727 49.1433 100.336 48.724 99.8372 48.418C99.3498 48.112 98.8002 47.959 98.1882 47.959C97.5875 47.959 97.0435 48.112 96.5562 48.418C96.0688 48.724 95.6835 49.1377 95.4002 49.659C95.1282 50.1803 94.9922 50.7753 94.9922 51.444C94.9922 52.1013 95.1282 52.6963 95.4002 53.229C95.6835 53.7503 96.0632 54.164 96.5392 54.47C97.0265 54.776 97.5762 54.929 98.1882 54.929ZM107.997 56.204C107.124 56.204 106.359 55.983 105.702 55.541C105.045 55.099 104.569 54.4983 104.274 53.739L105.345 53.229C105.606 53.7843 105.968 54.2263 106.433 54.555C106.909 54.8837 107.43 55.048 107.997 55.048C108.541 55.048 109 54.9177 109.374 54.657C109.748 54.385 109.935 54.0337 109.935 53.603C109.935 53.2857 109.844 53.0363 109.663 52.855C109.482 52.6623 109.272 52.515 109.034 52.413C108.796 52.311 108.586 52.2373 108.405 52.192L107.096 51.818C106.257 51.58 105.651 51.2457 105.277 50.815C104.903 50.3843 104.716 49.8857 104.716 49.319C104.716 48.7863 104.852 48.3217 105.124 47.925C105.396 47.5283 105.764 47.2223 106.229 47.007C106.694 46.7917 107.209 46.684 107.776 46.684C108.547 46.684 109.244 46.888 109.867 47.296C110.502 47.6927 110.949 48.248 111.21 48.962L110.122 49.472C109.895 48.962 109.567 48.5653 109.136 48.282C108.717 47.9873 108.246 47.84 107.725 47.84C107.215 47.84 106.807 47.9703 106.501 48.231C106.195 48.4917 106.042 48.8203 106.042 49.217C106.042 49.523 106.121 49.7667 106.28 49.948C106.439 50.1293 106.62 50.2653 106.824 50.356C107.039 50.4467 107.226 50.5147 107.385 50.56L108.898 51.002C109.635 51.2173 110.207 51.5517 110.615 52.005C111.034 52.4583 111.244 52.991 111.244 53.603C111.244 54.1017 111.102 54.5493 110.819 54.946C110.547 55.3427 110.167 55.6543 109.68 55.881C109.193 56.0963 108.632 56.204 107.997 56.204ZM113.025 58.21V57.615C113.365 57.5243 113.615 57.3487 113.773 57.088C113.932 56.8273 114.011 56.4647 114.011 56H113.365V54.13H114.725V55.558C114.725 56.2947 114.584 56.884 114.3 57.326C114.017 57.7793 113.592 58.074 113.025 58.21ZM123.879 56.204C123.074 56.204 122.343 56.051 121.686 55.745C121.029 55.439 120.473 55.031 120.02 54.521C119.567 53.9997 119.244 53.4273 119.051 52.804L120.275 52.345C120.57 53.2063 121.029 53.8637 121.652 54.317C122.275 54.759 123.018 54.98 123.879 54.98C124.423 54.98 124.899 54.895 125.307 54.725C125.726 54.5437 126.049 54.2943 126.276 53.977C126.503 53.6597 126.616 53.2913 126.616 52.872C126.616 52.2487 126.446 51.767 126.106 51.427C125.766 51.087 125.279 50.8263 124.644 50.645L122.366 49.965C121.471 49.7043 120.779 49.268 120.292 48.656C119.816 48.044 119.578 47.347 119.578 46.565C119.578 45.8963 119.742 45.307 120.071 44.797C120.4 44.2757 120.847 43.8677 121.414 43.573C121.992 43.2783 122.644 43.131 123.369 43.131C124.128 43.131 124.808 43.2727 125.409 43.556C126.021 43.828 126.537 44.1907 126.956 44.644C127.375 45.0973 127.676 45.6017 127.857 46.157L126.667 46.633C126.395 45.885 125.97 45.3183 125.392 44.933C124.825 44.5477 124.157 44.355 123.386 44.355C122.899 44.355 122.468 44.44 122.094 44.61C121.731 44.78 121.448 45.0237 121.244 45.341C121.04 45.6583 120.938 46.0323 120.938 46.463C120.938 46.9843 121.102 47.4547 121.431 47.874C121.76 48.282 122.264 48.588 122.944 48.792L124.95 49.387C125.947 49.6817 126.701 50.1067 127.211 50.662C127.721 51.2173 127.976 51.9143 127.976 52.753C127.976 53.433 127.8 54.0337 127.449 54.555C127.109 55.065 126.627 55.4673 126.004 55.762C125.392 56.0567 124.684 56.204 123.879 56.204ZM129.905 56V43.131H131.18V48.656L130.891 48.588C131.118 47.9987 131.486 47.534 131.996 47.194C132.518 46.854 133.118 46.684 133.798 46.684C134.444 46.684 135.022 46.8313 135.532 47.126C136.054 47.4207 136.462 47.8287 136.756 48.35C137.062 48.86 137.215 49.438 137.215 50.084V56H135.94V50.577C135.94 50.0217 135.838 49.5513 135.634 49.166C135.43 48.7807 135.147 48.486 134.784 48.282C134.433 48.0667 134.031 47.959 133.577 47.959C133.124 47.959 132.716 48.0667 132.353 48.282C131.991 48.486 131.702 48.7863 131.486 49.183C131.282 49.5683 131.18 50.033 131.18 50.577V56H129.905ZM141.775 56.204C141.197 56.204 140.682 56.0963 140.228 55.881C139.775 55.6543 139.418 55.3483 139.157 54.963C138.897 54.5777 138.766 54.1357 138.766 53.637C138.766 53.161 138.868 52.7303 139.072 52.345C139.276 51.9483 139.594 51.614 140.024 51.342C140.455 51.07 141.005 50.8773 141.673 50.764L145.243 50.169V51.325L141.979 51.869C141.322 51.9823 140.846 52.192 140.551 52.498C140.268 52.804 140.126 53.1667 140.126 53.586C140.126 53.994 140.285 54.3397 140.602 54.623C140.931 54.9063 141.35 55.048 141.86 55.048C142.484 55.048 143.028 54.9177 143.492 54.657C143.957 54.385 144.32 54.0223 144.58 53.569C144.841 53.1157 144.971 52.6113 144.971 52.056V49.744C144.971 49.2 144.773 48.758 144.376 48.418C143.98 48.078 143.464 47.908 142.829 47.908C142.274 47.908 141.787 48.0497 141.367 48.333C140.948 48.605 140.636 48.962 140.432 49.404L139.276 48.775C139.446 48.3897 139.713 48.0383 140.075 47.721C140.449 47.4037 140.874 47.1543 141.35 46.973C141.826 46.7803 142.319 46.684 142.829 46.684C143.498 46.684 144.087 46.8143 144.597 47.075C145.119 47.3357 145.521 47.6983 145.804 48.163C146.099 48.6163 146.246 49.1433 146.246 49.744V56H144.971V54.181L145.158 54.368C145 54.708 144.75 55.0197 144.41 55.303C144.082 55.575 143.691 55.796 143.237 55.966C142.795 56.1247 142.308 56.204 141.775 56.204ZM148.359 59.4V46.888H149.634V48.928L149.43 48.571C149.793 47.993 150.274 47.534 150.875 47.194C151.487 46.854 152.184 46.684 152.966 46.684C153.827 46.684 154.592 46.8937 155.261 47.313C155.941 47.721 156.474 48.282 156.859 48.996C157.256 49.71 157.454 50.526 157.454 51.444C157.454 52.3507 157.256 53.1667 156.859 53.892C156.474 54.606 155.941 55.1727 155.261 55.592C154.592 56 153.827 56.204 152.966 56.204C152.184 56.204 151.476 56.0283 150.841 55.677C150.218 55.3143 149.747 54.8043 149.43 54.147L149.634 53.96V59.4H148.359ZM152.898 54.929C153.51 54.929 154.054 54.776 154.53 54.47C155.017 54.164 155.397 53.7503 155.669 53.229C155.952 52.6963 156.094 52.1013 156.094 51.444C156.094 50.7753 155.952 50.1803 155.669 49.659C155.397 49.1377 155.017 48.724 154.53 48.418C154.054 48.112 153.51 47.959 152.898 47.959C152.286 47.959 151.731 48.112 151.232 48.418C150.745 48.724 150.354 49.1433 150.059 49.676C149.776 50.1973 149.634 50.7867 149.634 51.444C149.634 52.1013 149.776 52.6963 150.059 53.229C150.354 53.7503 150.745 54.164 151.232 54.47C151.731 54.776 152.286 54.929 152.898 54.929ZM159.188 56V46.888H160.463V56H159.188ZM159.188 45.205V43.335H160.463V45.205H159.188ZM162.563 56V46.888H163.838V48.656L163.549 48.588C163.775 47.9987 164.144 47.534 164.654 47.194C165.175 46.854 165.776 46.684 166.456 46.684C167.102 46.684 167.68 46.8313 168.19 47.126C168.711 47.4207 169.119 47.8287 169.414 48.35C169.72 48.86 169.873 49.438 169.873 50.084V56H168.598V50.577C168.598 50.0217 168.496 49.5513 168.292 49.166C168.099 48.7807 167.821 48.486 167.459 48.282C167.107 48.0667 166.699 47.959 166.235 47.959C165.77 47.959 165.356 48.0667 164.994 48.282C164.631 48.486 164.348 48.7863 164.144 49.183C163.94 49.5683 163.838 50.033 163.838 50.577V56H162.563ZM176.116 59.74C175.492 59.74 174.914 59.6437 174.382 59.451C173.86 59.2583 173.407 58.992 173.022 58.652C172.648 58.3233 172.359 57.938 172.155 57.496L173.328 56.867C173.509 57.2977 173.832 57.6717 174.297 57.989C174.761 58.3063 175.356 58.465 176.082 58.465C176.637 58.465 177.147 58.3573 177.612 58.142C178.076 57.9267 178.45 57.6093 178.734 57.19C179.017 56.7707 179.159 56.255 179.159 55.643V53.62L179.363 53.807C179.045 54.4643 178.575 54.9743 177.952 55.337C177.328 55.6883 176.648 55.864 175.912 55.864C175.062 55.864 174.297 55.66 173.617 55.252C172.937 54.844 172.398 54.2943 172.002 53.603C171.616 52.9003 171.424 52.124 171.424 51.274C171.424 50.4127 171.616 49.6363 172.002 48.945C172.398 48.2537 172.931 47.704 173.6 47.296C174.28 46.888 175.05 46.684 175.912 46.684C176.648 46.684 177.317 46.854 177.918 47.194C178.53 47.534 179.011 47.993 179.363 48.571L179.159 48.928V46.888H180.434V55.643C180.434 56.425 180.247 57.122 179.873 57.734C179.51 58.3573 179 58.8447 178.343 59.196C177.697 59.5587 176.954 59.74 176.116 59.74ZM175.98 54.589C176.569 54.589 177.102 54.4417 177.578 54.147C178.054 53.841 178.433 53.4387 178.717 52.94C179.011 52.43 179.159 51.8747 179.159 51.274C179.159 50.6733 179.011 50.1237 178.717 49.625C178.433 49.115 178.054 48.7127 177.578 48.418C177.102 48.112 176.569 47.959 175.98 47.959C175.379 47.959 174.835 48.112 174.348 48.418C173.86 48.7127 173.475 49.1093 173.192 49.608C172.92 50.1067 172.784 50.662 172.784 51.274C172.784 51.8747 172.92 52.43 173.192 52.94C173.475 53.4387 173.855 53.841 174.331 54.147C174.818 54.4417 175.368 54.589 175.98 54.589ZM185.109 56V43.335H192.929V44.61H186.469V49.013H192.419V50.288H186.469V56H185.109ZM197.354 56.204C196.72 56.204 196.142 56.0567 195.62 55.762C195.099 55.456 194.685 55.0367 194.379 54.504C194.085 53.96 193.937 53.3367 193.937 52.634V46.888H195.212V52.481C195.212 52.9683 195.309 53.399 195.501 53.773C195.705 54.1357 195.983 54.419 196.334 54.623C196.697 54.827 197.111 54.929 197.575 54.929C198.04 54.929 198.454 54.827 198.816 54.623C199.179 54.4077 199.462 54.1073 199.666 53.722C199.87 53.3253 199.972 52.855 199.972 52.311V46.888H201.247V56H199.972V54.232L200.261 54.3C200.046 54.8893 199.678 55.354 199.156 55.694C198.635 56.034 198.034 56.204 197.354 56.204ZM206.844 56.102C206.028 56.102 205.399 55.864 204.957 55.388C204.515 54.912 204.294 54.232 204.294 53.348V48.163H202.611V46.888H203.036C203.422 46.888 203.728 46.7633 203.954 46.514C204.181 46.2533 204.294 45.9303 204.294 45.545V44.78H205.569V46.888H207.575V48.163H205.569V53.348C205.569 53.654 205.615 53.926 205.705 54.164C205.796 54.3907 205.949 54.572 206.164 54.708C206.391 54.844 206.691 54.912 207.065 54.912C207.156 54.912 207.264 54.9063 207.388 54.895C207.513 54.8837 207.621 54.8723 207.711 54.861V56C207.575 56.034 207.422 56.0567 207.252 56.068C207.082 56.0907 206.946 56.102 206.844 56.102ZM212.67 56.204C212.035 56.204 211.457 56.0567 210.936 55.762C210.415 55.456 210.001 55.0367 209.695 54.504C209.4 53.96 209.253 53.3367 209.253 52.634V46.888H210.528V52.481C210.528 52.9683 210.624 53.399 210.817 53.773C211.021 54.1357 211.299 54.419 211.65 54.623C212.013 54.827 212.426 54.929 212.891 54.929C213.356 54.929 213.769 54.827 214.132 54.623C214.495 54.4077 214.778 54.1073 214.982 53.722C215.186 53.3253 215.288 52.855 215.288 52.311V46.888H216.563V56H215.288V54.232L215.577 54.3C215.362 54.8893 214.993 55.354 214.472 55.694C213.951 56.034 213.35 56.204 212.67 56.204ZM218.675 56V46.888H219.95V48.384L219.78 48.163C219.996 47.7323 220.319 47.3923 220.749 47.143C221.191 46.8937 221.724 46.769 222.347 46.769H222.925V48.044H222.126C221.469 48.044 220.942 48.248 220.545 48.656C220.149 49.064 219.95 49.642 219.95 50.39V56H218.675ZM228.057 56.204C227.207 56.204 226.437 56 225.745 55.592C225.065 55.1727 224.527 54.6003 224.13 53.875C223.734 53.1497 223.535 52.328 223.535 51.41C223.535 50.492 223.728 49.6817 224.113 48.979C224.499 48.265 225.02 47.704 225.677 47.296C226.346 46.888 227.094 46.684 227.921 46.684C228.579 46.684 229.162 46.8087 229.672 47.058C230.194 47.296 230.636 47.6247 230.998 48.044C231.361 48.452 231.639 48.9167 231.831 49.438C232.024 49.948 232.12 50.475 232.12 51.019C232.12 51.1323 232.115 51.2627 232.103 51.41C232.092 51.546 232.075 51.6877 232.052 51.835H224.351V50.645H231.321L230.709 51.155C230.811 50.5317 230.738 49.9763 230.488 49.489C230.25 48.9903 229.905 48.5993 229.451 48.316C228.998 48.0213 228.488 47.874 227.921 47.874C227.355 47.874 226.828 48.0213 226.34 48.316C225.864 48.6107 225.49 49.0243 225.218 49.557C224.946 50.0783 224.839 50.7017 224.895 51.427C224.839 52.1523 224.952 52.787 225.235 53.331C225.53 53.8637 225.927 54.2773 226.425 54.572C226.935 54.8667 227.479 55.014 228.057 55.014C228.726 55.014 229.287 54.8553 229.74 54.538C230.194 54.2207 230.562 53.824 230.845 53.348L231.933 53.926C231.752 54.334 231.474 54.7137 231.1 55.065C230.726 55.405 230.279 55.6827 229.757 55.898C229.247 56.102 228.681 56.204 228.057 56.204ZM237.02 56.204C236.148 56.204 235.383 55.983 234.725 55.541C234.068 55.099 233.592 54.4983 233.297 53.739L234.368 53.229C234.629 53.7843 234.992 54.2263 235.456 54.555C235.932 54.8837 236.454 55.048 237.02 55.048C237.564 55.048 238.023 54.9177 238.397 54.657C238.771 54.385 238.958 54.0337 238.958 53.603C238.958 53.2857 238.868 53.0363 238.686 52.855C238.505 52.6623 238.295 52.515 238.057 52.413C237.819 52.311 237.61 52.2373 237.428 52.192L236.119 51.818C235.281 51.58 234.674 51.2457 234.3 50.815C233.926 50.3843 233.739 49.8857 233.739 49.319C233.739 48.7863 233.875 48.3217 234.147 47.925C234.419 47.5283 234.788 47.2223 235.252 47.007C235.717 46.7917 236.233 46.684 236.799 46.684C237.57 46.684 238.267 46.888 238.89 47.296C239.525 47.6927 239.973 48.248 240.233 48.962L239.145 49.472C238.919 48.962 238.59 48.5653 238.159 48.282C237.74 47.9873 237.27 47.84 236.748 47.84C236.238 47.84 235.83 47.9703 235.524 48.231C235.218 48.4917 235.065 48.8203 235.065 49.217C235.065 49.523 235.145 49.7667 235.303 49.948C235.462 50.1293 235.643 50.2653 235.847 50.356C236.063 50.4467 236.25 50.5147 236.408 50.56L237.921 51.002C238.658 51.2173 239.23 51.5517 239.638 52.005C240.058 52.4583 240.267 52.991 240.267 53.603C240.267 54.1017 240.126 54.5493 239.842 54.946C239.57 55.3427 239.191 55.6543 238.703 55.881C238.216 56.0963 237.655 56.204 237.02 56.204Z" fill="#1A202C"/>
</svg>
