<svg width="55" height="75" viewBox="0 0 55 75" fill="none" xmlns="http://www.w3.org/2000/svg">
<path fill-rule="evenodd" clip-rule="evenodd" d="M16.824 71.8885C20.728 73.5526 24.952 74.3846 29.496 74.3846C34.424 74.3846 38.744 73.4885 42.456 71.6965C46.168 69.9045 49.08 67.4406 51.192 64.3046C53.304 61.1685 54.36 57.5525 54.36 53.4565C54.36 48.6565 52.92 44.6245 50.04 41.3605C47.224 38.0965 42.968 35.5365 37.272 33.6805L24.12 29.5525C21.496 28.7205 19.544 27.5685 18.264 26.0965C16.984 24.5605 16.344 22.8005 16.344 20.8165C16.344 19.0245 16.792 17.4885 17.688 16.2085C18.648 14.8645 19.96 13.8405 21.624 13.1365C23.288 12.3685 25.208 11.9845 27.384 11.9845C31.096 11.9845 34.36 12.9765 37.176 14.9605C39.7628 16.7243 41.7556 19.1901 43.1542 22.358C43.0532 21.9216 42.9999 21.4669 42.9999 20.9998C42.9999 17.6861 45.6861 14.9998 48.9999 14.9998C51.071 14.9998 52.8971 16.0493 53.9753 17.6454C52.6977 14.3855 50.842 11.5385 48.408 9.10455C45.848 6.41655 42.776 4.33655 39.192 2.86455C35.608 1.32855 31.672 0.560547 27.384 0.560547C22.712 0.560547 18.552 1.45655 14.904 3.24855C11.32 4.97655 8.50399 7.40855 6.45599 10.5445C4.47199 13.6805 3.47999 17.2965 3.47999 21.3925C3.47999 26.0645 4.88799 30.1285 7.70399 33.5845C10.52 37.0406 14.712 39.6325 20.28 41.3605L34.008 45.7766C36.504 46.5445 38.36 47.6325 39.576 49.0406C40.856 50.3846 41.496 52.1125 41.496 54.2245C41.496 56.0165 41.016 57.5526 40.056 58.8325C39.16 60.1125 37.848 61.1365 36.12 61.9045C34.456 62.6085 32.472 62.9605 30.168 62.9605C26.072 62.9605 22.392 61.8085 19.128 59.5045C15.864 57.1365 13.368 53.9045 11.64 49.8085L0.791992 54.5126C2.07199 58.4806 4.08799 61.9685 6.83999 64.9765C9.65599 67.9205 12.984 70.2245 16.824 71.8885Z" fill="#9747FF"/>
<circle cx="49.5" cy="21.5" r="3.5" fill="#302A2A"/>
</svg>
